<?xml version="1.0" encoding="UTF-8"?>
<svg version="1.1" xmlns="http://www.w3.org/2000/svg" width="128" height="128">
<path d="M0 0 C3.82011705 1.77004202 7.35875026 3.91365488 10.9375 6.125 C13.06345945 7.40421544 15.18977261 8.68284318 17.31640625 9.9609375 C18.40969238 10.62448242 19.50297852 11.28802734 20.62939453 11.97167969 C27.20061346 15.92602467 33.86284543 19.72608363 40.50756836 23.55517578 C41.46155518 24.10931152 42.41554199 24.66344727 43.3984375 25.234375 C44.66179932 25.96479004 44.66179932 25.96479004 45.95068359 26.70996094 C48 28 48 28 50 30 C50.28088379 32.59858704 50.28088379 32.59858704 50.32226562 35.9309082 C50.34148071 37.17592606 50.3606958 38.42094391 50.38049316 39.70368958 C50.39018975 41.06937936 50.39874726 42.43507765 50.40625 43.80078125 C50.41775448 45.1984203 50.42926993 46.59605925 50.4407959 47.99369812 C50.46181811 50.92672191 50.47350121 53.85963606 50.48046875 56.79272461 C50.4914276 60.54592931 50.53945179 64.29767868 50.59641266 68.05042744 C50.6337229 70.93900228 50.64407951 73.82722898 50.6471405 76.7160244 C50.65318414 78.09914274 50.66921059 79.48225563 50.69551086 80.8651371 C50.88484205 91.58751803 50.88484205 91.58751803 48.83479309 94.86003113 C47.34106445 96.16015625 47.34106445 96.16015625 44 98 C43.01604248 98.61963623 42.03208496 99.23927246 41.01831055 99.87768555 C39.98488525 100.4581665 38.95145996 101.03864746 37.88671875 101.63671875 C37.31920395 101.9581636 36.75168915 102.27960846 36.16697693 102.61079407 C34.34367622 103.64214619 32.51584759 104.66512595 30.6875 105.6875 C28.16659689 107.10564563 25.64757203 108.52710411 23.12890625 109.94921875 C22.20280548 110.47103226 22.20280548 110.47103226 21.25799561 111.00338745 C17.66494263 113.03447562 14.11103789 115.1164487 10.58984375 117.26953125 C9.82003174 117.7385083 9.05021973 118.20748535 8.25708008 118.69067383 C6.88178302 119.53525394 5.51257781 120.38987471 4.15112305 121.2565918 C0.17704776 123.68428067 -2.381876 124.39938587 -7 124 C-9.70629883 122.87353516 -9.70629883 122.87353516 -12.45703125 121.2890625 C-13.47933838 120.70825928 -14.50164551 120.12745605 -15.55493164 119.52905273 C-16.6299292 118.90071533 -17.70492676 118.27237793 -18.8125 117.625 C-19.92165771 116.98957275 -21.03081543 116.35414551 -22.17358398 115.69946289 C-25.45716316 113.81325258 -28.72981206 111.90931179 -32 110 C-33.7135073 109.00645114 -35.4270454 108.0129554 -37.140625 107.01953125 C-41.1102735 104.70661418 -45.06829989 102.37689616 -49 100 C-50.09030518 99.34862061 -50.09030518 99.34862061 -51.20263672 98.68408203 C-51.92854004 98.24306152 -52.65444336 97.80204102 -53.40234375 97.34765625 C-54.06613037 96.94683838 -54.72991699 96.54602051 -55.41381836 96.13305664 C-57 95 -57 95 -58 93 C-58.11174472 91.05064843 -58.15928582 89.09749093 -58.17700195 87.14501953 C-58.18983719 85.91679474 -58.20267242 84.68856995 -58.21589661 83.42312622 C-58.22406341 82.07635907 -58.23150726 80.72958737 -58.23828125 79.3828125 C-58.24235678 78.70562038 -58.2464323 78.02842827 -58.25063133 77.33071518 C-58.27148818 73.74700984 -58.285792 70.16334275 -58.29516602 66.57958984 C-58.30623519 62.87821888 -58.34064092 59.17744834 -58.38033772 55.47628975 C-58.40648137 52.62982057 -58.41485573 49.78349503 -58.41844749 46.93691635 C-58.42331869 45.57254858 -58.43494805 44.20818745 -58.45348549 42.84393692 C-58.47782593 40.93402831 -58.47449713 39.02382787 -58.4699707 37.11376953 C-58.47583694 36.02726105 -58.48170319 34.94075256 -58.48774719 33.82131958 C-57.88256768 30.32072573 -56.72116487 29.20436128 -54 27 C-51.81542969 25.57470703 -51.81542969 25.57470703 -49.421875 24.2578125 C-48.51953125 23.75531982 -47.6171875 23.25282715 -46.6875 22.73510742 C-45.718125 22.20377197 -44.74875 21.67243652 -43.75 21.125 C-37.23775437 17.52082688 -30.76024999 13.88732572 -24.390625 10.03515625 C-23.32102539 9.39239746 -22.25142578 8.74963867 -21.14941406 8.08740234 C-19.08683595 6.8431401 -17.03116022 5.58734625 -14.98339844 4.31884766 C-5.68921669 -1.25226334 -5.68921669 -1.25226334 0 0 Z " fill="#659AD3" transform="translate(68,2)"/>
<path d="M0 0 C0.13917666 7.86684766 0.24570891 15.73340566 0.31087303 23.60117626 C0.3421535 27.2548243 0.38456156 30.9076286 0.45263672 34.56079102 C0.51795366 38.08811509 0.55373076 41.61462911 0.56926346 45.14251137 C0.58570435 47.13964715 0.63252511 49.13645805 0.67977905 51.13310242 C0.68304019 59.91865213 0.68304019 59.91865213 -1.16075134 62.83763123 C-2.65454102 64.13720703 -2.65454102 64.13720703 -6 66 C-6.98395752 66.61963623 -7.96791504 67.23927246 -8.98168945 67.87768555 C-10.01511475 68.4581665 -11.04854004 69.03864746 -12.11328125 69.63671875 C-12.68079605 69.9581636 -13.24831085 70.27960846 -13.83302307 70.61079407 C-15.65632378 71.64214619 -17.48415241 72.66512595 -19.3125 73.6875 C-21.83340311 75.10564563 -24.35242797 76.52710411 -26.87109375 77.94921875 C-27.79719452 78.47103226 -27.79719452 78.47103226 -28.74200439 79.00338745 C-32.33505737 81.03447562 -35.88896211 83.1164487 -39.41015625 85.26953125 C-40.17996826 85.7385083 -40.94978027 86.20748535 -41.74291992 86.69067383 C-43.11821698 87.53525394 -44.48742219 88.38987471 -45.84887695 89.2565918 C-49.82295224 91.68428067 -52.381876 92.39938587 -57 92 C-59.70629883 90.87353516 -59.70629883 90.87353516 -62.45703125 89.2890625 C-63.47933838 88.70825928 -64.50164551 88.12745605 -65.55493164 87.52905273 C-66.6299292 86.90071533 -67.70492676 86.27237793 -68.8125 85.625 C-69.92165771 84.98957275 -71.03081543 84.35414551 -72.17358398 83.69946289 C-75.45716316 81.81325258 -78.72981206 79.90931179 -82 78 C-83.7135073 77.00645114 -85.4270454 76.0129554 -87.140625 75.01953125 C-93.83099208 71.12138656 -100.44831899 67.12744083 -107 63 C-105.83599063 59.50797189 -105.25731614 59.27269143 -102.18359375 57.51953125 C-101.03793945 56.85727539 -101.03793945 56.85727539 -99.86914062 56.18164062 C-99.06669922 55.72982422 -98.26425781 55.27800781 -97.4375 54.8125 C-96.63119141 54.34908203 -95.82488281 53.88566406 -94.99414062 53.40820312 C-93.00057554 52.26396754 -91.00257569 51.12836769 -89 50 C-84.39629888 54.58013268 -84.39629888 54.58013268 -82.2265625 56.87890625 C-75.73842101 63.69936718 -68.57362952 67.86284751 -58.9140625 68.30078125 C-57.484502 68.3202333 -56.05464858 68.32374948 -54.625 68.3125 C-53.87476563 68.30686035 -53.12453125 68.3012207 -52.3515625 68.29541016 C-41.84038506 68.06502194 -33.40388831 64.43424724 -25.9140625 56.90234375 C-22.59273406 53.20438882 -22.59273406 53.20438882 -20 49 C-20.66 48.7525 -21.32 48.505 -22 48.25 C-25.76360907 46.68182955 -29.3711424 44.85494954 -33 43 C-33.639375 43.886875 -34.27875 44.77375 -34.9375 45.6875 C-39.22856712 50.7056646 -43.82353803 53.61868067 -50.44921875 54.4140625 C-56.99680456 54.56714102 -62.2725016 54.27285623 -68 51 C-68 50.34 -68 49.68 -68 49 C-68.556875 48.814375 -69.11375 48.62875 -69.6875 48.4375 C-73.8825694 45.82975416 -76.45708016 41.62875951 -78 37 C-78.66977097 27.46864388 -78.22485719 20.96473342 -72.3125 13.3125 C-66.96235887 7.5327855 -61.98606992 5.75867478 -54.125 5.375 C-44.29019194 5.65960859 -38.63772553 10.1522937 -32 17 C-29.97782307 15.85648855 -27.95707809 14.71058885 -25.9375 13.5625 C-25.31641357 13.20994141 -24.69532715 12.85738281 -24.05541992 12.49414062 C-20.61819314 10.53221985 -17.21050754 8.53289831 -13.8359375 6.46484375 C-13.16312744 6.05355225 -12.49031738 5.64226074 -11.79711914 5.21850586 C-10.49071646 4.41640772 -9.18770306 3.60875867 -7.88842773 2.79516602 C-3.33003378 0 -3.33003378 0 0 0 Z " fill="#04599C" transform="translate(118,34)"/>
<path d="M0 0 C1.11640869 -0.00954712 1.11640869 -0.00954712 2.25537109 -0.01928711 C13.52739743 0.2399119 22.46131485 5.92231975 30.3046875 13.65625 C31.75 15.5 31.75 15.5 33.75 20.5 C29.79 22.81 25.83 25.12 21.75 27.5 C21.13125 26.79875 20.5125 26.0975 19.875 25.375 C13.88882165 19.55556756 8.17962782 16.12430599 -0.3125 15.8125 C-8.06097242 16.16661952 -13.17700642 18.42700642 -18.625 23.875 C-23.27190652 31.38154131 -24.40651296 37.63340067 -23.25 46.5 C-21.68432556 50.84909566 -19.81848252 54.33210115 -16.078125 57.1171875 C-15.17320313 57.80167969 -15.17320313 57.80167969 -14.25 58.5 C-14.25 59.16 -14.25 59.82 -14.25 60.5 C-13.651875 60.644375 -13.05375 60.78875 -12.4375 60.9375 C-10.68849596 61.3872439 -8.96322977 61.92892341 -7.25 62.5 C2.39483793 63.4908221 9.12245581 62.65682679 16.75 56.5 C18.57006436 54.90280067 20.14417999 53.31992935 21.75 51.5 C25.71 53.81 29.67 56.12 33.75 58.5 C29.89792152 68.1301962 22.10577502 73.45841707 12.75 77.5 C3.59433837 80.05183137 -8.78786894 79.96185092 -17.25 75.5 C-18.20519531 75.02433594 -18.20519531 75.02433594 -19.1796875 74.5390625 C-28.05759543 69.66830367 -34.91236334 61.49619966 -38.4375 52.046875 C-40.55609563 42.79839024 -41.32350085 30.84306969 -36.5078125 22.33984375 C-36.09273437 21.73269531 -35.67765625 21.12554687 -35.25 20.5 C-34.81429687 19.82066406 -34.37859375 19.14132813 -33.9296875 18.44140625 C-25.59382424 6.39312302 -14.6874696 0.10713071 0 0 Z " fill="#FBFCFD" transform="translate(64.25,24.5)"/>
<path d="M0 0 C3.40848446 2.36015124 6.10045565 4.79729509 8.375 8.3125 C5.29813263 11.69024358 2.11690019 13.79745282 -1.859375 16.02734375 C-2.45623108 16.36496231 -3.05308716 16.70258087 -3.66802979 17.0504303 C-5.5669324 18.12316626 -7.47065612 19.18695873 -9.375 20.25 C-11.25972774 21.30864838 -13.14336739 22.36918115 -15.02600098 23.43154907 C-16.23926431 24.11534765 -17.45401031 24.79652279 -18.67028809 25.47494507 C-21.97611473 27.32961461 -25.13788227 29.30285926 -28.265625 31.44140625 C-29.92851563 32.36759766 -29.92851563 32.36759766 -31.625 33.3125 C-33.77246094 32.61694336 -33.77246094 32.61694336 -35.625 31.3125 C-37.60880586 25.36108242 -37.79834725 17.35912408 -35.5 11.4375 C-27.78489481 -1.42100866 -14.41233063 -8.25084608 0 0 Z " fill="#659AD3" transform="translate(76.625,42.6875)"/>
</svg>
