<?xml version="1.0" encoding="UTF-8"?>
<svg version="1.1" xmlns="http://www.w3.org/2000/svg" width="114" height="128">
<path d="M0 0 C4.67105946 2.01529072 8.97134094 4.61501912 13.3125 7.25 C14.54985373 7.98309447 15.78814576 8.71460742 17.02734375 9.44458008 C19.51385243 10.91351588 21.99318957 12.3935584 24.46728516 13.88330078 C27.67081705 15.8095514 30.89916884 17.68997313 34.13671875 19.55859375 C35.92501207 20.60064851 37.71280908 21.64355569 39.5 22.6875 C40.31122314 23.15510742 41.12244629 23.62271484 41.95825195 24.10449219 C42.70421631 24.54825195 43.45018066 24.99201172 44.21875 25.44921875 C45.1768457 26.01129028 45.1768457 26.01129028 46.15429688 26.5847168 C49.54009265 29.18094141 51.76558021 31.65173412 52.50793457 35.92138672 C52.51111694 36.99662598 52.51429932 38.07186523 52.51757812 39.1796875 C52.53018677 40.40445801 52.54279541 41.62922852 52.55578613 42.89111328 C52.54768921 44.2057959 52.53959229 45.52047852 52.53125 46.875 C52.53394691 48.24593379 52.53783099 49.6168657 52.54284668 50.98779297 C52.54873254 53.85598019 52.54020921 56.72366789 52.52148438 59.59179688 C52.4986942 63.26060752 52.51182235 66.92824764 52.53577423 70.59701538 C52.55025761 73.42643995 52.54561485 76.25558891 52.53526306 79.08502197 C52.53131298 81.09298466 52.54341962 83.10095823 52.55578613 85.10888672 C52.54317749 86.33365723 52.53056885 87.55842773 52.51757812 88.8203125 C52.51439575 89.89555176 52.51121338 90.97079102 52.50793457 92.07861328 C51.87636417 95.71109174 50.52227565 97.35885771 48 100 C45.52416992 101.73828125 45.52416992 101.73828125 42.73046875 103.3125 C41.68745605 103.90732178 40.64444336 104.50214355 39.56982422 105.11499023 C37.89557373 106.04807007 37.89557373 106.04807007 36.1875 107 C34.43539205 107.98827729 32.68328795 108.97656158 30.93151855 109.96543884 C29.73583978 110.63937115 28.53929847 111.31177535 27.34191895 111.98268127 C23.34467407 114.22505055 19.38951412 116.52946334 15.44921875 118.87109375 C13.91261597 119.77311523 13.91261597 119.77311523 12.3449707 120.69335938 C10.41041638 121.8294429 8.48273449 122.97733729 6.56323242 124.13867188 C-1.84229892 129.01180081 -1.84229892 129.01180081 -6.80126953 128.60717773 C-12.15593909 127.12848984 -16.86635149 124.10080495 -21.625 121.3125 C-22.81447722 120.62978655 -24.0046727 119.94832309 -25.19555664 119.26806641 C-27.62144043 117.87778163 -30.0405144 116.47660305 -32.45458984 115.06591797 C-35.79560757 113.11422984 -39.15605988 111.19792086 -42.51953125 109.28515625 C-44.49312327 108.15006298 -46.46582913 107.01342707 -48.4375 105.875 C-49.34773926 105.35591064 -50.25797852 104.83682129 -51.19580078 104.30200195 C-52.4581958 103.5608313 -52.4581958 103.5608313 -53.74609375 102.8046875 C-54.47497803 102.38171387 -55.2038623 101.95874023 -55.95483398 101.52294922 C-59.44507345 98.9239145 -61.74470972 96.44576691 -62.5146637 92.08534241 C-62.52086227 91.01311935 -62.52706085 89.9408963 -62.53344727 88.83618164 C-62.55720177 87.00386742 -62.55720177 87.00386742 -62.58143616 85.13453674 C-62.57399635 83.1672184 -62.57399635 83.1672184 -62.56640625 81.16015625 C-62.57164554 79.7916166 -62.57792314 78.42308056 -62.58518982 77.05455017 C-62.59558067 74.19057182 -62.59105279 71.32709071 -62.57641602 68.46313477 C-62.5592371 64.80321296 -62.58271598 61.14486248 -62.61790562 57.485116 C-62.63992876 54.65992443 -62.63842644 51.83510595 -62.6301403 49.00985527 C-62.62892766 47.00799839 -62.64881594 45.00616444 -62.66908264 43.00440979 C-62.5654994 32.88259122 -62.5654994 32.88259122 -59.81860352 29.34423828 C-57.04970217 27.0413374 -54.44674184 25.21894043 -51.2734375 23.51953125 C-50.16734131 22.9177002 -49.06124512 22.31586914 -47.92163086 21.69580078 C-46.73946489 21.0679504 -45.55725374 20.44018508 -44.375 19.8125 C-42.55401899 18.82769597 -40.73550738 17.83843152 -38.91703796 16.84899902 C-37.69982149 16.18714195 -36.48181353 15.52673843 -35.26301575 14.86779785 C-29.76046714 11.88933317 -24.3388096 8.78241841 -18.9375 5.625 C-7.16329183 -1.25196043 -7.16329183 -1.25196043 0 0 Z " fill="#649AD1" transform="translate(62,0)"/>
<path d="M0 0 C0.0927806 7.99738263 0.16380514 15.99453948 0.20724869 23.99232769 C0.22810212 27.70626049 0.25637755 31.41982441 0.30175781 35.13354492 C0.34529746 38.71917648 0.369154 42.3044538 0.37950897 45.89032936 C0.38688594 47.25667712 0.40129181 48.62300602 0.42292023 49.9892025 C0.45205572 51.90626405 0.45363476 53.82368391 0.45410156 55.7409668 C0.46298401 56.83128708 0.47186646 57.92160736 0.48101807 59.04496765 C-0.11664914 62.7166092 -1.45067374 64.34145845 -4 67 C-6.47583008 68.73828125 -6.47583008 68.73828125 -9.26953125 70.3125 C-10.31254395 70.90732178 -11.35555664 71.50214355 -12.43017578 72.11499023 C-14.10442627 73.04807007 -14.10442627 73.04807007 -15.8125 74 C-17.56460795 74.98827729 -19.31671205 75.97656158 -21.06848145 76.96543884 C-22.26416022 77.63937115 -23.46070153 78.31177535 -24.65808105 78.98268127 C-28.65532593 81.22505055 -32.61048588 83.52946334 -36.55078125 85.87109375 C-38.08738403 86.77311523 -38.08738403 86.77311523 -39.6550293 87.69335938 C-41.58958362 88.8294429 -43.51726551 89.97733729 -45.43676758 91.13867188 C-53.84229892 96.01180081 -53.84229892 96.01180081 -58.80126953 95.60717773 C-64.15604034 94.12846188 -68.86606961 91.10049191 -73.625 88.3125 C-74.81371061 87.63118984 -76.0031741 86.95119171 -77.19335938 86.27246094 C-80.21957549 84.54041688 -83.23276221 82.78699786 -86.24230957 81.02618408 C-89.0071005 79.41202929 -91.78194244 77.8152854 -94.5546875 76.21484375 C-96.53753959 75.06175316 -98.51936753 73.90689901 -100.5 72.75 C-101.41861816 72.21415283 -102.33723633 71.67830566 -103.28369141 71.1262207 C-104.12851074 70.62566162 -104.97333008 70.12510254 -105.84375 69.609375 C-106.57787109 69.17592773 -107.31199219 68.74248047 -108.06835938 68.29589844 C-109.98631468 67.00918121 -111.50621609 65.76078308 -113 64 C-113 63.34 -113 62.68 -113 62 C-112.41734375 61.72027344 -111.8346875 61.44054687 -111.234375 61.15234375 C-104.29102152 57.75708757 -97.63694695 53.95708006 -91 50 C-90.34 50.680625 -89.68 51.36125 -89 52.0625 C-88.003427 53.04515438 -87.00300159 54.02390821 -86 55 C-85.43023437 55.56589844 -84.86046875 56.13179687 -84.2734375 56.71484375 C-75.67075969 64.80419305 -65.90983137 68.40526275 -54.2265625 68.27734375 C-44.29656516 67.42379676 -34.54156239 62.267506 -27.9375 54.8125 C-25.71634738 52.1574577 -25.71634738 52.1574577 -26 49 C-30.62 46.36 -35.24 43.72 -40 41 C-41.0725 41.94875 -42.145 42.8975 -43.25 43.875 C-48.98763728 48.95060221 -53.25149738 49.44426376 -60.86328125 49.31640625 C-66.20997242 48.77707626 -68.68816693 46.38471268 -72.25 42.625 C-75.59505863 37.60741206 -76.62005363 32.99385171 -76 27 C-73.70422662 20.16485652 -69.93462507 16.66539117 -64.0625 12.6875 C-58.62363182 10.87454394 -53.21752681 12.0078534 -48 14 C-45.7161129 15.51420709 -43.9818977 17.06644127 -42 19 C-42 19.66 -42 20.32 -42 21 C-30.58781872 15.53806855 -19.36163368 9.5681815 -8.81933594 2.54785156 C-8.11325195 2.08088867 -7.40716797 1.61392578 -6.6796875 1.1328125 C-6.04530762 0.7011377 -5.41092773 0.26946289 -4.75732422 -0.17529297 C-3 -1 -3 -1 0 0 Z " fill="#04599D" transform="translate(114,33)"/>
<path d="M0 0 C3.4612557 2.8703096 6.30270764 6.20549015 9.08203125 9.7265625 C6.17320392 12.88982626 3.29723426 14.94122863 -0.48046875 16.9765625 C-1.43050781 17.49734375 -2.38054687 18.018125 -3.359375 18.5546875 C-5.91796875 19.7265625 -5.91796875 19.7265625 -8.91796875 19.7265625 C-10.6268088 18.10316445 -12.29243592 16.43337197 -13.91796875 14.7265625 C-18.63245308 11.58357295 -23.30558928 11.15581205 -28.91796875 11.7265625 C-34.58332928 14.3349237 -38.2598542 17.49760258 -41.10546875 23.0390625 C-42.98740923 29.26394257 -41.86086146 34.00822435 -39.1328125 39.70703125 C-37.08320972 43.11424874 -34.41238627 44.97935374 -30.91796875 46.7265625 C-23.1784478 47.38685729 -17.19712309 47.53612753 -10.91796875 42.7265625 C-9.59796875 41.4065625 -8.27796875 40.0865625 -6.91796875 38.7265625 C-1.96796875 41.6965625 2.98203125 44.6665625 8.08203125 47.7265625 C6.72403141 53.15856186 4.30100505 56.08904983 0.08203125 59.7265625 C-10.48810028 65.99657234 -20.4236873 69.9537733 -32.83203125 67.04296875 C-43.3407322 63.47593082 -53.09678515 57.33408607 -58.203125 47.16796875 C-62.81508636 36.04305838 -63.08374139 26.301016 -59.2421875 14.84375 C-55.81879861 6.78515314 -50.12136732 1.46765286 -42.91796875 -3.2734375 C-42.07234375 -3.8509375 -41.22671875 -4.4284375 -40.35546875 -5.0234375 C-26.83795011 -11.95549834 -11.94653068 -8.3948594 0 0 Z " fill="#FBFCFD" transform="translate(80.91796875,34.2734375)"/>
<path d="M0 0 C0.99 1.0209375 0.99 1.0209375 2 2.0625 C2.996573 3.04515438 3.99699841 4.02390821 5 5 C5.56976562 5.56589844 6.13953125 6.13179688 6.7265625 6.71484375 C15.32924031 14.80419305 25.09016863 18.40526275 36.7734375 18.27734375 C47.1484567 17.38554428 56.80239385 11.94334707 63.5625 4.125 C64.366875 3.09375 65.17125 2.0625 66 1 C71.26484354 1.53809022 75.33923553 4.19153448 79.8125 6.8125 C80.60076172 7.25142578 81.38902344 7.69035156 82.20117188 8.14257812 C82.94560547 8.57634766 83.69003906 9.01011719 84.45703125 9.45703125 C85.13741455 9.84866455 85.81779785 10.24029785 86.51879883 10.64379883 C87.25199341 11.31511841 87.25199341 11.31511841 88 12 C88 13.32 88 14.64 88 16 C85.65722656 17.8527832 85.65722656 17.8527832 82.390625 19.73828125 C81.8067804 20.08055252 81.22293579 20.42282379 80.62139893 20.77546692 C78.75549819 21.86464371 76.8784412 22.93262667 75 24 C73.81504274 24.68676043 72.63078428 25.37472817 71.44726562 26.06396484 C67.89360704 28.12658691 64.32286389 30.15838845 60.75 32.1875 C58.9378716 33.22053944 57.12606835 34.25414713 55.31433105 35.28787231 C53.5882707 36.26942832 51.85766105 37.24297071 50.12695312 38.21630859 C48.2059238 39.31211124 46.29941291 40.43448598 44.41992188 41.60009766 C40.49848082 43.98841319 37.0137707 45.93191226 32.24707031 45.58740234 C26.86058861 44.17933249 22.14085589 41.10454917 17.375 38.3125 C16.18628939 37.63118984 14.9968259 36.95119171 13.80664062 36.27246094 C10.78042451 34.54041688 7.76723779 32.78699786 4.75769043 31.02618408 C1.9928995 29.41202929 -0.78194244 27.8152854 -3.5546875 26.21484375 C-5.53753959 25.06175316 -7.51936753 23.90689901 -9.5 22.75 C-10.41861816 22.21415283 -11.33723633 21.67830566 -12.28369141 21.1262207 C-13.12851074 20.62566162 -13.97333008 20.12510254 -14.84375 19.609375 C-15.57787109 19.17592773 -16.31199219 18.74248047 -17.06835938 18.29589844 C-18.98631468 17.00918121 -20.50621609 15.76078308 -22 14 C-22 13.34 -22 12.68 -22 12 C-21.41734375 11.72027344 -20.8346875 11.44054687 -20.234375 11.15234375 C-13.29102152 7.75708757 -6.63694695 3.95708006 0 0 Z " fill="#024583" transform="translate(23,83)"/>
<path d="M0 0 C2.2838871 1.51420709 4.0181023 3.06644127 6 5 C6 5.66 6 6.32 6 7 C6.66 7.33 7.32 7.66 8 8 C7.30962646 8.37286133 6.61925293 8.74572266 5.90795898 9.12988281 C2.75067112 10.83572359 -0.40591933 12.54285099 -3.5625 14.25 C-4.64853516 14.83652344 -5.73457031 15.42304687 -6.85351562 16.02734375 C-9.90575329 17.67870638 -12.95297708 19.33904274 -16 21 C-16.74878418 21.39896484 -17.49756836 21.79792969 -18.26904297 22.20898438 C-21.40986818 23.91905255 -22.97179101 24.95768651 -25 28 C-27.44020479 22.20451362 -29.43946857 17.24521239 -27.30859375 10.9609375 C-24.71360363 5.1629261 -21.28069082 2.22240346 -16.0625 -1.3125 C-10.62363182 -3.12545606 -5.21752681 -1.9921466 0 0 Z " fill="#659AD1" transform="translate(66,47)"/>
<path d="M0 0 C1.99310763 1.15006994 3.95317423 2.35940742 5.875 3.625 C6.84179688 4.25664063 7.80859375 4.88828125 8.8046875 5.5390625 C9.52914062 6.02117187 10.25359375 6.50328125 11 7 C8.44541122 11.55744684 6.06759548 14.3856212 1 16 C-4.6246929 16.69345529 -10.74988885 17.35998661 -15.6875 14.125 C-17.15222392 12.77903748 -18.59340282 11.40659718 -20 10 C-20.01171875 7.62109375 -20.01171875 7.62109375 -19 5 C-16.26953125 2.91015625 -16.26953125 2.91015625 -12.8125 1.0625 C-11.68457031 0.43472656 -10.55664062 -0.19304687 -9.39453125 -0.83984375 C-5.25670814 -2.25403646 -3.88750592 -1.87405664 0 0 Z " fill="#1C4876" transform="translate(62,66)"/>
<path d="M0 0 C1.65 0 3.3 0 5 0 C5 1.65 5 3.3 5 5 C6.32 5 7.64 5 9 5 C9 6.32 9 7.64 9 9 C7.68 9 6.36 9 5 9 C5 10.32 5 11.64 5 13 C3.35 13 1.7 13 0 13 C0 11.68 0 10.36 0 9 C-1.32 9 -2.64 9 -4 9 C-3.67 7.35 -3.34 5.7 -3 4 C-2.01 4 -1.02 4 0 4 C0 2.68 0 1.36 0 0 Z " fill="#E3ECF4" transform="translate(86,57)"/>
<path d="M0 0 C1.65 0 3.3 0 5 0 C5 1.65 5 3.3 5 5 C6.32 5 7.64 5 9 5 C9 6.32 9 7.64 9 9 C7.35 9 5.7 9 4 9 C4 10.32 4 11.64 4 13 C2.68 13 1.36 13 0 13 C0 11.68 0 10.36 0 9 C-1.32 9 -2.64 9 -4 9 C-4 7.68 -4 6.36 -4 5 C-2.68 5 -1.36 5 0 5 C0 3.35 0 1.7 0 0 Z " fill="#EFF4F9" transform="translate(102,57)"/>
</svg>
