<?xml version="1.0" encoding="UTF-8"?>
<!DOCTYPE svg PUBLIC "-//W3C//DTD SVG 1.1//EN" "http://www.w3.org/Graphics/SVG/1.1/DTD/svg11.dtd">
<svg xmlns="http://www.w3.org/2000/svg" version="1.1" width="128px" height="128px" style="shape-rendering:geometricPrecision; text-rendering:geometricPrecision; image-rendering:optimizeQuality; fill-rule:evenodd; clip-rule:evenodd" xmlns:xlink="http://www.w3.org/1999/xlink">
<g><path style="opacity:0.997" fill="#0577bd" d="M 21.5,-0.5 C 49.5,-0.5 77.5,-0.5 105.5,-0.5C 110.065,1.4539 114.398,3.9539 118.5,7C 122.415,11.3435 125.415,16.1768 127.5,21.5C 127.5,49.5 127.5,77.5 127.5,105.5C 125.546,110.065 123.046,114.398 120,118.5C 115.657,122.415 110.823,125.415 105.5,127.5C 77.5,127.5 49.5,127.5 21.5,127.5C 16.935,125.546 12.6017,123.046 8.5,120C 4.58492,115.657 1.58492,110.823 -0.5,105.5C -0.5,77.5 -0.5,49.5 -0.5,21.5C 1.4539,16.935 3.9539,12.6017 7,8.5C 11.3435,4.58492 16.1768,1.58492 21.5,-0.5 Z"/></g>
<g><path style="opacity:1" fill="#eaeaea" d="M 63.5,18.5 C 63.5,23.8333 63.5,29.1667 63.5,34.5C 50.5,34.5 37.5,34.5 24.5,34.5C 24.6757,29.1203 24.3424,23.787 23.5,18.5C 36.8333,18.5 50.1667,18.5 63.5,18.5 Z"/></g>
<g><path style="opacity:1" fill="#fdfefe" d="M 63.5,18.5 C 76.8333,18.5 90.1667,18.5 103.5,18.5C 100.954,45.5083 98.2871,72.5083 95.5,99.5C 84.9096,102.814 74.2429,105.814 63.5,108.5C 63.5,103.167 63.5,97.8333 63.5,92.5C 69.4906,90.8345 75.4906,89.1678 81.5,87.5C 81.6349,81.819 81.9682,76.1523 82.5,70.5C 83.4345,69.4324 83.7678,68.099 83.5,66.5C 76.8333,66.5 70.1667,66.5 63.5,66.5C 63.5,61.5 63.5,56.5 63.5,51.5C 70.6866,51.8245 77.6866,51.4912 84.5,50.5C 84.9801,45.1779 85.3135,39.8446 85.5,34.5C 78.1667,34.5 70.8333,34.5 63.5,34.5C 63.5,29.1667 63.5,23.8333 63.5,18.5 Z"/></g>
<g><path style="opacity:1" fill="#e3e7e9" d="M 84.5,50.5 C 77.6866,51.4912 70.6866,51.8245 63.5,51.5C 63.5,56.5 63.5,61.5 63.5,66.5C 51.5,66.5 39.5,66.5 27.5,66.5C 27.5276,61.1383 27.1942,55.8049 26.5,50.5C 45.8333,50.5 65.1667,50.5 84.5,50.5 Z"/></g>
<g><path style="opacity:1" fill="#4196cb" d="M 27.5,66.5 C 39.5,66.5 51.5,66.5 63.5,66.5C 70.1667,66.5 76.8333,66.5 83.5,66.5C 83.7678,68.099 83.4345,69.4324 82.5,70.5C 82.5,69.5 82.5,68.5 82.5,67.5C 63.9924,67.8302 45.6591,67.4968 27.5,66.5 Z"/></g>
<g><path style="opacity:1" fill="#a5c8dc" d="M 44.5,75.5 C 39.5,75.5 34.5,75.5 29.5,75.5C 29.5,77.8333 29.5,80.1667 29.5,82.5C 28.5269,80.0521 28.1936,77.3854 28.5,74.5C 34.0262,74.1786 39.3595,74.5119 44.5,75.5 Z"/></g>
<g><path style="opacity:1" fill="#e8e9ea" d="M 44.5,75.5 C 45.0347,79.4994 45.7014,83.4994 46.5,87.5C 52.2009,89.0609 57.8676,90.7276 63.5,92.5C 63.5,97.8333 63.5,103.167 63.5,108.5C 52.7163,106.185 42.0496,103.351 31.5,100C 30.4086,94.2589 29.7419,88.4256 29.5,82.5C 29.5,80.1667 29.5,77.8333 29.5,75.5C 34.5,75.5 39.5,75.5 44.5,75.5 Z"/></g>
</svg>
