<?xml version="1.0" encoding="UTF-8"?>
<svg version="1.1" xmlns="http://www.w3.org/2000/svg" width="177" height="128">
<path d="M0 0 C5.94917913 1.6225034 10.09589519 6.0102214 13.3359375 11.09765625 C15.2827141 14.79100901 16 16.69526313 16 21 C16.99 20.67 17.98 20.34 19 20 C26.94493844 19.94565706 33.19137052 20.8614213 40 25 C39.18235803 31.94995677 35.02443571 36.49155958 29.78125 40.74609375 C26.69470398 42.9188597 23.72100441 44.18943892 19.90625 43.76953125 C17.05569757 43.58893118 15.57097508 43.69250069 13 45 C11.07903607 48.05296053 9.61999889 51.07876222 8.15405273 54.36230469 C-0.81143426 74.22928195 -18.83682172 89.17459386 -38.94287109 96.97998047 C-51.68606558 101.56701832 -64.48856175 103.34270412 -78 103.4375 C-79.01368652 103.44765137 -80.02737305 103.45780273 -81.07177734 103.46826172 C-91.14108867 103.35153991 -100.41775433 101.23933868 -109.375 96.625 C-111.05722656 95.77808594 -111.05722656 95.77808594 -112.7734375 94.9140625 C-125.43043243 87.40567568 -131.95357891 75.19867348 -136.05517578 61.4675293 C-137.28736444 56.47398846 -137.22166298 51.61570246 -137.125 46.5 C-137.11597656 45.5821875 -137.10695312 44.664375 -137.09765625 43.71875 C-137.07432432 41.47888444 -137.04159235 39.23958817 -137 37 C-136.36315781 36.99576806 -135.72631561 36.99153612 -135.07017517 36.98717594 C-119.55359836 36.88374045 -104.03706815 36.7750838 -88.52056885 36.66066074 C-81.01682037 36.60545107 -73.51306714 36.55198968 -66.00927734 36.50268555 C-59.46676572 36.45969307 -52.92428736 36.413378 -46.38182735 36.36312145 C-42.91967273 36.33664132 -39.45752419 36.31179223 -35.99533081 36.29092598 C-32.12444666 36.2675342 -28.25364036 36.23672242 -24.3828125 36.20532227 C-22.67269234 36.19668907 -22.67269234 36.19668907 -20.92802429 36.18788147 C-15.19646662 36.13508984 -9.66934741 35.85612445 -4 35 C-4.2165625 34.35933594 -4.433125 33.71867187 -4.65625 33.05859375 C-7.88941167 23.01483691 -7.55164959 14.37062764 -2.91015625 4.73828125 C-1.99230487 3.12795836 -1.00406223 1.5580276 0 0 Z " fill="#2296EC" transform="translate(137,25)"/>
<path d="M0 0 C1.18613892 0.00785522 1.18613892 0.00785522 2.39624023 0.01586914 C3.67724609 0.02070312 3.67724609 0.02070312 4.98413086 0.02563477 C5.88196289 0.03401367 6.77979492 0.04239258 7.70483398 0.05102539 C8.6065332 0.05553711 9.50823242 0.06004883 10.43725586 0.06469727 C12.67230988 0.07652295 14.90733 0.09445901 17.14233398 0.11352539 C17.14233398 6.05352539 17.14233398 11.99352539 17.14233398 18.11352539 C10.54233398 18.11352539 3.94233398 18.11352539 -2.85766602 18.11352539 C-2.87829102 15.32915039 -2.89891602 12.54477539 -2.92016602 9.67602539 C-2.92927002 8.79760986 -2.93837402 7.91919434 -2.94775391 7.01416016 C-2.95489692 5.04706565 -2.90798495 3.07998918 -2.85766602 1.11352539 C-1.85766602 0.11352539 -1.85766602 0.11352539 0 0 Z " fill="#2296EC" transform="translate(58.857666015625,40.886474609375)"/>
<path d="M0 0 C1.18613892 0.00785522 1.18613892 0.00785522 2.39624023 0.01586914 C3.67724609 0.02070313 3.67724609 0.02070313 4.98413086 0.02563477 C5.88196289 0.03401367 6.77979492 0.04239258 7.70483398 0.05102539 C8.6065332 0.05553711 9.50823242 0.06004883 10.43725586 0.06469727 C12.67230988 0.07652295 14.90733 0.09445901 17.14233398 0.11352539 C17.14233398 6.05352539 17.14233398 11.99352539 17.14233398 18.11352539 C10.54233398 18.11352539 3.94233398 18.11352539 -2.85766602 18.11352539 C-2.87829102 15.32915039 -2.89891602 12.54477539 -2.92016602 9.67602539 C-2.92927002 8.79760986 -2.93837402 7.91919434 -2.94775391 7.01416016 C-2.95489692 5.04706565 -2.90798495 3.07998918 -2.85766602 1.11352539 C-1.85766602 0.11352539 -1.85766602 0.11352539 0 0 Z " fill="#2296EC" transform="translate(58.857666015625,19.886474609375)"/>
<path d="M0 0 C6.27 0 12.54 0 19 0 C19 5.94 19 11.88 19 18 C12.73 18 6.46 18 0 18 C0 12.06 0 6.12 0 0 Z " fill="#2395EC" transform="translate(100,41)"/>
<path d="M0 0 C6.27 0 12.54 0 19 0 C19 5.94 19 11.88 19 18 C12.73 18 6.46 18 0 18 C0 12.06 0 6.12 0 0 Z " fill="#2395EC" transform="translate(78,41)"/>
<path d="M0 0 C6.27 0 12.54 0 19 0 C19 5.94 19 11.88 19 18 C12.73 18 6.46 18 0 18 C0 12.06 0 6.12 0 0 Z " fill="#2396EC" transform="translate(35,41)"/>
<path d="M0 0 C6.27 0 12.54 0 19 0 C19 5.94 19 11.88 19 18 C12.73 18 6.46 18 0 18 C0 12.06 0 6.12 0 0 Z " fill="#2396EC" transform="translate(13,41)"/>
<path d="M0 0 C6.27 0 12.54 0 19 0 C19 5.94 19 11.88 19 18 C12.73 18 6.46 18 0 18 C0 12.06 0 6.12 0 0 Z " fill="#2396EC" transform="translate(78,20)"/>
<path d="M0 0 C6.27 0 12.54 0 19 0 C19 5.94 19 11.88 19 18 C12.73 18 6.46 18 0 18 C0 12.06 0 6.12 0 0 Z " fill="#2396EC" transform="translate(35,20)"/>
<path d="M0 0 C6.27 0 12.54 0 19 0 C19 5.94 19 11.88 19 18 C12.73 18 6.46 18 0 18 C0 12.06 0 6.12 0 0 Z " fill="#2396EC" transform="translate(78,0)"/>
</svg>
