<?xml version="1.0" encoding="UTF-8"?>
<svg version="1.1" xmlns="http://www.w3.org/2000/svg" width="128" height="128">
<path d="M0 0 C2.1464209 1.77262842 4.04824571 3.50039371 5.98950195 5.47192383 C6.55447891 6.02989151 7.11945587 6.58785919 7.70155334 7.16273499 C9.55728629 9.00093185 11.39808375 10.8532918 13.23828125 12.70703125 C14.52710038 13.99315461 15.8165127 15.27868379 17.10649109 16.56364441 C19.80354114 19.25480564 22.49324453 21.95304779 25.17797852 24.65649414 C28.6189585 28.12028568 32.07761557 31.56577896 35.54195881 35.00618458 C38.2060414 37.65581245 40.8605225 40.31489452 43.51219749 42.97693443 C44.78391151 44.25131542 46.05859989 45.52273545 47.33629799 46.79111671 C49.11988408 48.56454067 50.89013888 50.35028931 52.6574707 52.13989258 C53.18679199 52.66111694 53.71611328 53.18234131 54.26147461 53.71936035 C57.13974927 56.6651683 59.035947 58.78748768 59 63 C57.21396106 67.75342794 54.36855046 71.06862547 50.81347656 74.59057617 C50.29758972 75.11332626 49.78170288 75.63607635 49.25018311 76.17466736 C47.55456722 77.88847979 45.84820676 79.59108437 44.140625 81.29296875 C42.95062316 82.48753568 41.76099271 83.68247269 40.57171631 84.87776184 C38.08178569 87.37660948 35.58628005 89.86972188 33.08691406 92.35913086 C29.89299404 95.54156123 26.7152054 98.73956917 23.54166031 101.94230175 C21.08994238 104.41241126 18.62893067 106.873095 16.1651535 109.33117104 C14.98997153 110.50620017 13.81786807 111.68431696 12.64899445 112.86562157 C11.01015596 114.51942428 9.35895651 116.15985177 7.70410156 117.79760742 C7.22904175 118.28233521 6.75398193 118.76706299 6.26452637 119.26647949 C2.82800713 122.6294752 -0.3523543 124.71855256 -5 126 C-10.39860271 124.51736226 -13.95935723 121.62240578 -17.81176758 117.70581055 C-18.34602356 117.17856384 -18.88027954 116.65131714 -19.4307251 116.10809326 C-21.17879923 114.37750097 -22.91197536 112.6328363 -24.64453125 110.88671875 C-25.86226558 109.67168173 -27.08059294 108.45723879 -28.29948425 107.24336243 C-30.84512577 104.70360235 -33.38343182 102.15678879 -35.91674805 99.60473633 C-39.15918925 96.33948255 -42.41929221 93.09254963 -45.68509388 89.85068035 C-48.20167797 87.34856983 -50.70863327 84.8369861 -53.21280479 82.32245827 C-54.41112671 81.12147467 -55.61240882 79.92343699 -56.81672096 78.72846031 C-58.49943596 77.05593885 -60.16874018 75.37106599 -61.83520508 73.68237305 C-62.57935921 72.9503643 -62.57935921 72.9503643 -63.33854675 72.2035675 C-66.42683352 69.03879236 -68.05327594 66.32799387 -69 62 C-67.24714962 55.14703403 -62.56696234 51.04750952 -57.61328125 46.22265625 C-56.79627243 45.41130722 -55.97926361 44.59995819 -55.13749695 43.76402283 C-52.53843984 41.18726816 -49.92579126 38.62480959 -47.3125 36.0625 C-45.54270304 34.31277574 -43.77381227 32.56213439 -42.00585938 30.81054688 C-37.68101272 26.52968636 -33.34493633 22.26046356 -29 18 C-24.92024537 19.88977313 -21.94717051 22.57828992 -18.75 25.6875 C-17.91855469 26.44450195 -17.91855469 26.44450195 -17.0703125 27.21679688 C-14.02310854 30.18519384 -13.05954715 31.35039468 -12.65625 35.75 C-12.7696875 36.8225 -12.883125 37.895 -13 39 C-12.87436418 41.26424351 -12.87436418 41.26424351 -12 43 C-10.68835634 43.7083877 -9.35532489 44.3792612 -8 45 C-7.90115355 50.07196349 -7.82854347 55.143367 -7.78027344 60.21606445 C-7.76015261 61.94174973 -7.73285252 63.66736678 -7.69824219 65.39282227 C-7.64974242 67.8727297 -7.62703696 70.35173628 -7.609375 72.83203125 C-7.58872986 73.60400345 -7.56808472 74.37597565 -7.54681396 75.17134094 C-7.54589844 77.35473633 -7.54589844 77.35473633 -8 81 C-9.96582031 82.79956055 -9.96582031 82.79956055 -12 84 C-13.10373378 87.97344161 -13.41543583 90.08999772 -11.6875 93.875 C-10.17274837 96.0895931 -10.17274837 96.0895931 -8 97 C-2.96669532 97.49872458 -2.96669532 97.49872458 1.375 95.25 C3.44969882 92.38537572 3.44969882 92.38537572 4 89 C3.35381656 85.32103329 3.35381656 85.32103329 2 82 C0.515 81.505 0.515 81.505 -1 81 C-1 69.45 -1 57.9 -1 46 C4.7729705 48.88648525 9.02436116 52.92563916 13 58 C14.01816582 61.11159087 14.05958976 63.76228993 14 67 C14.33 67.99 14.66 68.98 15 70 C16.41433206 70.2236337 17.83167618 70.42826476 19.25 70.625 C20.43335937 70.79902344 20.43335937 70.79902344 21.640625 70.9765625 C24.35932494 71.00356945 25.72227522 70.44538334 28 69 C29.88886253 66.48151662 30.00715839 65.17180132 29.875 62 C28.84188272 58.45788361 28.0040286 57.13444138 25 55 C23.94683594 54.93425781 22.89367187 54.86851563 21.80859375 54.80078125 C16.63476067 53.71294968 14.28908552 51.21377239 10.6875 47.5 C10.06810547 46.9121875 9.44871094 46.324375 8.81054688 45.71875 C4.82347139 41.70137101 3.17335079 38.53519935 2.42822266 32.90649414 C2.12986382 30.71288248 2.12986382 30.71288248 -0.3125 28.9375 C-2.88389814 27.8001657 -2.88389814 27.8001657 -5.20703125 28.36328125 C-9.80878733 27.76473116 -12.24036649 24.48078791 -15.375 21.25 C-16.02855469 20.61578125 -16.68210938 19.9815625 -17.35546875 19.328125 C-17.96777344 18.709375 -18.58007812 18.090625 -19.2109375 17.453125 C-19.77087402 16.88754883 -20.33081055 16.32197266 -20.90771484 15.73925781 C-22 14 -22 14 -21.80615234 11.94091797 C-20.57021178 8.96522825 -18.5252434 7.13004893 -16.25 4.875 C-15.38890625 4.00617187 -14.5278125 3.13734375 -13.640625 2.2421875 C-8.65511761 -1.99106877 -6.04289951 -2.58927327 0 0 Z " fill="#F24F28" transform="translate(69,2)"/>
</svg>
