<?xml version="1.0" encoding="UTF-8"?>
<!DOCTYPE svg PUBLIC "-//W3C//DTD SVG 1.1//EN" "http://www.w3.org/Graphics/SVG/1.1/DTD/svg11.dtd">
<svg xmlns="http://www.w3.org/2000/svg" version="1.1" width="128px" height="128px" style="shape-rendering:geometricPrecision; text-rendering:geometricPrecision; image-rendering:optimizeQuality; fill-rule:evenodd; clip-rule:evenodd" xmlns:xlink="http://www.w3.org/1999/xlink">
<g><path style="opacity:0.971" fill="#db2626" d="M 52.5,-0.5 C 59.5,-0.5 66.5,-0.5 73.5,-0.5C 102.716,5.71597 120.716,23.3826 127.5,52.5C 127.5,59.8333 127.5,67.1667 127.5,74.5C 120.384,103.283 102.384,120.949 73.5,127.5C 66.5,127.5 59.5,127.5 52.5,127.5C 23.8333,120.833 6.16667,103.167 -0.5,74.5C -0.5,67.5 -0.5,60.5 -0.5,53.5C 5.71988,24.28 23.3866,6.28 52.5,-0.5 Z M 46.5,28.5 C 63.7437,28.1747 80.9104,28.5081 98,29.5C 98.7927,33.423 98.626,37.2564 97.5,41C 81.8333,41.3333 66.1667,41.6667 50.5,42C 45.703,42.7969 42.8697,45.6302 42,50.5C 41.3333,61.5 41.3333,72.5 42,83.5C 42.5,84 43,84.5 43.5,85C 54.5,85.6667 65.5,85.6667 76.5,85C 82.16,83.8364 85.16,80.3364 85.5,74.5C 85.4712,72.9707 84.8045,71.804 83.5,71C 75.1667,70.6667 66.8333,70.3333 58.5,70C 56.9546,68.1781 56.288,66.0114 56.5,63.5C 56.288,60.9886 56.9546,58.8219 58.5,57C 71.1667,56.3333 83.8333,56.3333 96.5,57C 97,57.5 97.5,58 98,58.5C 98.6667,66.5 98.6667,74.5 98,82.5C 95.5,90.3333 90.3333,95.5 82.5,98C 64.593,98.825 46.7597,98.6584 29,97.5C 28.3333,80.5 28.3333,63.5 29,46.5C 31.7187,37.2834 37.552,31.2834 46.5,28.5 Z"/></g>
</svg>
