<?xml version="1.0" encoding="UTF-8"?>
<svg version="1.1" xmlns="http://www.w3.org/2000/svg" width="139" height="128">
<path d="M0 0 C1.67542976 0.28604898 3.34385343 0.61781233 5 1 C7.14034494 7.51314077 9.27612493 14.02776528 11.40869141 20.54345703 C12.13517128 22.76125219 12.86270742 24.97870162 13.59130859 27.19580078 C14.63655014 30.37703255 15.67802473 33.55947584 16.71875 36.7421875 C17.04685669 37.73805878 17.37496338 38.73393005 17.7130127 39.75997925 C18.01332397 40.68078278 18.31363525 41.6015863 18.62304688 42.55029297 C18.88952026 43.3630368 19.15599365 44.17578064 19.43054199 45.01315308 C20 47 20 47 20 49 C36.83 49 53.66 49 71 49 C71.99 45.37 72.98 41.74 74 38 C74.95169964 34.93448635 75.91722984 31.88104828 76.91796875 28.83203125 C77.18007645 28.02634201 77.44218414 27.22065277 77.7122345 26.39054871 C78.5348747 23.86372654 79.36111195 21.3380986 80.1875 18.8125 C80.75219371 17.08015653 81.31664873 15.34773524 81.88085938 13.61523438 C83.25115682 9.4092542 84.6246773 5.2043395 86 1 C88.475 0.505 88.475 0.505 91 0 C94.30241771 7.90154223 97.08067479 15.94553976 99.765625 24.07421875 C99.98260796 24.72929728 100.19959091 25.3843758 100.42314911 26.05930519 C101.56786593 29.51567233 102.70887838 32.97323521 103.84667969 36.43188477 C105.01648243 39.98540567 106.19891661 43.53458963 107.38422012 47.0829649 C108.30055734 49.8337213 109.2075744 52.58748631 110.11211395 55.34214211 C110.54402605 56.65211671 110.97937735 57.96096291 111.41834259 59.26859093 C112.03124693 61.09726048 112.62967013 62.93076399 113.22753906 64.7644043 C113.57077209 65.80235641 113.91400513 66.84030853 114.26763916 67.90971375 C115.09373728 71.39553592 115.22960255 74.42941751 115 78 C113.4453125 79.9765625 113.4453125 79.9765625 111.125 81.625 C110.20976562 82.29402344 109.29453125 82.96304688 108.3515625 83.65234375 C107.8246582 84.02085449 107.29775391 84.38936523 106.75488281 84.76904297 C104.80573909 86.13626371 102.88304575 87.53644307 100.9609375 88.94140625 C97.11446428 91.74578652 93.24921354 94.52307331 89.37890625 97.29443359 C85.57841381 100.01921194 81.78960529 102.76011123 78 105.5 C76.51829817 106.57040803 75.03652701 107.64072008 73.5546875 108.7109375 C72.81444336 109.24557617 72.07419922 109.78021484 71.31152344 110.33105469 C68.87740375 112.08851584 66.44265944 113.84510908 64.0078125 115.6015625 C63.19054687 116.19130859 62.37328125 116.78105469 61.53125 117.38867188 C59.96636346 118.51787978 58.40127044 119.64680161 56.8359375 120.77539062 C55.77632812 121.54012695 55.77632812 121.54012695 54.6953125 122.3203125 C54.07672363 122.76648926 53.45813477 123.21266602 52.82080078 123.67236328 C51.49481996 124.63920207 50.19524172 125.64256405 48.9128418 126.66650391 C47 128 47 128 44.69921875 128.015625 C40.86640369 126.57346593 38.01079978 124.27108253 34.8125 121.75 C33.38007233 120.64822189 31.94643367 119.54801678 30.51171875 118.44921875 C29.76970215 117.87864746 29.02768555 117.30807617 28.26318359 116.72021484 C24.59824403 113.93454449 20.86394484 111.24758259 17.125 108.5625 C16.38016357 108.02625 15.63532715 107.49 14.86791992 106.9375 C12.57945483 105.29049302 10.28978202 103.64517545 8 102 C-20.48118081 81.51881919 -20.48118081 81.51881919 -24 78 C-23.70721598 70.93379549 -21.86346428 64.73643758 -19.61328125 58.0703125 C-19.27378952 57.04050262 -18.93429779 56.01069275 -18.58451843 54.94967651 C-17.50213039 51.67197091 -16.40775326 48.39842639 -15.3125 45.125 C-14.24120411 41.896809 -13.17242042 38.66779453 -12.10397339 35.43865967 C-11.40551042 33.3291643 -10.70559474 31.22014934 -10.00418091 29.1116333 C-7.51706567 21.62203915 -5.11303784 14.10939493 -2.798172 6.56472778 C-1.10568388 1.10568388 -1.10568388 1.10568388 0 0 Z " fill="#FB6C26" transform="translate(24,0)"/>
<path d="M0 0 C1.67542976 0.28604898 3.34385343 0.61781233 5 1 C8.01114146 10.00190485 11.01094594 19.00748536 13.99648285 28.01791477 C15.38325182 32.20203959 16.77384052 36.38481155 18.17333984 40.56469727 C19.52466276 44.60116952 20.86571387 48.64092293 22.19981384 52.68311882 C22.70969388 54.22202836 23.22321704 55.75973594 23.74049377 57.296175 C24.46633695 59.45419386 25.17891787 61.6161861 25.88867188 63.77954102 C26.2972644 65.00753922 26.70585693 66.23553741 27.12683105 67.50074768 C28.04208424 71.16865392 28.27192721 74.23515912 28 78 C26.4453125 79.9765625 26.4453125 79.9765625 24.125 81.625 C23.20976562 82.29402344 22.29453125 82.96304688 21.3515625 83.65234375 C20.8246582 84.02085449 20.29775391 84.38936523 19.75488281 84.76904297 C17.80573909 86.13626371 15.88304575 87.53644307 13.9609375 88.94140625 C10.11446428 91.74578652 6.24921354 94.52307331 2.37890625 97.29443359 C-0.67649704 99.48501727 -3.7242164 101.68611651 -6.77099609 103.88867188 C-8.25257869 104.95969544 -9.73467231 106.03001244 -11.21728516 107.09960938 C-15.14898949 109.93615784 -19.07445668 112.78089518 -22.9921875 115.63671875 C-23.80945313 116.23097656 -24.62671875 116.82523437 -25.46875 117.4375 C-27.0356015 118.57702836 -28.60079487 119.71884129 -30.1640625 120.86328125 C-31.22367188 121.63285156 -31.22367188 121.63285156 -32.3046875 122.41796875 C-32.92327637 122.86938232 -33.54186523 123.3207959 -34.17919922 123.78588867 C-36.05522971 125.03682722 -37.96424639 126.03494153 -40 127 C-39.4176296 120.66540457 -37.94284803 115.03727151 -35.96484375 109.00390625 C-35.65441635 108.03799561 -35.34398895 107.07208496 -35.02415466 106.0769043 C-34.00214984 102.90316854 -32.96993778 99.73285562 -31.9375 96.5625 C-31.21966022 94.34059252 -30.50238367 92.118503 -29.78564453 89.89624023 C-27.53481522 82.92721849 -25.26912759 75.9630822 -23 69 C-22.63042175 67.86546387 -22.26084351 66.73092773 -21.88006592 65.56201172 C-18.72935775 55.8918962 -15.57666611 46.22243254 -12.40600586 36.55883789 C-11.77840306 34.64472024 -11.15087837 32.73057698 -10.5234375 30.81640625 C-10.22500443 29.90673599 -9.92657135 28.99706573 -9.61909485 28.05982971 C-7.29620645 20.95822222 -5.04204728 13.83596898 -2.84555054 6.69422913 C-1.10818609 1.10818609 -1.10818609 1.10818609 0 0 Z " fill="#FB6C26" transform="translate(111,0)"/>
<path d="M0 0 C16.83 0 33.66 0 51 0 C47.62491938 12.37529561 47.62491938 12.37529561 46.07055664 17.10717773 C45.72332047 18.16875595 45.37608429 19.23033417 45.01832581 20.32408142 C44.65262985 21.43272049 44.2869339 22.54135956 43.91015625 23.68359375 C43.52435898 24.86035172 43.13856171 26.03710968 42.74107361 27.24952698 C41.51743905 30.97969636 40.29000426 34.70860249 39.0625 38.4375 C38.24259388 40.93546658 37.42293032 43.4335128 36.60351562 45.93164062 C33.09242488 56.62897796 29.56804104 67.32150473 26 78 C23.81186619 74.71779928 22.73880619 71.49219621 21.56640625 67.7734375 C21.33246155 67.04520782 21.09851685 66.31697815 20.85748291 65.56668091 C20.08843189 63.17073287 19.32555136 60.77286478 18.5625 58.375 C17.48691154 55.01741254 16.40779216 51.66096535 15.328125 48.3046875 C15.053741 47.4505426 14.77935699 46.59639771 14.49665833 45.71636963 C12.63266346 39.92627188 10.73061982 34.14997365 8.796875 28.3828125 C8.54336777 27.62656586 8.28986053 26.87031921 8.02867126 26.09115601 C7.05267686 23.18339113 6.07512273 20.27617606 5.09207153 17.37078857 C4.41965247 15.38341081 3.75066736 13.394903 3.08203125 11.40625 C2.70280518 10.28541016 2.3235791 9.16457031 1.93286133 8.00976562 C1 5 1 5 0 0 Z " fill="#E24328" transform="translate(44,49)"/>
<path d="M0 0 C3.23245404 1.38078636 4.95273712 2.84897356 7.06640625 5.640625 C7.62875977 6.37450439 8.19111328 7.10838379 8.77050781 7.86450195 C9.65754395 9.04532349 9.65754395 9.04532349 10.5625 10.25 C11.81864821 11.89480793 13.07516259 13.53933628 14.33203125 15.18359375 C14.95287598 16.00069824 15.5737207 16.81780273 16.21337891 17.65966797 C18.69086986 20.90498476 21.21716539 24.1103291 23.75 27.3125 C27.19635373 31.68592476 30.61211804 36.08113958 34 40.5 C37.45143295 45.00127511 40.93106117 49.47893246 44.4375 53.9375 C45.11196167 54.79649902 45.11196167 54.79649902 45.80004883 55.67285156 C48.23330461 58.7682266 50.67954916 61.85247107 53.140625 64.92578125 C53.65052979 65.56588135 54.16043457 66.20598145 54.68579102 66.86547852 C55.66925079 68.09963979 56.65658257 69.33072783 57.64819336 70.55834961 C61 74.7749801 61 74.7749801 61 77 C58.35601338 75.73424249 55.95132423 74.36324713 53.55859375 72.671875 C52.9025415 72.20918213 52.24648926 71.74648926 51.57055664 71.26977539 C50.86664795 70.76824951 50.16273926 70.26672363 49.4375 69.75 C48.69298584 69.22204834 47.94847168 68.69409668 47.18139648 68.15014648 C40.79567338 63.60429864 34.4810371 58.96433124 28.18188477 54.29956055 C22.61104411 50.17594288 17.00352733 46.10694023 11.375 42.0625 C-3.9887974 31.0112026 -3.9887974 31.0112026 -7 28 C-6.57791231 21.25329679 -5.07386135 15.32675704 -2.9375 8.9375 C-2.51500977 7.6390918 -2.51500977 7.6390918 -2.08398438 6.31445312 C-1.39701565 4.20697281 -0.70229934 2.1024105 0 0 Z " fill="#FCA226" transform="translate(7,50)"/>
<path d="M0 0 C0.66 0 1.32 0 2 0 C3.18430979 3.34819496 4.34418002 6.70437438 5.5 10.0625 C5.83386719 11.00544922 6.16773438 11.94839844 6.51171875 12.91992188 C9.81770734 22.60174561 9.81770734 22.60174561 9 28 C7.4453125 29.9765625 7.4453125 29.9765625 5.125 31.625 C4.20976562 32.29402344 3.29453125 32.96304688 2.3515625 33.65234375 C1.8246582 34.02085449 1.29775391 34.38936523 0.75488281 34.76904297 C-1.19426091 36.13626371 -3.11695425 37.53644307 -5.0390625 38.94140625 C-8.88553572 41.74578652 -12.75078646 44.52307331 -16.62109375 47.29443359 C-19.67649704 49.48501727 -22.7242164 51.68611651 -25.77099609 53.88867188 C-27.25257869 54.95969544 -28.73467231 56.03001244 -30.21728516 57.09960938 C-34.14898949 59.93615784 -38.07445668 62.78089518 -41.9921875 65.63671875 C-42.80945313 66.23097656 -43.62671875 66.82523437 -44.46875 67.4375 C-46.0356015 68.57702836 -47.60079487 69.71884129 -49.1640625 70.86328125 C-50.22367188 71.63285156 -50.22367188 71.63285156 -51.3046875 72.41796875 C-51.92327637 72.86938232 -52.54186523 73.3207959 -53.17919922 73.78588867 C-55.05522971 75.03682722 -56.96424639 76.03494153 -59 77 C-57.64881155 74.10143745 -56.10301359 71.67656275 -54.12890625 69.1640625 C-53.56042969 68.43703125 -52.99195312 67.71 -52.40625 66.9609375 C-51.7978125 66.19007812 -51.189375 65.41921875 -50.5625 64.625 C-49.93214844 63.820625 -49.30179688 63.01625 -48.65234375 62.1875 C-46.77160692 59.78898946 -44.88634127 57.39410404 -43 55 C-42.04014503 53.77881837 -41.08048763 52.5574814 -40.12109375 51.3359375 C-38.81001285 49.66693756 -37.49859316 47.9982129 -36.18579102 46.33056641 C-31.83597856 40.8024984 -27.52211847 35.24664807 -23.20678711 29.69165039 C-19.05956651 24.35559415 -14.89922417 19.03017144 -10.71118164 13.72607422 C-8.72875672 11.21343552 -6.76576333 8.69008037 -4.8359375 6.13671875 C-4.20945313 5.30785156 -3.58296875 4.47898437 -2.9375 3.625 C-2.41027344 2.91601562 -1.88304687 2.20703125 -1.33984375 1.4765625 C-0.89769531 0.98929688 -0.45554688 0.50203125 0 0 Z " fill="#FBA226" transform="translate(130,50)"/>
<path d="M0 0 C1.67542976 0.28604898 3.34385343 0.61781233 5 1 C7.14034494 7.51314077 9.27612493 14.02776528 11.40869141 20.54345703 C12.13517128 22.76125219 12.86270742 24.97870162 13.59130859 27.19580078 C14.63655014 30.37703255 15.67802473 33.55947584 16.71875 36.7421875 C17.04685669 37.73805878 17.37496338 38.73393005 17.7130127 39.75997925 C18.01332397 40.68078278 18.31363525 41.6015863 18.62304688 42.55029297 C18.88952026 43.3630368 19.15599365 44.17578064 19.43054199 45.01315308 C20 47 20 47 20 49 C8.12 49 -3.76 49 -16 49 C-14.15141989 42.22187294 -12.28711377 35.53557747 -10.1171875 28.8671875 C-9.72758347 27.66221115 -9.72758347 27.66221115 -9.33010864 26.43289185 C-8.7885656 24.7605125 -8.24574369 23.08854675 -7.70166016 21.41699219 C-6.8659094 18.84704628 -6.0362699 16.27517858 -5.20703125 13.703125 C-4.6774458 12.0701949 -4.14751104 10.43737804 -3.6171875 8.8046875 C-3.3692746 8.03502655 -3.12136169 7.2653656 -2.86593628 6.47238159 C-1.11481794 1.11481794 -1.11481794 1.11481794 0 0 Z " fill="#E24328" transform="translate(111,0)"/>
<path d="M0 0 C1.67542976 0.28604898 3.34385343 0.61781233 5 1 C7.14034494 7.51314077 9.27612493 14.02776528 11.40869141 20.54345703 C12.13517128 22.76125219 12.86270742 24.97870162 13.59130859 27.19580078 C14.63655014 30.37703255 15.67802473 33.55947584 16.71875 36.7421875 C17.04685669 37.73805878 17.37496338 38.73393005 17.7130127 39.75997925 C18.01332397 40.68078278 18.31363525 41.6015863 18.62304688 42.55029297 C18.88952026 43.3630368 19.15599365 44.17578064 19.43054199 45.01315308 C20 47 20 47 20 49 C8.12 49 -3.76 49 -16 49 C-14.15141989 42.22187294 -12.28711377 35.53557747 -10.1171875 28.8671875 C-9.72758347 27.66221115 -9.72758347 27.66221115 -9.33010864 26.43289185 C-8.7885656 24.7605125 -8.24574369 23.08854675 -7.70166016 21.41699219 C-6.8659094 18.84704628 -6.0362699 16.27517858 -5.20703125 13.703125 C-4.6774458 12.0701949 -4.14751104 10.43737804 -3.6171875 8.8046875 C-3.3692746 8.03502655 -3.12136169 7.2653656 -2.86593628 6.47238159 C-1.11481794 1.11481794 -1.11481794 1.11481794 0 0 Z " fill="#E24328" transform="translate(24,0)"/>
</svg>
