<?xml version="1.0" encoding="UTF-8"?>
<svg version="1.1" xmlns="http://www.w3.org/2000/svg" width="128" height="128">
<path d="M0 0 C2.6875 2.5 2.6875 2.5 5 5 C5.99644342 6.00354397 6.99566793 7.00435092 8 8 C8.37769531 7.54109375 8.75539062 7.0821875 9.14453125 6.609375 C14.67108848 0.44862268 20.68003288 -2.2979091 28.87109375 -3.37890625 C36.06908853 -3.68839008 41.32345809 -2.23437429 46.75390625 2.54296875 C51.20461079 7.22961426 53.01411094 11.85138476 52.9921875 18.296875 C52.37396175 26.30693035 48.95019353 32.63732558 43 38 C36.45033983 42.33302348 29.74526534 44.6957569 21.87109375 43.7421875 C14.85741023 42.27823079 10.23117537 38.74230943 6 33 C5.34 32.34 4.68 31.68 4 31 C3.59910156 31.53109375 3.19820312 32.0621875 2.78515625 32.609375 C-2.43447591 39.09544853 -7.75281806 42.35336801 -15.9375 43.9375 C-22.14723481 44.44568189 -28.50463657 42.46976997 -33.4375 38.6875 C-37.80212229 34.1099693 -39.56677306 29.65202185 -40.05859375 23.42578125 C-39.86665011 15.47931473 -36.53225265 8.60718158 -31 3 C-21.88478356 -4.4167289 -10.26223786 -6.530515 0 0 Z M-24 14 C-26.34561723 17.78426246 -26.21468469 20.56607921 -25.59765625 24.87109375 C-25.08528698 27.25049524 -25.08528698 27.25049524 -22.875 29.5625 C-19.19882003 31.40058999 -17.06200778 31.65282268 -13 31 C-10.06026719 28.64581624 -10.06026719 28.64581624 -8 26 C-11.63 25.67 -15.26 25.34 -19 25 C-16.125 17.125 -16.125 17.125 -15 16 C-13.51361008 15.84344973 -12.02050873 15.74933057 -10.52734375 15.68359375 C-9.62822266 15.64169922 -8.72910156 15.59980469 -7.80273438 15.55664062 C-6.85720703 15.51732422 -5.91167969 15.47800781 -4.9375 15.4375 C-3.98810547 15.39431641 -3.03871094 15.35113281 -2.06054688 15.30664062 C0.29281353 15.20020724 2.64628354 15.09818992 5 15 C5.66 13.35 6.32 11.7 7 10 C6.11957031 10.17917969 5.23914063 10.35835937 4.33203125 10.54296875 C2.58986328 10.86201172 2.58986328 10.86201172 0.8125 11.1875 C-0.33605469 11.40792969 -1.48460938 11.62835938 -2.66796875 11.85546875 C-6.54932649 12.02382776 -7.86942827 11.1636204 -11 9 C-17.34030999 8.07777309 -19.73034093 9.63104653 -24 14 Z M19.1875 13.6875 C17.46123467 17.04917459 16.87237111 20.22368649 17 24 C18.20985424 26.9291208 19.23064813 28.42298609 21.75 30.3125 C26.02189878 31.6178024 29.64447976 31.58533828 33.75 29.8125 C37.24395723 26.99792334 38.62872127 24.27295565 39.875 20 C40.02951539 16.29163061 39.26990947 14.8960914 37 12 C34.65508846 9.65508846 33.43486168 9.05672109 30.125 8.625 C25.66079725 9.16070433 22.48377078 10.61855824 19.1875 13.6875 Z " fill="#00ACD7" transform="translate(74,44)"/>
<path d="M0 0 C2.88916016 -0.34057617 2.88916016 -0.34057617 6.5390625 -0.29296875 C8.49199219 -0.2784668 8.49199219 -0.2784668 10.484375 -0.26367188 C11.86458923 -0.23860388 13.24479756 -0.21320902 14.625 -0.1875 C16.01300663 -0.17245517 17.40102867 -0.15876641 18.7890625 -0.14648438 C22.19309509 -0.1110257 25.59635622 -0.06160298 29 0 C28.67 0.99 28.34 1.98 28 3 C18.1 3 8.2 3 -2 3 C-1.34 2.01 -0.68 1.02 0 0 Z " fill="#00ACD7" transform="translate(3,58)"/>
<path d="M0 0 C7.59 0 15.18 0 23 0 C22.67 0.99 22.34 1.98 22 3 C14.41 3 6.82 3 -1 3 C-0.67 2.01 -0.34 1.02 0 0 Z " fill="#00ACD7" transform="translate(12,52)"/>
<path d="M0 0 C4.29 0 8.58 0 13 0 C13.33 0.99 13.66 1.98 14 3 C9.05 3 4.1 3 -1 3 C-0.67 2.01 -0.34 1.02 0 0 Z " fill="#00ABD7" transform="translate(17,63)"/>
</svg>
