<?xml version="1.0" encoding="UTF-8"?>
<svg version="1.1" xmlns="http://www.w3.org/2000/svg" width="128" height="128">
<path d="M0 0 C0.80367508 -0.00817749 1.60735016 -0.01635498 2.43537903 -0.02478027 C5.09810651 -0.04961193 7.76078057 -0.06614879 10.42358398 -0.08056641 C11.3350865 -0.08589008 12.24658901 -0.09121376 13.18571281 -0.09669876 C18.0147505 -0.12342669 22.84376243 -0.14279865 27.67285156 -0.15722656 C31.65843794 -0.17053972 35.64350918 -0.19834418 39.62890625 -0.23925781 C44.44998907 -0.28874655 49.27060634 -0.31336806 54.0919323 -0.32045364 C55.92304503 -0.32714075 57.75414841 -0.34229612 59.58511543 -0.36634445 C77.80679018 -0.59192613 77.80679018 -0.59192613 86.10717773 5.19287109 C87.46842773 6.02818359 87.46842773 6.02818359 88.85717773 6.88037109 C95.42912647 13.63487396 98.24805471 20.82225988 98.30004883 30.08569336 C98.31231506 31.29120598 98.31231506 31.29120598 98.3248291 32.52107239 C98.34966076 35.18379987 98.36619762 37.84647393 98.38061523 40.50927734 C98.38593891 41.42077986 98.39126259 42.33228237 98.39674759 43.27140617 C98.42347552 48.10044386 98.44284747 52.92945579 98.45727539 57.75854492 C98.47058855 61.7441313 98.49839301 65.72920254 98.53930664 69.71459961 C98.58879538 74.53568243 98.61341689 79.3562997 98.62050247 84.17762566 C98.62718958 86.00873839 98.64234494 87.83984177 98.66639328 89.67080879 C98.89197496 107.89248354 98.89197496 107.89248354 93.10717773 116.19287109 C92.55030273 117.10037109 91.99342773 118.00787109 91.41967773 118.94287109 C84.66517487 125.51481983 77.47778895 128.33374807 68.21435547 128.38574219 C67.00884285 128.39800842 67.00884285 128.39800842 65.77897644 128.41052246 C63.11624896 128.43535412 60.4535749 128.45189098 57.79077148 128.46630859 C56.87926897 128.47163227 55.96776646 128.47695595 55.02864265 128.48244095 C50.19960496 128.50916888 45.37059304 128.52854083 40.54150391 128.54296875 C36.55591752 128.55628191 32.57084629 128.58408637 28.58544922 128.625 C23.7643664 128.67448874 18.94374913 128.69911025 14.12242317 128.70619583 C12.29131044 128.71288294 10.46020706 128.7280383 8.62924004 128.75208664 C-9.59243471 128.97766832 -9.59243471 128.97766832 -17.89282227 123.19287109 C-18.80032227 122.63599609 -19.70782227 122.07912109 -20.64282227 121.50537109 C-27.214771 114.75086823 -30.03369925 107.56348231 -30.08569336 98.30004883 C-30.09387085 97.49637375 -30.10204834 96.69269867 -30.11047363 95.8646698 C-30.13530529 93.20194232 -30.15184215 90.53926826 -30.16625977 87.87646484 C-30.17158344 86.96496233 -30.17690712 86.05345982 -30.18239212 85.11433601 C-30.20912005 80.28529832 -30.22849201 75.45628639 -30.24291992 70.62719727 C-30.25623308 66.64161088 -30.28403754 62.65653965 -30.32495117 58.67114258 C-30.37443991 53.85005975 -30.39906142 49.02944249 -30.406147 44.20811653 C-30.41283411 42.3770038 -30.42798948 40.54590041 -30.45203781 38.7149334 C-30.67761949 20.49325865 -30.67761949 20.49325865 -24.89282227 12.19287109 C-24.33594727 11.28537109 -23.77907227 10.37787109 -23.20532227 9.44287109 C-16.4508194 2.87092236 -9.26343348 0.05199411 0 0 Z " fill="#E14E1E" transform="translate(29.892822265625,-0.19287109375)"/>
<path d="M0 0 C26.4 0 52.8 0 80 0 C79.67 5.28 79.34 10.56 79 16 C58.87 16 38.74 16 18 16 C18.495 23.92 18.495 23.92 19 32 C38.14 32 57.28 32 77 32 C77 40.26748104 76.58505938 48.26553581 75.828125 56.46899414 C75.62450856 58.6928675 75.43300694 60.91757447 75.2421875 63.14257812 C75.11270983 64.57819109 74.98252595 66.01374057 74.8515625 67.44921875 C74.73635254 68.73143311 74.62114258 70.01364746 74.50244141 71.3347168 C73.98203511 75.13105291 73.43604547 78.43914572 72 82 C69.64916992 83.42138672 69.64916992 83.42138672 66.73046875 84.1796875 C65.67666016 84.4684375 64.62285156 84.7571875 63.53710938 85.0546875 C61.87905273 85.46074219 61.87905273 85.46074219 60.1875 85.875 C59.09373047 86.16890625 57.99996094 86.4628125 56.87304688 86.765625 C53.922716 87.54950328 50.97134905 88.30026703 48 89 C47.20247314 89.19352051 46.40494629 89.38704102 45.58325195 89.58642578 C39.67723753 90.53196859 34.68883426 89.87593508 28.97265625 88.25 C28.02198524 87.98364746 28.02198524 87.98364746 27.05210876 87.71191406 C25.05305965 87.14975049 23.05785191 86.57513226 21.0625 86 C19.69750119 85.61374989 18.33226847 85.2283254 16.96679688 84.84375 C13.64177568 83.90535461 10.32007575 82.95576494 7 82 C6.66205529 78.97961911 6.32951567 75.95880244 6 72.9375 C5.90460937 72.08994141 5.80921875 71.24238281 5.7109375 70.36914062 C5.57558594 69.11713867 5.57558594 69.11713867 5.4375 67.83984375 C5.35371094 67.08050537 5.26992188 66.32116699 5.18359375 65.53881836 C4.95421804 62.36690615 5 59.180195 5 56 C10.28 56 15.56 56 21 56 C21.81720493 59.26881973 22.11073543 61.46999069 22.0625 64.75 C22.05347656 65.54921875 22.04445313 66.3484375 22.03515625 67.171875 C22.02355469 67.77515625 22.01195313 68.3784375 22 69 C24.38533832 69.47706766 26.77062154 69.95046217 29.16015625 70.40625 C32 71 32 71 34.43359375 71.71875 C41.1082905 73.56004565 45.76013814 72.26869878 52.21484375 69.9453125 C55 69 55 69 58 69 C58.06058594 67.73542969 58.12117188 66.47085938 58.18359375 65.16796875 C58.26800904 63.50780129 58.35265655 61.84764563 58.4375 60.1875 C58.47681641 59.35412109 58.51613281 58.52074219 58.55664062 57.66210938 C58.61948242 56.45844727 58.61948242 56.45844727 58.68359375 55.23046875 C58.72025146 54.49207764 58.75690918 53.75368652 58.79467773 52.99291992 C59 51 59 51 60 48 C41.52 48 23.04 48 4 48 C1.59433962 26.3490566 1.59433962 26.3490566 0.875 18.9375 C0.78863281 18.09251953 0.70226562 17.24753906 0.61328125 16.37695312 C0.53207031 15.53970703 0.45085938 14.70246094 0.3671875 13.83984375 C0.29612793 13.12175537 0.22506836 12.40366699 0.15185547 11.66381836 C-0.06944258 7.78185203 0 3.88826895 0 0 Z " fill="#EBE8E8" transform="translate(24,19)"/>
<path d="M0 0 C12.21 0 24.42 0 37 0 C37 7.89288772 36.54722335 15.55607417 35.828125 23.39355469 C35.62487918 25.62632725 35.43324003 27.85990504 35.2421875 30.09375 C35.11268272 31.53391761 34.98249763 32.97402423 34.8515625 34.4140625 C34.73635254 35.7026416 34.62114258 36.9912207 34.50244141 38.31884766 C33.98337565 42.1217988 33.43925266 45.43367125 32 49 C29.64916992 50.42138672 29.64916992 50.42138672 26.73046875 51.1796875 C25.67666016 51.4684375 24.62285156 51.7571875 23.53710938 52.0546875 C22.43173828 52.32539062 21.32636719 52.59609375 20.1875 52.875 C19.09373047 53.16890625 17.99996094 53.4628125 16.87304688 53.765625 C13.922716 54.54950328 10.97134905 55.30026703 8 56 C6.80370972 56.29028076 6.80370972 56.29028076 5.58325195 56.58642578 C-0.32276247 57.53196859 -5.31116574 56.87593508 -11.02734375 55.25 C-11.97801476 54.98364746 -11.97801476 54.98364746 -12.94789124 54.71191406 C-14.94694035 54.14975049 -16.94214809 53.57513226 -18.9375 53 C-20.30249881 52.61374989 -21.66773153 52.2283254 -23.03320312 51.84375 C-26.35822432 50.90535461 -29.67992425 49.95576494 -33 49 C-33.33794471 45.97961911 -33.67048433 42.95880244 -34 39.9375 C-34.09539063 39.08994141 -34.19078125 38.24238281 -34.2890625 37.36914062 C-34.37929688 36.53447266 -34.46953125 35.69980469 -34.5625 34.83984375 C-34.64628906 34.08050537 -34.73007812 33.32116699 -34.81640625 32.53881836 C-35.04578196 29.36690615 -35 26.180195 -35 23 C-29.72 23 -24.44 23 -19 23 C-18.18279507 26.26881973 -17.88926457 28.46999069 -17.9375 31.75 C-17.94652344 32.54921875 -17.95554687 33.3484375 -17.96484375 34.171875 C-17.97644531 34.77515625 -17.98804687 35.3784375 -18 36 C-15.61466168 36.47706766 -13.22937846 36.95046217 -10.83984375 37.40625 C-8 38 -8 38 -5.56640625 38.71875 C1.1082905 40.56004565 5.76013814 39.26869878 12.21484375 36.9453125 C15 36 15 36 18 36 C18.06058594 34.73542969 18.12117188 33.47085938 18.18359375 32.16796875 C18.26800904 30.50780129 18.35265655 28.84764563 18.4375 27.1875 C18.47681641 26.35412109 18.51613281 25.52074219 18.55664062 24.66210938 C18.61948242 23.45844727 18.61948242 23.45844727 18.68359375 22.23046875 C18.72025146 21.49207764 18.75690918 20.75368652 18.79467773 19.99291992 C19 18 19 18 20 15 C13.4 15 6.8 15 0 15 C0 10.05 0 5.1 0 0 Z " fill="#FEFCFB" transform="translate(64,52)"/>
<path d="M0 0 C5.28 0 10.56 0 16 0 C16.81720493 3.26881973 17.11073543 5.46999069 17.0625 8.75 C17.05347656 9.54921875 17.04445313 10.3484375 17.03515625 11.171875 C17.02355469 11.77515625 17.01195313 12.3784375 17 13 C17.6290625 13.10957031 18.258125 13.21914062 18.90625 13.33203125 C24.56623682 14.38049266 29.6694886 15.82831017 35 18 C35 23.28 35 28.56 35 34 C27.73182094 33.36759717 20.99346756 31.46023833 14 29.4375 C12.84371094 29.10814453 11.68742187 28.77878906 10.49609375 28.43945312 C7.66252006 27.63153335 4.83060143 26.81826057 2 26 C1.66205529 22.97961911 1.32951567 19.95880244 1 16.9375 C0.90460937 16.08994141 0.80921875 15.24238281 0.7109375 14.36914062 C0.62070312 13.53447266 0.53046875 12.69980469 0.4375 11.83984375 C0.35371094 11.08050537 0.26992188 10.32116699 0.18359375 9.53881836 C-0.04578196 6.36690615 0 3.180195 0 0 Z " fill="#EBE9E8" transform="translate(29,75)"/>
<path d="M0 0 C13.2 0 26.4 0 40 0 C39.67 5.28 39.34 10.56 39 16 C26.13 16 13.26 16 0 16 C0 10.72 0 5.44 0 0 Z " fill="#FEFDFD" transform="translate(64,19)"/>
</svg>
