<?xml version="1.0" encoding="UTF-8"?>
<svg version="1.1" xmlns="http://www.w3.org/2000/svg" width="128" height="128">
<path d="M0 0 C3 2 3 2 4 5 C4.95783318 12.58056548 3.6612364 17.95137203 -1 24 C-5.96459673 29.46328935 -11.22885146 34.39102767 -17 39 C-20.05143256 42.68276343 -20.57646275 45.94847126 -20.421875 50.6015625 C-19.65707478 54.9495934 -17.35024024 58.33149469 -15 62 C-14.22184047 63.34997005 -13.45025096 64.70376442 -12.6875 66.0625 C-12.130625 67.031875 -11.57375 68.00125 -11 69 C-18.92156958 65.55115338 -24.81895349 58.09988859 -28.2421875 50.34375 C-29.43151943 46.66540382 -29.34668506 44.63604966 -28 41 C-24.05216259 34.94838081 -18.21478453 30.57140972 -12.71459961 26.00805664 C-6.99881295 21.23671149 -1.52834183 16.64170913 0 9 C0.13857202 5.99100762 0.12036651 3.00916274 0 0 Z " fill="#E92D2E" transform="translate(76,1)"/>
<path d="M0 0 C-2.50248865 1.66832577 -4.41149187 2.62381674 -7.1875 3.625 C-8.26064453 4.01558594 -8.26064453 4.01558594 -9.35546875 4.4140625 C-9.89816406 4.60742188 -10.44085938 4.80078125 -11 5 C-6.71193723 7.00502738 -2.4729325 7.63670202 2.1875 8.125 C2.98067627 8.2084668 3.77385254 8.29193359 4.59106445 8.37792969 C17.12200138 9.59104025 29.46388567 9.1754688 42 8.1875 C42.94319092 8.11756836 43.88638184 8.04763672 44.8581543 7.97558594 C51.03984799 7.42794449 57.30225056 6.59032958 63 4 C63.66 3.01 64.32 2.02 65 1 C65.99 2.98 65.99 2.98 67 5 C51.8916771 17.84024537 20.5504651 14.97747837 2.265625 13.6171875 C-5.05596525 12.97488525 -11.97303617 12.22100583 -19 10 C-19.33 8.68 -19.66 7.36 -20 6 C-13.6470057 0.3944168 -8.16813764 -0.32672551 0 0 Z " fill="#0074BC" transform="translate(38,107)"/>
<path d="M0 0 C-0.80824219 0.53109375 -1.61648437 1.0621875 -2.44921875 1.609375 C-3.51785156 2.31578125 -4.58648437 3.0221875 -5.6875 3.75 C-6.74324219 4.44609375 -7.79898438 5.1421875 -8.88671875 5.859375 C-14.59233502 9.77117351 -14.59233502 9.77117351 -19 15 C-19.84029971 20.14683572 -18.67794598 22.84056003 -15.9375 27.0625 C-13.02848908 31.6367642 -13.02848908 31.6367642 -12.75 35.1875 C-14.47346156 39.06528851 -16.84855192 42.15428942 -20 45 C-21.485 45.495 -21.485 45.495 -23 46 C-22.649375 45.29875 -22.29875 44.5975 -21.9375 43.875 C-20.75127556 40.23724505 -20.86953222 38.67402027 -22 35 C-22.99186834 33.52181395 -24.0159236 32.06497036 -25.0625 30.625 C-28.27146229 26.03525827 -28.81784913 23.54319964 -28 18 C-25.64188449 10.77827125 -20.01975242 6.54996142 -13.46875 3.1875 C-3.75277558 -1.25092519 -3.75277558 -1.25092519 0 0 Z " fill="#E92D2E" transform="translate(92,28)"/>
<path d="M0 0 C1.85625 0.0309375 1.85625 0.0309375 3.75 0.0625 C0.68841678 2.10355548 -2.05759151 3.11853816 -5.5078125 4.28125 C-7.44773892 4.93036272 -7.44773892 4.93036272 -8.25 7.0625 C5.67786003 7.30092794 19.33913816 6.97138251 33.1953125 5.5 C36.73039184 5.12925837 40.19135794 4.96915857 43.75 5.0625 C33.03822776 14.280804 12.20517817 12.75153661 -1.25 12.0625 C-14.53649986 10.91925007 -14.53649986 10.91925007 -18.25 9.0625 C-18.01953125 7.19921875 -18.01953125 7.19921875 -17.25 5.0625 C-15.32421875 3.83203125 -15.32421875 3.83203125 -12.9375 2.875 C-12.15761719 2.55144531 -11.37773438 2.22789063 -10.57421875 1.89453125 C-6.93939354 0.59332491 -3.86796472 -0.06446608 0 0 Z " fill="#0074BC" transform="translate(46.25,69.9375)"/>
<path d="M0 0 C0.99 0.33 1.98 0.66 3 1 C2.67 1.66 2.34 2.32 2 3 C5.49998201 3.02934711 8.99993179 3.04691445 12.5 3.0625 C13.97339844 3.07506836 13.97339844 3.07506836 15.4765625 3.08789062 C19.87734121 3.10255989 24.1157206 3.0569275 28.46875 2.375 C31.97546069 2.00260594 33.1718864 1.9931719 36 3.9375 C36.99 4.618125 37.98 5.29875 39 6 C29.74518433 12.16987712 15.71421675 12.26159666 5.0625 10.1875 C1.64816213 9.3246037 -1.10577768 8.05396423 -4 6 C-3.6875 4.125 -3.6875 4.125 -3 2 C-2.01 1.34 -1.02 0.68 0 0 Z " fill="#0074BC" transform="translate(45,98)"/>
<path d="M0 0 C0 0.99 0 1.98 0 3 C10.03742229 4.03738722 19.27495676 3.97097381 29.25878906 2.41064453 C35.3519938 1.59017098 35.3519938 1.59017098 39.08203125 3.94921875 C39.71496094 4.62597656 40.34789062 5.30273438 41 6 C28.1012215 11.59182019 9.46419326 12.2518505 -4 8 C-4.99 7.34 -5.98 6.68 -7 6 C-6.75 3.625 -6.75 3.625 -6 1 C-2.69333333 -1.34666667 -2.69333333 -1.34666667 0 0 Z " fill="#0074BD" transform="translate(45,85)"/>
<path d="M0 0 C0 3 0 3 -1.8125 5 C-19.70660651 16.22767467 -51.13114357 13.84467985 -71 10 C-71.99 9.67 -72.98 9.34 -74 9 C-73.67 8.34 -73.34 7.68 -73 7 C-71.79859375 7.15984375 -70.5971875 7.3196875 -69.359375 7.484375 C-47.38706732 9.90287257 -20.31711246 10.15855623 0 0 Z " fill="#0074BC" transform="translate(109,115)"/>
<path d="M0 0 C2.98977697 1.29779365 3.83650032 2.33723117 6 5 C6.86989448 9.9821229 6.68106704 11.84218603 4.125 16.1875 C-0.60394854 21.13262904 -7.35367643 23.89623555 -14 25 C-11.77350337 22.6022344 -9.69123649 20.79835852 -6.9375 19 C-4.13656265 17.09297883 -2.53664781 15.98792629 -1 13 C-0.41657647 9.45769191 -0.41657647 9.45769191 -1 6 C-2.51894806 3.90235835 -2.51894806 3.90235835 -5 3 C-8.16732421 2.74913276 -8.16732421 2.74913276 -11 3 C-11 2.34 -11 1.68 -11 1 C-7.49971861 -0.75014069 -3.81921126 -0.55017114 0 0 Z " fill="#0074BC" transform="translate(104,69)"/>
</svg>
