<?xml version="1.0" encoding="UTF-8"?>
<svg version="1.1" xmlns="http://www.w3.org/2000/svg" width="128" height="128">
<path d="M0 0 C36.96 0 73.92 0 112 0 C112 36.96 112 73.92 112 112 C75.04 112 38.08 112 0 112 C0 75.04 0 38.08 0 0 Z M72.625 56.125 C70.40648301 60.05006852 69.80921474 63.508597 70 68 C72.08328289 74.37239472 76.32175819 77.57437258 82.0234375 80.609375 C84.16934381 81.67977957 86.32405629 82.73275995 88.48828125 83.765625 C91 85 91 85 92 86 C92.25 88.4375 92.25 88.4375 92 91 C88.29824177 93.46783882 85.29338105 93.80696761 81 93 C78.34761743 91.56910941 76.3351747 89.94597892 74 88 C71.69 89.32 69.38 90.64 67 92 C69.78800577 97.28253724 72.73497977 100.16110362 78.375 102.25 C85.29818363 103.68238282 90.74820186 103.23730428 97 100 C100.77052783 97.27238412 102.27071316 95.13890171 103 90.625 C103.22957627 86.01051692 102.54061992 82.96037812 100 79 C95.40052503 75.11890145 87.16295353 69 81 69 C80.95758277 66.66705225 80.95907063 64.33297433 81 62 C82 61 82 61 85.3125 60.75 C89.09767206 61.00662183 90.33025858 61.43704824 93 64 C94.98 62.68 96.96 61.36 99 60 C98.11756917 57.03182357 97.35087777 55.30701804 95 53.25 C86.77023675 49.82093198 79.40054389 50.06267126 72.625 56.125 Z M51 52 C50.98018066 53.13542236 50.96036133 54.27084473 50.93994141 55.44067383 C50.86390316 59.65086144 50.77518314 63.86070263 50.68261719 68.07055664 C50.64432005 69.89307824 50.60946845 71.71567563 50.578125 73.53833008 C50.53249021 76.15733941 50.47449378 78.77582674 50.4140625 81.39453125 C50.39673569 82.61811089 50.39673569 82.61811089 50.37905884 83.8664093 C50.27802726 87.73364504 50.1922681 89.71159785 48 93 C44.625 93.4375 44.625 93.4375 41 93 C38.5625 91 38.5625 91 37 89 C34.69 90.32 32.38 91.64 30 93 C31.92614805 97.49434546 34.30604573 100.24713144 38.8125 102.25 C45.13220288 103.73698891 49.63221559 103.3068299 55.26953125 100.19921875 C58.6306172 97.8699786 59.73040576 95.26797396 60.56030273 91.36474609 C61.0772728 87.40867644 61.12481488 83.51969692 61.09765625 79.5390625 C61.0962413 78.74849457 61.09482635 77.95792664 61.09336853 77.1434021 C61.08780504 74.63722834 61.07525944 72.13114642 61.0625 69.625 C61.05748028 67.91797005 61.0529182 66.21093868 61.04882812 64.50390625 C61.03784759 60.33590252 61.02060839 56.16796679 61 52 C57.7 52 54.4 52 51 52 Z " fill="#E9B208" transform="translate(8,8)"/>
</svg>
