<?xml version="1.0" encoding="UTF-8"?>
<svg version="1.1" xmlns="http://www.w3.org/2000/svg" width="132" height="128">
<path d="M0 0 C1.21322256 0.59388948 2.42619017 1.18830003 3.63891602 1.78320312 C4.88965512 2.38415542 6.14104393 2.98375732 7.39306641 3.58203125 C9.86497849 4.76489686 12.33310056 5.95519668 14.79907227 7.15039062 C17.730164 8.55704544 20.67305372 9.92071112 23.63891602 11.25195312 C24.80209351 11.77789063 24.80209351 11.77789063 25.98876953 12.31445312 C27.3688443 12.93624678 28.75192805 13.55142863 30.13867188 14.15820312 C34.85677732 16.32163319 38.94076851 18.73205536 40.99749756 23.70996094 C42.71858744 29.05390244 44.1891663 34.40972177 45.46313477 39.87695312 C45.65865433 40.70851929 45.85417389 41.54008545 46.05561829 42.39685059 C46.46371205 44.14081691 46.86946374 45.88533283 47.27294922 47.63037109 C47.88791613 50.27889686 48.51801521 52.92353423 49.14868164 55.56835938 C49.54609926 57.2751736 49.94261412 58.98219832 50.33813477 60.68945312 C50.52558762 61.46784546 50.71304047 62.24623779 50.90617371 63.04821777 C52.2334199 68.89482722 53.49739573 75.43662261 51.27563477 81.17382812 C50.58920898 82.09421875 50.58920898 82.09421875 49.88891602 83.03320312 C49.06520508 84.14888672 49.06520508 84.14888672 48.22485352 85.28710938 C45.39775461 88.77459239 42.52235498 92.21794684 39.59399414 95.62060547 C36.07379969 99.71205954 32.70344456 103.8988631 29.38891602 108.15820312 C18.47717403 122.12576663 18.47717403 122.12576663 14.20141602 123.78320312 C11.6035614 124.06408691 11.6035614 124.06408691 8.62597656 124.10546875 C7.50768967 124.12468384 6.38940277 124.14389893 5.23722839 124.16369629 C4.0330275 124.17219604 2.8288266 124.1806958 1.58813477 124.18945312 C0.34522171 124.20085327 -0.89769135 124.21225342 -2.17826843 124.22399902 C-4.8084269 124.24289098 -7.43863263 124.25596381 -10.06884766 124.26367188 C-12.75885128 124.27245264 -15.44757575 124.30027403 -18.13720703 124.34570312 C-22.02082176 124.40669358 -25.90282469 124.42777298 -29.78686523 124.43945312 C-30.98499344 124.46414673 -32.18312164 124.48884033 -33.41755676 124.51428223 C-42.73855785 124.46467299 -42.73855785 124.46467299 -46.94946289 120.93286133 C-48.47109985 119.37055969 -48.47109985 119.37055969 -49.79858398 117.78320312 C-50.49195862 116.97992332 -50.49195862 116.97992332 -51.19934082 116.16041565 C-52.47751523 114.6354545 -53.67108299 113.06529513 -54.86108398 111.47070312 C-59.72051924 105.1096695 -64.76909425 98.9321189 -69.93945312 92.82104492 C-72.65750435 89.56588203 -75.29453076 86.26067197 -77.71264648 82.77539062 C-78.31906982 81.91083252 -78.31906982 81.91083252 -78.93774414 81.02880859 C-81.52507211 74.27944878 -79.13624918 66.67999828 -77.56811523 59.93164062 C-77.33581711 58.91397614 -77.10351898 57.89631165 -76.86418152 56.84780884 C-76.37193821 54.70703761 -75.87496973 52.56734796 -75.37353516 50.42871094 C-74.6127824 47.1654884 -73.87992705 43.89678827 -73.14819336 40.62695312 C-72.66486031 38.54062269 -72.17988922 36.45467092 -71.69311523 34.36914062 C-71.47831009 33.39713715 -71.26350494 32.42513367 -71.04219055 31.42367554 C-69.42127799 24.67977936 -67.48385607 20.31603757 -61.59228516 16.2668457 C-60.84954346 15.90743896 -60.10680176 15.54803223 -59.34155273 15.17773438 C-58.48770996 14.75661377 -57.63386719 14.33549316 -56.75415039 13.90161133 C-55.84068848 13.47066162 -54.92722656 13.03971191 -53.98608398 12.59570312 C-52.55401611 11.90383911 -52.55401611 11.90383911 -51.09301758 11.19799805 C-49.05845642 10.22033248 -47.02024787 9.2502269 -44.97875977 8.28710938 C-41.73987117 6.75543781 -38.51745148 5.19220375 -35.29467773 3.62695312 C-33.17194374 2.61451297 -31.04826911 1.60404225 -28.92358398 0.59570312 C-27.93253662 0.11399658 -26.94148926 -0.36770996 -25.92041016 -0.86401367 C-15.53870207 -5.69689304 -10.19174179 -4.83100681 0 0 Z " fill="#336EE6" transform="translate(79.798583984375,4.216796875)"/>
<path d="M0 0 C1.32 0.33 2.64 0.66 4 1 C4 4.96 4 8.92 4 13 C5.7325 13.12375 5.7325 13.12375 7.5 13.25 C14.59217063 14.13965391 20.25109705 17.97576794 26 22 C29.56782302 19.99274859 29.56782302 19.99274859 32.5625 17.25 C33.036875 16.8375 33.51125 16.425 34 16 C36.1875 16.3125 36.1875 16.3125 38 17 C37.65978036 20.17538332 36.97533396 21.02276865 34.5625 23.25 C32 25 32 25 30 25 C30.44970014 27.96802093 31.10937795 30.22351146 32.4375 32.9375 C34.9985996 38.56187559 35.28406337 44.92717281 36 51 C36.62648438 51.09796875 37.25296875 51.1959375 37.8984375 51.296875 C38.71570313 51.44640625 39.53296875 51.5959375 40.375 51.75 C41.18710938 51.88921875 41.99921875 52.0284375 42.8359375 52.171875 C45 53 45 53 46.2890625 55.078125 C46.52367188 55.71234375 46.75828125 56.3465625 47 57 C42.04653013 58.59789351 37.86717585 57.28306814 33 56 C32.90203125 56.73089844 32.8040625 57.46179688 32.703125 58.21484375 C31.06604183 64.69951208 25.36223187 70.26268688 20 74 C20.4979837 77.73487777 20.87491756 79.81237635 23 83 C23 84.32 23 85.64 23 87 C21.35 87 19.7 87 18 87 C16.68 84.03 15.36 81.06 14 78 C13.1440625 78.16242188 12.288125 78.32484375 11.40625 78.4921875 C8.04669526 78.99303855 4.89381083 79.1330805 1.5 79.125 C-0.12421875 79.12886719 -0.12421875 79.12886719 -1.78125 79.1328125 C-4.93390353 79.00272728 -7.90298066 78.5876874 -11 78 C-12.32 80.97 -13.64 83.94 -15 87 C-16.65 87 -18.3 87 -20 87 C-19.56720308 84.40321849 -19.17333302 82.30814759 -17.875 80 C-16.67307007 77.25273159 -17.12746531 75.84111049 -18 73 C-19.68882619 71.192249 -19.68882619 71.192249 -21.8125 69.6875 C-26.07052348 66.20157772 -27.93349866 63.08014913 -30 58 C-30 57.34 -30 56.68 -30 56 C-31.8253125 56.495 -31.8253125 56.495 -33.6875 57 C-36.87210604 57.80322213 -39.6972843 58.20641973 -43 58 C-43.33 56.68 -43.66 55.36 -44 54 C-40.37 53.01 -36.74 52.02 -33 51 C-32.9175 49.22625 -32.835 47.4525 -32.75 45.625 C-32.3284072 40.22094689 -31.09164947 36.01720581 -28.7421875 31.15625 C-27.85937799 28.59145605 -27.92382215 27.47468917 -29 25 C-31.97763043 22.73674754 -31.97763043 22.73674754 -35 21 C-34.67 19.35 -34.34 17.7 -34 16 C-29.29571429 17.65285714 -29.29571429 17.65285714 -27.5625 19.6875 C-25.97303331 21.31566077 -25.97303331 21.31566077 -23.125 20.9375 C-19.58909395 19.87672818 -17.82342771 18.34137908 -15 16 C-10.36471273 13.64021739 -7.15152667 12.85509067 -2 13 C-1.90912109 11.71802734 -1.90912109 11.71802734 -1.81640625 10.41015625 C-1.73261719 9.30542969 -1.64882813 8.20070313 -1.5625 7.0625 C-1.48128906 5.96035156 -1.40007813 4.85820312 -1.31640625 3.72265625 C-1 1 -1 1 0 0 Z " fill="#F6F9FE" transform="translate(65,20)"/>
<path d="M0 0 C1.21322256 0.59388948 2.42619017 1.18830003 3.63891602 1.78320312 C4.88965512 2.38415542 6.14104393 2.98375732 7.39306641 3.58203125 C9.86497849 4.76489686 12.33310056 5.95519668 14.79907227 7.15039062 C17.730164 8.55704544 20.67305372 9.92071112 23.63891602 11.25195312 C24.80209351 11.77789063 24.80209351 11.77789063 25.98876953 12.31445312 C27.3688443 12.93624678 28.75192805 13.55142863 30.13867188 14.15820312 C34.85677732 16.32163319 38.94076851 18.73205536 40.99749756 23.70996094 C42.71858744 29.05390244 44.1891663 34.40972177 45.46313477 39.87695312 C45.65865433 40.70851929 45.85417389 41.54008545 46.05561829 42.39685059 C46.46371205 44.14081691 46.86946374 45.88533283 47.27294922 47.63037109 C47.88791613 50.27889686 48.51801521 52.92353423 49.14868164 55.56835938 C49.54609926 57.2751736 49.94261412 58.98219832 50.33813477 60.68945312 C50.52558762 61.46784546 50.71304047 62.24623779 50.90617371 63.04821777 C52.2334199 68.89482722 53.49739573 75.43662261 51.27563477 81.17382812 C50.58920898 82.09421875 50.58920898 82.09421875 49.88891602 83.03320312 C49.06520508 84.14888672 49.06520508 84.14888672 48.22485352 85.28710938 C45.39775461 88.77459239 42.52235498 92.21794684 39.59399414 95.62060547 C36.07379969 99.71205954 32.70344456 103.8988631 29.38891602 108.15820312 C18.47717403 122.12576663 18.47717403 122.12576663 14.20141602 123.78320312 C11.6035614 124.06408691 11.6035614 124.06408691 8.62597656 124.10546875 C7.50768967 124.12468384 6.38940277 124.14389893 5.23722839 124.16369629 C4.0330275 124.17219604 2.8288266 124.1806958 1.58813477 124.18945312 C0.34522171 124.20085327 -0.89769135 124.21225342 -2.17826843 124.22399902 C-4.8084269 124.24289098 -7.43863263 124.25596381 -10.06884766 124.26367188 C-12.75885128 124.27245264 -15.44757575 124.30027403 -18.13720703 124.34570312 C-22.02082176 124.40669358 -25.90282469 124.42777298 -29.78686523 124.43945312 C-30.98499344 124.46414673 -32.18312164 124.48884033 -33.41755676 124.51428223 C-42.73855785 124.46467299 -42.73855785 124.46467299 -46.94946289 120.93286133 C-48.47109985 119.37055969 -48.47109985 119.37055969 -49.79858398 117.78320312 C-50.49195862 116.97992332 -50.49195862 116.97992332 -51.19934082 116.16041565 C-52.47751523 114.6354545 -53.67108299 113.06529513 -54.86108398 111.47070312 C-59.72051924 105.1096695 -64.76909425 98.9321189 -69.93945312 92.82104492 C-72.65750435 89.56588203 -75.29453076 86.26067197 -77.71264648 82.77539062 C-78.31906982 81.91083252 -78.31906982 81.91083252 -78.93774414 81.02880859 C-81.52507211 74.27944878 -79.13624918 66.67999828 -77.56811523 59.93164062 C-77.33581711 58.91397614 -77.10351898 57.89631165 -76.86418152 56.84780884 C-76.37193821 54.70703761 -75.87496973 52.56734796 -75.37353516 50.42871094 C-74.6127824 47.1654884 -73.87992705 43.89678827 -73.14819336 40.62695312 C-72.66486031 38.54062269 -72.17988922 36.45467092 -71.69311523 34.36914062 C-71.47831009 33.39713715 -71.26350494 32.42513367 -71.04219055 31.42367554 C-69.42127799 24.67977936 -67.48385607 20.31603757 -61.59228516 16.2668457 C-60.84954346 15.90743896 -60.10680176 15.54803223 -59.34155273 15.17773438 C-58.48770996 14.75661377 -57.63386719 14.33549316 -56.75415039 13.90161133 C-55.84068848 13.47066162 -54.92722656 13.03971191 -53.98608398 12.59570312 C-52.55401611 11.90383911 -52.55401611 11.90383911 -51.09301758 11.19799805 C-49.05845642 10.22033248 -47.02024787 9.2502269 -44.97875977 8.28710938 C-41.73987117 6.75543781 -38.51745148 5.19220375 -35.29467773 3.62695312 C-33.17194374 2.61451297 -31.04826911 1.60404225 -28.92358398 0.59570312 C-27.93253662 0.11399658 -26.94148926 -0.36770996 -25.92041016 -0.86401367 C-15.53870207 -5.69689304 -10.19174179 -4.83100681 0 0 Z M-24.11108398 3.34570312 C-29.63558866 6.22339478 -35.18180186 8.86919638 -40.92358398 11.28320312 C-54.39889276 16.59275826 -54.39889276 16.59275826 -64.79858398 25.78320312 C-65.45756269 27.79534544 -65.45756269 27.79534544 -65.94360352 30.03588867 C-66.14365997 30.89075363 -66.34371643 31.74561859 -66.54983521 32.62638855 C-66.75825043 33.54825455 -66.96666565 34.47012054 -67.18139648 35.41992188 C-67.40052704 36.37332962 -67.61965759 37.32673737 -67.84542847 38.30903625 C-68.30743289 40.32826638 -68.766181 42.3482439 -69.22192383 44.36889648 C-69.91751314 47.44386595 -70.62884817 50.51489601 -71.34155273 53.5859375 C-71.78913299 55.55121261 -72.2357776 57.5167011 -72.68139648 59.48242188 C-72.89386017 60.39416672 -73.10632385 61.30591156 -73.32522583 62.24528503 C-75.49370283 71.51650415 -75.49370283 71.51650415 -73.43530273 80.51367188 C-72.79206055 81.32449219 -72.14881836 82.1353125 -71.48608398 82.97070312 C-70.75389648 83.9065625 -70.02170898 84.84242187 -69.26733398 85.80664062 C-66.2346254 89.46316584 -63.19236676 93.11008511 -60.09619141 96.71313477 C-56.05095124 101.42756504 -52.20843902 106.28419102 -48.41455078 111.20239258 C-44.45248033 116.63778312 -44.45248033 116.63778312 -38.79858398 119.78320312 C-37.18917565 119.88508277 -35.57595823 119.93158448 -33.96337891 119.94433594 C-32.98193405 119.95394348 -32.0004892 119.96355103 -30.98930359 119.97344971 C-29.40022942 119.97982452 -29.40022942 119.97982452 -27.77905273 119.98632812 C-26.68772537 119.9920282 -25.59639801 119.99772827 -24.47200012 120.00360107 C-22.16119354 120.01305176 -19.85037348 120.01958533 -17.53955078 120.0234375 C-14.01042051 120.03313624 -10.48187426 120.06415685 -6.95288086 120.09570312 C-4.70744161 120.10223397 -2.46199819 120.10748412 -0.21655273 120.11132812 C1.3634124 120.12984833 1.3634124 120.12984833 2.97529602 120.14874268 C8.47289112 120.13209235 12.47386657 119.92866081 17.20141602 116.78320312 C19.14329512 114.88819706 19.14329512 114.88819706 20.76391602 112.59570312 C23.7474286 108.68233862 26.77384453 104.82606948 29.89599609 101.02319336 C31.5833544 98.96222848 33.25228363 96.88728853 34.92016602 94.81054688 C36.98751732 92.24525158 39.10261833 89.74595554 41.29516602 87.28710938 C42.22234104 86.20255234 43.14942945 85.11792125 44.07641602 84.03320312 C44.89883789 83.11023438 45.72125977 82.18726562 46.56860352 81.23632812 C51.03270131 71.79550886 45.72415978 58.73755823 43.26391602 49.03320312 C42.89913593 47.56596572 42.53519912 46.09851841 42.17211914 44.63085938 C41.19216304 40.67903004 40.19761775 36.73097082 39.20141602 32.78320312 C39.06178436 32.08690796 38.92215271 31.39061279 38.77828979 30.67321777 C37.82119149 26.14004205 36.96834764 23.53617872 33.20141602 20.78320312 C30.27958557 19.14079219 27.27666915 17.71565968 24.23657227 16.30664062 C23.36624863 15.89531891 22.49592499 15.48399719 21.59922791 15.06021118 C18.82451055 13.75146113 16.04428717 12.45489141 13.26391602 11.15820312 C11.39702313 10.27875102 9.53048256 9.3985506 7.66430664 8.51757812 C-7.900461 -0.03826632 -7.900461 -0.03826632 -24.11108398 3.34570312 Z " fill="#F8FAFE" transform="translate(79.798583984375,4.216796875)"/>
<path d="M0 0 C-0.33 4.62 -0.66 9.24 -1 14 C-5 15 -5 15 -7.578125 13.56640625 C-8.45984375 12.90511719 -9.3415625 12.24382813 -10.25 11.5625 C-11.14203125 10.90378906 -12.0340625 10.24507812 -12.953125 9.56640625 C-13.62859375 9.04949219 -14.3040625 8.53257813 -15 8 C-13.76741948 4.30225843 -12.11359358 3.63908286 -8.77734375 1.8515625 C-5.70248438 0.37833318 -3.39995942 0 0 0 Z " fill="#3A72E6" transform="translate(63,40)"/>
<path d="M0 0 C1.75032844 0.14183696 3.50025534 0.28863429 5.25 0.4375 C6.71179688 0.55931641 6.71179688 0.55931641 8.203125 0.68359375 C10.56461753 0.95074584 12.71901065 1.35371968 15 2 C13.72276562 7.81851217 10.56193997 11.36335918 6 15 C5.34 15 4.68 15 4 15 C3.13153169 13.25705322 2.28069373 11.50531337 1.4375 9.75 C0.72400391 8.28820312 0.72400391 8.28820312 -0.00390625 6.796875 C-1.03510273 3.90143703 -1.11346788 2.80033839 0 0 Z " fill="#3871E6" transform="translate(76,73)"/>
<path d="M0 0 C2.98970233 2.7849282 3.99754324 4.99017296 5 9 C5.07522969 11.33212027 5.09325876 13.6685311 5 16 C3.06077578 15.54901762 1.12366406 15.08894441 -0.8125 14.625 C-1.89144531 14.36976562 -2.97039062 14.11453125 -4.08203125 13.8515625 C-7 13 -7 13 -10 11 C-8.55218207 7.55571735 -6.72305391 5.63869038 -3.875 3.25 C-3.15054688 2.63640625 -2.42609375 2.0228125 -1.6796875 1.390625 C-0.84824219 0.70226563 -0.84824219 0.70226563 0 0 Z " fill="#3A73E7" transform="translate(88,53)"/>
<path d="M0 0 C1.32 0 2.64 0 4 0 C5.00508801 1.78881736 6.00392736 3.58114696 7 5.375 C7.8353125 6.87160156 7.8353125 6.87160156 8.6875 8.3984375 C10 11 10 11 10 13 C7.20251159 13.93249614 5.45679119 14.13476152 2.5625 14.125 C1.41974609 14.12886719 1.41974609 14.12886719 0.25390625 14.1328125 C-1.95315859 14.00276015 -3.87969276 13.60856199 -6 13 C-4.31326082 8.50202887 -2.18326108 4.27113698 0 0 Z " fill="#3B73E7" transform="translate(64,79)"/>
<path d="M0 0 C6.75 1.125 6.75 1.125 10.375 3.5625 C11.06335938 4.01753906 11.75171875 4.47257812 12.4609375 4.94140625 C13.22277344 5.46541016 13.22277344 5.46541016 14 6 C12.80704867 9.57885399 11.75532938 10.18134909 8.6875 12.25 C7.51767578 13.06210937 7.51767578 13.06210937 6.32421875 13.890625 C4 15 4 15 0 14 C0 9.38 0 4.76 0 0 Z " fill="#3771E6" transform="translate(70,40)"/>
<path d="M0 0 C1.11346788 2.80033839 1.03510273 3.90143703 0.00390625 6.796875 C-0.47175781 7.77140625 -0.94742188 8.7459375 -1.4375 9.75 C-1.91058594 10.73484375 -2.38367187 11.7196875 -2.87109375 12.734375 C-3.24363281 13.48203125 -3.61617187 14.2296875 -4 15 C-7.36487781 13.59127675 -9.05709457 12.00344528 -11.1875 9.0625 C-11.69667969 8.37285156 -12.20585938 7.68320313 -12.73046875 6.97265625 C-14 5 -14 5 -15 2 C-13.43883181 1.66048381 -11.87598662 1.32867456 -10.3125 1 C-9.44238281 0.814375 -8.57226562 0.62875 -7.67578125 0.4375 C-5.06287036 0.01027953 -2.64186962 -0.07616201 0 0 Z " fill="#3770E6" transform="translate(56,73)"/>
<path d="M0 0 C3.92720299 1.66150896 6.9279118 4.06444906 10 7 C10.67578125 9.66796875 10.67578125 9.66796875 11 12 C9.23050388 12.50471197 7.45934777 13.00360685 5.6875 13.5 C4.70136719 13.7784375 3.71523438 14.056875 2.69921875 14.34375 C0 15 0 15 -3 15 C-3.35050464 9.158256 -3.16727335 5.1468192 0 0 Z " fill="#356FE6" transform="translate(43,53)"/>
<path d="M0 0 C0.78375 0.04125 1.5675 0.0825 2.375 0.125 C2.375 0.785 2.375 1.445 2.375 2.125 C3.035 2.125 3.695 2.125 4.375 2.125 C4.1875 4.5 4.1875 4.5 3.375 7.125 C1 8.5625 1 8.5625 -1.625 9.125 C-2.615 8.465 -3.605 7.805 -4.625 7.125 C-4.9375 4.625 -4.9375 4.625 -4.625 2.125 C-2.625 0.125 -2.625 0.125 0 0 Z " fill="#3F76E7" transform="translate(66.625,61.875)"/>
</svg>
