<?xml version="1.0" encoding="UTF-8"?>
<svg version="1.1" xmlns="http://www.w3.org/2000/svg" width="113" height="128">
<path d="M0 0 C1.29478271 0.74612549 1.29478271 0.74612549 2.61572266 1.50732422 C3.6022583 2.06766357 4.58879395 2.62800293 5.60522461 3.20532227 C6.65282959 3.81802979 7.70043457 4.4307373 8.77978516 5.06201172 C9.86799561 5.68567627 10.95620605 6.30934082 12.07739258 6.9519043 C14.94647094 8.60037052 17.80854007 10.26017399 20.66729736 11.92645264 C23.52111009 13.58628954 26.38362215 15.23102185 29.24462891 16.87841797 C33.38156071 19.26980375 37.5177736 21.6623138 41.64306641 24.07373047 C42.46846924 24.55543701 43.29387207 25.03714355 44.14428711 25.53344727 C44.89025146 25.99662354 45.63621582 26.4597998 46.40478516 26.93701172 C47.10007828 27.33250717 47.7953714 27.72800262 48.51173401 28.13548279 C50.40478516 29.93701172 50.40478516 29.93701172 50.92617798 32.73178101 C50.93539276 33.86475616 50.94460754 34.99773132 50.95410156 36.16503906 C50.9826976 38.0925148 50.9826976 38.0925148 51.01187134 40.05892944 C51.01134842 41.46360381 51.00947404 42.86827823 51.00634766 44.27294922 C51.01412271 45.71400446 51.0227923 47.15505512 51.03231812 48.59609985 C51.04724384 51.61744027 51.04666079 54.63831334 51.03613281 57.65966797 C51.02455371 61.52617374 51.05837133 65.39076004 51.10482216 69.25694847 C51.13433511 72.23394906 51.13603536 75.21048965 51.1298027 78.18761063 C51.13082767 79.61255312 51.14127658 81.03752185 51.16142654 82.46232224 C51.29856367 93.51778626 51.29856367 93.51778626 49.20587158 96.84075928 C47.68945313 98.15625 47.68945313 98.15625 44.40478516 99.93701172 C43.53789063 100.48035156 42.67099609 101.02369141 41.77783203 101.58349609 C40.46395508 102.29989258 40.46395508 102.29989258 39.12353516 103.03076172 C38.12692871 103.58038574 37.13032227 104.13000977 36.10351562 104.69628906 C35.04793457 105.27072754 33.99235352 105.84516602 32.90478516 106.43701172 C26.23885902 110.09694734 19.60332818 113.77191718 13.11572266 117.74169922 C12.13152344 118.34175781 11.14732422 118.94181641 10.13330078 119.56005859 C8.27265401 120.70242694 6.41934205 121.85685547 4.57470703 123.02490234 C-3.81839319 128.15580294 -3.81839319 128.15580294 -9.59521484 126.93701172 C-13.74863743 125.00830134 -17.62197167 122.68820351 -21.53271484 120.31201172 C-23.25654251 119.28890002 -24.9803792 118.26580301 -26.70484924 117.24377441 C-28.48362252 116.18685761 -30.25831628 115.12332361 -32.03271484 114.05908203 C-35.5118504 111.97850185 -39.01826908 109.94960525 -42.53271484 107.92919922 C-43.62592041 107.29965332 -44.71912598 106.67010742 -45.84545898 106.02148438 C-47.93480795 104.81892841 -50.02510748 103.61802213 -52.11645508 102.41894531 C-53.05690674 101.87318848 -53.9973584 101.32743164 -54.96630859 100.76513672 C-55.7905835 100.28979492 -56.6148584 99.81445312 -57.46411133 99.32470703 C-59.59876295 97.93470132 -61.03659894 96.94988651 -62.59521484 94.93701172 C-62.9828949 92.17347717 -62.9828949 92.17347717 -62.99926758 88.78491211 C-63.01195175 87.51672134 -63.02463593 86.24853058 -63.03770447 84.94190979 C-63.03565295 83.55616086 -63.03266486 82.17041305 -63.02880859 80.78466797 C-63.03336951 79.36363983 -63.03867481 77.9426139 -63.04469299 76.52159119 C-63.05362903 73.54319296 -63.0511959 70.56506278 -63.04125977 67.58666992 C-63.02977325 63.77202806 -63.04997277 59.95831232 -63.0791769 56.14379215 C-63.09753508 53.20891961 -63.09724725 50.27426912 -63.09153938 47.33935356 C-63.0913861 45.93314757 -63.09743665 44.5269266 -63.10983086 43.12077522 C-63.12472746 41.15340379 -63.11144064 39.18588013 -63.09692383 37.21850586 C-63.09675766 36.0994838 -63.09659149 34.98046173 -63.09642029 33.82752991 C-62.48010999 30.27318677 -61.37117275 29.16333676 -58.59521484 26.93701172 C-56.76846649 25.79103067 -54.89867784 24.71212877 -53.00146484 23.68701172 C-51.89738281 23.0838916 -50.79330078 22.48077148 -49.65576172 21.859375 C-49.07431396 21.54550842 -48.49286621 21.23164185 -47.89379883 20.90826416 C-44.84844798 19.26374577 -41.81516034 17.59736635 -38.78271484 15.92919922 C-38.17431763 15.59483856 -37.56592041 15.26047791 -36.93908691 14.91598511 C-30.38646086 11.2980104 -23.9794314 7.44668344 -17.60107422 3.53076172 C-16.84632812 3.06927734 -16.09158203 2.60779297 -15.31396484 2.13232422 C-14.66363281 1.73029785 -14.01330078 1.32827148 -13.34326172 0.9140625 C-8.93036661 -1.55247468 -4.67704803 -1.91569775 0 0 Z " fill="#009639" transform="translate(62.59521484375,1.06298828125)"/>
<path d="M0 0 C5.27540094 1.86190621 7.10734506 4.33442751 10 9 C11.65942354 10.67387845 13.32742113 12.33926659 15 14 C17.063863 16.27599085 19.06496254 18.60327069 21.0625 20.9375 C21.8369043 21.82985352 21.8369043 21.82985352 22.62695312 22.74023438 C25.01684366 25.52590296 27.25540906 28.29200926 29.24609375 31.37890625 C30.73711931 34.07466253 30.73711931 34.07466253 33 35 C33.0093457 34.11739502 33.01869141 33.23479004 33.02832031 32.32543945 C33.07246114 29.03543328 33.13412676 25.74670926 33.20751953 22.45727539 C33.23566014 21.03649808 33.25690908 19.61556622 33.27099609 18.19458008 C33.29252394 16.14584641 33.33921514 14.098957 33.390625 12.05078125 C33.41157227 10.82012939 33.43251953 9.58947754 33.45410156 8.3215332 C34.09388946 4.42872716 35.18920036 2.72889765 38 0 C41.0625 -0.5 41.0625 -0.5 44 0 C46.20320138 1.62891064 46.91602136 2.51504126 47.38768005 5.23876953 C47.39308304 6.11130371 47.39848602 6.98383789 47.40405273 7.8828125 C47.41673691 8.87394043 47.42942108 9.86506836 47.44248962 10.88623047 C47.43955399 11.95502441 47.43661835 13.02381836 47.43359375 14.125 C47.4388356 15.22344238 47.44407745 16.32188477 47.44947815 17.45361328 C47.45590429 19.77700962 47.45455374 22.10043848 47.44604492 24.42382812 C47.43753282 27.98626372 47.46629358 31.54709784 47.49804688 35.109375 C47.49965882 37.36458285 47.49908148 39.61979355 47.49609375 41.875 C47.51294472 43.47819092 47.51294472 43.47819092 47.53013611 45.11376953 C47.51606468 46.60046143 47.51606468 46.60046143 47.50170898 48.1171875 C47.50154282 48.98972168 47.50137665 49.86225586 47.50120544 50.76123047 C47 53 47 53 45.17958069 54.77783203 C41.93233715 56.59867632 39.66571829 56.44241428 36 56 C29.89934111 53.21491659 26.41417374 47.80726673 22.33300781 42.65185547 C19.87444813 39.60522272 17.30774234 36.65088244 14.75 33.6875 C11.12860428 29.48866077 7.53895958 25.26870854 4 21 C3.9906543 21.88260498 3.98130859 22.76520996 3.97167969 23.67456055 C3.92753886 26.96456672 3.86587324 30.25329074 3.79248047 33.54272461 C3.76433986 34.96350192 3.74309092 36.38443378 3.72900391 37.80541992 C3.70747606 39.85415359 3.66078486 41.901043 3.609375 43.94921875 C3.58842773 45.17987061 3.56748047 46.41052246 3.54589844 47.6784668 C2.90602907 51.57176855 1.80831219 53.26842287 -1 56 C-4.0625 56.5625 -4.0625 56.5625 -7 56 C-9.78095584 53.1029174 -10.37708982 51.05811225 -10.38818359 47.09545898 C-10.40236832 45.63891151 -10.40236832 45.63891151 -10.4168396 44.15293884 C-10.41076691 43.11117996 -10.40469421 42.06942108 -10.3984375 40.99609375 C-10.40130768 39.92126236 -10.40417786 38.84643097 -10.40713501 37.73902893 C-10.4091752 35.46867343 -10.4036485 33.19830033 -10.39111328 30.92797852 C-10.375044 27.44703028 -10.39097225 23.96724046 -10.41015625 20.48632812 C-10.40817412 18.28124743 -10.40433107 16.07616746 -10.3984375 13.87109375 C-10.40451019 12.82731064 -10.41058289 11.78352753 -10.4168396 10.70811462 C-10.40738312 9.74023514 -10.39792664 8.77235565 -10.38818359 7.77514648 C-10.38579681 6.9233934 -10.38341003 6.07164032 -10.38095093 5.19407654 C-9.366354 -0.64946693 -5.12197133 -0.52087844 0 0 Z " fill="#F7FBF9" transform="translate(38,36)"/>
</svg>
