<?xml version="1.0" encoding="UTF-8"?>
<svg version="1.1" xmlns="http://www.w3.org/2000/svg" width="243" height="128">
<path d="M0 0 C1.33783539 -0.00855011 1.33783539 -0.00855011 2.70269775 -0.01727295 C4.58515257 -0.02666574 6.4676234 -0.03323398 8.35009766 -0.03710938 C11.15428583 -0.04670783 13.95770527 -0.0777415 16.76171875 -0.109375 C53.72615001 -0.32643266 93.62305056 8.46077877 121.140625 34.515625 C130.37385384 43.97484196 133.86836707 53.47749821 133.81884766 66.44506836 C133.68443219 72.50301317 132.79267665 77.05897091 129.453125 82.203125 C129.01742187 82.945625 128.58171875 83.688125 128.1328125 84.453125 C114.33825459 106.76563397 86.90489996 117.40093446 62.453125 123.203125 C45.88453131 126.69915012 29.67957369 128.43982397 12.765625 128.453125 C11.99200623 128.45379974 11.21838745 128.45447449 10.42132568 128.45516968 C-26.97504874 128.40358249 -69.19770633 120.94097931 -96.9765625 93.83203125 C-106.75283474 83.55893206 -110.16710929 73.83907604 -109.87109375 59.85546875 C-109.25174807 47.33457419 -102.07362347 39.51856921 -93.546875 31.203125 C-92.97195312 30.61917969 -92.39703125 30.03523438 -91.8046875 29.43359375 C-69.15001876 8.1288146 -30.1206964 0.15455526 0 0 Z " fill="#6281B6" transform="translate(109.546875,-0.203125)"/>
<path d="M0 0 C1.33783539 -0.00855011 1.33783539 -0.00855011 2.70269775 -0.01727295 C4.58515257 -0.02666574 6.4676234 -0.03323398 8.35009766 -0.03710938 C11.15428583 -0.04670783 13.95770527 -0.0777415 16.76171875 -0.109375 C53.72615001 -0.32643266 93.62305056 8.46077877 121.140625 34.515625 C130.37385384 43.97484196 133.86836707 53.47749821 133.81884766 66.44506836 C133.68443219 72.50301317 132.79267665 77.05897091 129.453125 82.203125 C129.01742187 82.945625 128.58171875 83.688125 128.1328125 84.453125 C114.33825459 106.76563397 86.90489996 117.40093446 62.453125 123.203125 C45.88453131 126.69915012 29.67957369 128.43982397 12.765625 128.453125 C11.99200623 128.45379974 11.21838745 128.45447449 10.42132568 128.45516968 C-26.97504874 128.40358249 -69.19770633 120.94097931 -96.9765625 93.83203125 C-106.75283474 83.55893206 -110.16710929 73.83907604 -109.87109375 59.85546875 C-109.25174807 47.33457419 -102.07362347 39.51856921 -93.546875 31.203125 C-92.97195312 30.61917969 -92.39703125 30.03523438 -91.8046875 29.43359375 C-69.15001876 8.1288146 -30.1206964 0.15455526 0 0 Z M-92.546875 36.203125 C-92.546875 36.863125 -92.546875 37.523125 -92.546875 38.203125 C-93.206875 38.203125 -93.866875 38.203125 -94.546875 38.203125 C-101.26575594 46.24866396 -105.97638251 55.00684815 -105.33984375 65.671875 C-104.62719107 70.81687969 -103.61398773 75.42677516 -101.546875 80.203125 C-100.886875 80.203125 -100.226875 80.203125 -99.546875 80.203125 C-99.29550781 80.93015625 -99.04414062 81.6571875 -98.78515625 82.40625 C-93.04308422 95.375725 -77.34428689 104.32163668 -64.6875 109.3359375 C-48.07918037 115.53481736 -31.40430438 119.90213162 -13.78662109 121.93701172 C-11.77118861 122.17647339 -9.76185647 122.4660062 -7.75390625 122.76171875 C30.55255164 127.50533115 78.77108223 119.95762689 110.12109375 96.0625 C111.27544922 95.14210937 111.27544922 95.14210937 112.453125 94.203125 C113.30261719 93.56503906 114.15210938 92.92695312 115.02734375 92.26953125 C122.63060735 85.79267707 127.64399027 76.16501074 128.6484375 66.28125 C129.19079648 56.08490109 124.916263 47.79160938 118.453125 40.203125 C117.70417969 39.23761719 116.95523438 38.27210937 116.18359375 37.27734375 C113.41907552 33.97343249 110.29882494 31.66618744 106.703125 29.328125 C105.72520996 28.68858887 105.72520996 28.68858887 104.72753906 28.03613281 C53.37827825 -4.67615163 -46.89326235 -10.4365268 -92.546875 36.203125 Z " fill="#526076" transform="translate(109.546875,-0.203125)"/>
<path d="M0 0 C1.06812172 -0.00855011 1.06812172 -0.00855011 2.15782166 -0.01727295 C3.67184965 -0.02674228 5.18589844 -0.03326457 6.69995117 -0.03710938 C8.99370723 -0.04673386 11.28653577 -0.07770239 13.58007812 -0.109375 C29.8522448 -0.23054396 29.8522448 -0.23054396 36.0234375 4.921875 C36.70599609 5.80359375 36.70599609 5.80359375 37.40234375 6.703125 C37.87542969 7.2909375 38.34851563 7.87875 38.8359375 8.484375 C42.0438207 13.36834942 41.4097192 19.12321805 40.609375 24.6640625 C38.87113612 32.06032728 34.64609985 37.26487209 28.96484375 42.203125 C21.44689673 46.57402443 14.53027092 47.49624371 6.02734375 47.328125 C5.15271484 47.31910156 4.27808594 47.31007812 3.37695312 47.30078125 C1.23946311 47.2774207 -0.89788411 47.24155747 -3.03515625 47.203125 C-3.08414063 47.85539062 -3.133125 48.50765625 -3.18359375 49.1796875 C-3.25835937 50.05367187 -3.333125 50.92765625 -3.41015625 51.828125 C-3.47976562 52.68664062 -3.549375 53.54515625 -3.62109375 54.4296875 C-4.03515625 57.203125 -4.03515625 57.203125 -6.03515625 63.203125 C-10.65515625 63.203125 -15.27515625 63.203125 -20.03515625 63.203125 C-19.78121094 61.88441406 -19.52726562 60.56570312 -19.265625 59.20703125 C-17.64838992 50.77797356 -16.04317913 42.35096957 -14.59765625 33.890625 C-13.34462644 26.63234044 -11.89688721 19.41687746 -10.41015625 12.203125 C-10.19174072 11.13280029 -9.9733252 10.06247559 -9.74829102 8.9597168 C-9.54131592 7.9675415 -9.33434082 6.97536621 -9.12109375 5.953125 C-8.93595215 5.06109375 -8.75081055 4.1690625 -8.56005859 3.25 C-7.43145064 -1.15104607 -3.85490273 0.02368914 0 0 Z " fill="#050509" transform="translate(57.03515625,35.796875)"/>
<path d="M0 0 C4.6589553 -0.09982927 9.31727078 -0.17191433 13.97705078 -0.21972656 C15.55789045 -0.23968422 17.13865783 -0.2668606 18.71923828 -0.30175781 C36.68542127 -0.68812734 36.68542127 -0.68812734 44 4 C48.27181482 9.10533966 49.43648968 13.60836982 49.33203125 20.11328125 C48.30626768 29.03139045 44.28297781 35.88916616 37.33203125 41.4453125 C29.58721826 46.60852116 21.21589517 47.1435035 12.0625 47.0625 C11.37865234 47.05798828 10.69480469 47.05347656 9.99023438 47.04882812 C8.32678396 47.0371956 6.6633795 47.01926694 5 47 C4.80083984 48.22976562 4.80083984 48.22976562 4.59765625 49.484375 C4.42105469 50.56203125 4.24445313 51.6396875 4.0625 52.75 C3.88847656 53.81734375 3.71445313 54.8846875 3.53515625 55.984375 C3.11687197 58.34142219 2.58059975 60.677601 2 63 C-2.62 63 -7.24 63 -12 63 C-11.39632187 59.3779312 -10.78486026 55.77627298 -10.09765625 52.171875 C-9.92943359 51.28886719 -9.76121094 50.40585938 -9.58789062 49.49609375 C-9.41451172 48.58988281 -9.24113281 47.68367188 -9.0625 46.75 C-8.89298828 45.85925781 -8.72347656 44.96851563 -8.54882812 44.05078125 C-7.72925827 39.75660917 -6.89704438 35.46557451 -6.03515625 31.1796875 C-4.77692946 24.91882018 -3.57760902 18.64674587 -2.375 12.375 C-2.14554688 11.18003906 -1.91609375 9.98507813 -1.6796875 8.75390625 C-1.11945005 5.83600289 -0.55956146 2.91803306 0 0 Z " fill="#040408" transform="translate(158,36)"/>
<path d="M0 0 C4.62 0 9.24 0 14 0 C12.06640625 12.890625 12.06640625 12.890625 11 17 C11.6297876 16.98428955 12.2595752 16.9685791 12.90844727 16.95239258 C15.79303825 16.88959768 18.67748486 16.85086942 21.5625 16.8125 C22.55314453 16.78736328 23.54378906 16.76222656 24.56445312 16.73632812 C30.50328321 16.67713713 34.80839066 17.01046925 40 20 C46.05968943 29.08953414 40.79867007 44.48065381 38.86694336 54.37524414 C37.14829748 62.85170252 37.14829748 62.85170252 36 64 C33.64686445 64.07271741 31.29166332 64.08370868 28.9375 64.0625 C27.00197266 64.04896484 27.00197266 64.04896484 25.02734375 64.03515625 C24.02832031 64.02355469 23.02929688 64.01195313 22 64 C22.87158996 59.06782625 23.75574429 54.14502313 24.80078125 49.24609375 C26.26534287 42.36751287 27.48545001 36.03902513 27 29 C24.88074396 26.88074396 20.3803907 27.58168983 17.4375 27.4375 C16.63119141 27.39431641 15.82488281 27.35113281 14.99414062 27.30664062 C12.99631195 27.20024738 10.9981793 27.09959112 9 27 C8.8860791 27.7125293 8.7721582 28.42505859 8.65478516 29.15917969 C7.39508187 36.89288046 5.93424781 44.57161109 4.375 52.25 C4.14554688 53.38824219 3.91609375 54.52648437 3.6796875 55.69921875 C3.12157897 58.4665069 2.5610478 61.23330627 2 64 C-2.62 64 -7.24 64 -12 64 C-11.35975375 56.24782917 -9.76535375 48.76729624 -8.10357666 41.1854248 C-7.29786551 37.50613727 -6.50717841 33.82364973 -5.71875 30.140625 C-5.56576447 29.42618225 -5.41277893 28.7117395 -5.25515747 27.97564697 C-3.84671931 21.35647851 -2.62019209 14.72115251 -1.5078125 8.046875 C-1.05917192 5.35503155 -0.53519585 2.67597925 0 0 Z " fill="#040408" transform="translate(107,19)"/>
<path d="M0 0 C1.58206057 0.00667536 3.16410534 0.0186375 4.74609375 0.03515625 C5.55240234 0.03966797 6.35871094 0.04417969 7.18945312 0.04882812 C9.18753131 0.06065107 11.18557158 0.07858711 13.18359375 0.09765625 C12.56307592 5.77096217 11.8973889 11.43528127 11.18359375 17.09765625 C12.37855469 17.05125 13.57351562 17.00484375 14.8046875 16.95703125 C32.24080993 16.47707075 32.24080993 16.47707075 38.18359375 21.09765625 C41.26145312 24.71414101 42.37502918 27.50283258 43.18359375 32.09765625 C43.38855469 31.09863281 43.59351563 30.09960938 43.8046875 29.0703125 C44.07410156 27.77996094 44.34351563 26.48960938 44.62109375 25.16015625 C44.88792969 23.87238281 45.15476562 22.58460937 45.4296875 21.2578125 C46.18359375 18.09765625 46.18359375 18.09765625 47.18359375 17.09765625 C49.82903215 16.95924658 52.44642592 16.88447615 55.09375 16.859375 C55.89461533 16.85130325 56.69548065 16.84323151 57.52061462 16.83491516 C59.22294946 16.82105167 60.92531236 16.8103397 62.62768555 16.80249023 C65.21132809 16.7853864 67.79365428 16.74153662 70.37695312 16.69726562 C72.03254269 16.68712918 73.68814313 16.67861606 75.34375 16.671875 C76.49110374 16.64561287 76.49110374 16.64561287 77.66163635 16.61882019 C83.81330077 16.64324173 89.15893496 18.23857448 93.71498108 22.54521179 C98.23049579 27.76255302 99.59887808 31.61128307 99.4296875 38.37890625 C98.59902214 47.55578075 95.07710153 54.70228998 88.2265625 60.85546875 C80.85917856 66.68739409 74.48933479 67.38437662 65.30859375 67.22265625 C63.84679687 67.20912109 63.84679687 67.20912109 62.35546875 67.1953125 C59.96458647 67.17187248 57.57422114 67.13906067 55.18359375 67.09765625 C55.06242188 67.90589844 54.94125 68.71414062 54.81640625 69.546875 C54.56503906 71.14982422 54.56503906 71.14982422 54.30859375 72.78515625 C54.06496094 74.36876953 54.06496094 74.36876953 53.81640625 75.984375 C53.18359375 79.09765625 53.18359375 79.09765625 51.18359375 84.09765625 C45.57359375 84.09765625 39.96359375 84.09765625 34.18359375 84.09765625 C34.93359375 75.47265625 34.93359375 75.47265625 37.18359375 72.09765625 C36.85359375 75.39765625 36.52359375 78.69765625 36.18359375 82.09765625 C40.80359375 82.09765625 45.42359375 82.09765625 50.18359375 82.09765625 C50.36921875 80.36515625 50.36921875 80.36515625 50.55859375 78.59765625 C51.01721295 74.3172104 52.10838329 70.2586333 53.18359375 66.09765625 C53.80814453 66.05278076 54.43269531 66.00790527 55.07617188 65.96166992 C57.94637285 65.74842312 60.81483099 65.51692016 63.68359375 65.28515625 C64.66585937 65.21490234 65.648125 65.14464844 66.66015625 65.07226562 C75.52470348 64.33355336 82.69763826 62.52942233 89.3515625 56.30859375 C94.42369639 50.18742577 97.1093997 42.35927337 96.5859375 34.41796875 C95.87451612 30.31520858 94.86991005 27.31760039 92.18359375 24.09765625 C84.0056799 18.70627461 73.93762529 19.43165924 64.55859375 19.34765625 C62.96611412 19.31944494 61.37366404 19.28951046 59.78125 19.2578125 C55.91541845 19.18456311 52.04993554 19.13461815 48.18359375 19.09765625 C48.04824219 20.40863281 47.91289062 21.71960938 47.7734375 23.0703125 C47.2697967 27.59599868 46.56285507 32.05669391 45.74609375 36.53515625 C45.54487915 37.65071899 45.54487915 37.65071899 45.33959961 38.78881836 C44.95805428 40.89247989 44.57148509 42.99515729 44.18359375 45.09765625 C44.01859375 46.00773437 43.85359375 46.9178125 43.68359375 47.85546875 C42.19801099 55.68130653 40.15526997 63.38323375 38.18359375 71.09765625 C37.85359375 71.09765625 37.52359375 71.09765625 37.18359375 71.09765625 C36.85359375 69.44765625 36.52359375 67.79765625 36.18359375 66.09765625 C35.52359375 66.75765625 34.86359375 67.41765625 34.18359375 68.09765625 C31.43873782 68.2427332 28.79878832 68.28418048 26.05859375 68.22265625 C25.30449219 68.21363281 24.55039063 68.20460938 23.7734375 68.1953125 C21.91002121 68.17172495 20.04676782 68.13585344 18.18359375 68.09765625 C17.60408239 59.16888868 19.38893932 50.78203281 21.18359375 42.09765625 C21.58019807 40.097809 21.97617181 38.09783641 22.37109375 36.09765625 C22.63921875 34.77765625 22.90734375 33.45765625 23.18359375 32.09765625 C17.90359375 31.76765625 12.62359375 31.43765625 7.18359375 31.09765625 C7.18359375 33.40765625 7.18359375 35.71765625 7.18359375 38.09765625 C6.81964262 40.43883708 6.39109612 42.77068175 5.90625 45.08984375 C5.50696289 47.01183594 5.50696289 47.01183594 5.09960938 48.97265625 C4.8894519 49.95685547 4.8894519 49.95685547 4.67504883 50.9609375 C4.24311545 52.98662392 3.82294369 55.01449908 3.40429688 57.04296875 C1.32159123 66.95965877 1.32159123 66.95965877 0.18359375 68.09765625 C-2.49372005 68.19746839 -5.139448 68.236455 -7.81640625 68.22265625 C-8.94175781 68.22845703 -8.94175781 68.22845703 -10.08984375 68.234375 C-15.68979572 68.22426678 -15.68979572 68.22426678 -16.81640625 67.09765625 C-16.72656324 65.23993463 -16.57028764 63.3851764 -16.37890625 61.53515625 C-16.27707031 60.52324219 -16.17523438 59.51132813 -16.0703125 58.46875 C-15.98652344 57.68628906 -15.90273437 56.90382812 -15.81640625 56.09765625 C-16.38488281 56.64035156 -16.95335937 57.18304688 -17.5390625 57.7421875 C-26.74880769 66.27542386 -34.10321952 68.27210923 -46.75390625 68.16015625 C-47.43775391 68.15564453 -48.12160156 68.15113281 -48.82617188 68.14648438 C-50.48962229 68.13485185 -52.15302675 68.11692319 -53.81640625 68.09765625 C-54.02136719 69.24105469 -54.22632812 70.38445312 -54.4375 71.5625 C-54.70942935 73.05342301 -54.98157599 74.54430641 -55.25390625 76.03515625 C-55.38861328 76.78990234 -55.52332031 77.54464844 -55.66210938 78.32226562 C-56.703125 83.984375 -56.703125 83.984375 -57.81640625 85.09765625 C-60.49372005 85.19746839 -63.139448 85.236455 -65.81640625 85.22265625 C-66.94175781 85.22845703 -66.94175781 85.22845703 -68.08984375 85.234375 C-73.68979572 85.22426678 -73.68979572 85.22426678 -74.81640625 84.09765625 C-74.37508031 77.58809864 -73.05149559 71.40259669 -71.63671875 65.04296875 C-70.70951226 60.73134898 -70.01189031 56.38915235 -69.31640625 52.03515625 C-68.29477031 45.66751713 -67.03144525 39.42237173 -65.5078125 33.15234375 C-64.54965381 28.91912287 -63.88642462 24.65462148 -63.24609375 20.36328125 C-62.81640625 18.09765625 -62.81640625 18.09765625 -61.81640625 17.09765625 C-59.36810199 17.00921832 -56.94820026 16.98236873 -54.5 17 C-53.76894547 17.00141495 -53.03789093 17.0028299 -52.28468323 17.00428772 C-49.94104993 17.00990217 -47.59751086 17.02245703 -45.25390625 17.03515625 C-43.66862117 17.04016939 -42.08333459 17.04473262 -40.49804688 17.04882812 C-36.60413015 17.05987628 -32.7102842 17.07715053 -28.81640625 17.09765625 C-28.81640625 17.42765625 -28.81640625 17.75765625 -28.81640625 18.09765625 C-39.37640625 18.09765625 -49.93640625 18.09765625 -60.81640625 18.09765625 C-60.81640625 20.40765625 -60.81640625 22.71765625 -60.81640625 25.09765625 C-61.15466473 27.1677456 -61.55850092 29.22807135 -62.0234375 31.2734375 C-62.27891357 32.42271729 -62.53438965 33.57199707 -62.79760742 34.75610352 C-63.07193604 35.96194092 -63.34626465 37.16777832 -63.62890625 38.41015625 C-65.45388391 46.63559509 -67.21568128 54.83237565 -68.50390625 63.16015625 C-69.50692828 69.63119483 -70.93380605 75.82232224 -72.81640625 82.09765625 C-68.19640625 81.76765625 -63.57640625 81.43765625 -58.81640625 81.09765625 C-57.82640625 76.14765625 -56.83640625 71.19765625 -55.81640625 66.09765625 C-54.56085937 66.06027344 -53.3053125 66.02289063 -52.01171875 65.984375 C-34.34346433 65.48089474 -34.34346433 65.48089474 -19.73046875 56.28515625 C-14.03946657 49.78115375 -12.57767916 42.83917106 -12.6484375 34.390625 C-12.89124635 31.0760018 -13.74734379 28.23802721 -14.81640625 25.09765625 C-14.15640625 25.09765625 -13.49640625 25.09765625 -12.81640625 25.09765625 C-12.15640625 26.08765625 -11.49640625 27.07765625 -10.81640625 28.09765625 C-8.75921982 22.60875075 -7.78278918 17.03203468 -6.75390625 11.28515625 C-6.41240989 9.38217098 -6.06754381 7.47978626 -5.71875 5.578125 C-5.56913818 4.74176514 -5.41952637 3.90540527 -5.26538086 3.04370117 C-4.44903568 -0.49468243 -3.9445829 0.1009361 0 0 Z M-2.81640625 2.09765625 C-4.67894084 10.38593516 -6.28218697 18.66048869 -7.69140625 27.03515625 C-9.25859748 36.3376441 -11.13734471 45.54037433 -13.24169922 54.73608398 C-13.54938232 56.09648804 -13.54938232 56.09648804 -13.86328125 57.484375 C-14.04729492 58.28061279 -14.23130859 59.07685059 -14.42089844 59.8972168 C-14.93434324 62.38119127 -14.93434324 62.38119127 -14.81640625 66.09765625 C-10.19640625 66.09765625 -5.57640625 66.09765625 -0.81640625 66.09765625 C0.18429489 61.31124793 1.18110616 56.52405233 2.17431641 51.73608398 C2.51276484 50.1072806 2.85227644 48.47869775 3.19287109 46.8503418 C3.68215932 44.51017464 4.16762265 42.16924184 4.65234375 39.828125 C4.80546021 39.09990036 4.95857666 38.37167572 5.11633301 37.62138367 C5.71376261 34.72054871 6.18359375 32.06855056 6.18359375 29.09765625 C8.9964808 29.23785317 11.8087626 29.3845358 14.62109375 29.53515625 C15.42353516 29.57447266 16.22597656 29.61378906 17.05273438 29.65429688 C23.0703125 29.984375 23.0703125 29.984375 24.18359375 31.09765625 C24.60253014 38.414081 23.36319638 44.87293054 21.68359375 51.97265625 C21.21220143 54.01110952 20.74333163 56.05014825 20.27734375 58.08984375 C20.06787109 58.9804248 19.85839844 59.87100586 19.64257812 60.78857422 C19.08611409 63.19568573 19.08611409 63.19568573 19.18359375 66.09765625 C21.49603167 66.12451037 23.80855645 66.14398466 26.12109375 66.16015625 C27.40886719 66.17175781 28.69664062 66.18335937 30.0234375 66.1953125 C33.04657778 66.46298174 33.04657778 66.46298174 34.18359375 65.09765625 C39.56176783 45.28389509 39.56176783 45.28389509 39.18359375 25.09765625 C36.60734181 21.76780681 34.1255469 20.41903731 30.18359375 19.09765625 C27.57868666 18.82600094 27.57868666 18.82600094 24.8828125 18.90234375 C23.90634766 18.90878906 22.92988281 18.91523437 21.92382812 18.921875 C20.41272461 18.94701172 20.41272461 18.94701172 18.87109375 18.97265625 C17.33098633 18.98619141 17.33098633 18.98619141 15.75976562 19 C13.23413476 19.02349424 10.70898565 19.05634494 8.18359375 19.09765625 C8.40015625 18.12183594 8.61671875 17.14601563 8.83984375 16.140625 C9.11828125 14.86832031 9.39671875 13.59601562 9.68359375 12.28515625 C9.96203125 11.02058594 10.24046875 9.75601562 10.52734375 8.453125 C11.27956367 5.17679291 11.27956367 5.17679291 11.18359375 2.09765625 C6.56359375 2.09765625 1.94359375 2.09765625 -2.81640625 2.09765625 Z " fill="#E8EBF1" transform="translate(109.81640625,16.90234375)"/>
<path d="M0 0 C-0.14507078 1.33341652 -0.2911103 2.66672764 -0.4375 4 C-0.51871094 4.7425 -0.59992188 5.485 -0.68359375 6.25 C-1.09627702 9.83677802 -1.54844379 13.41790702 -2 17 C-0.80503906 16.95359375 0.38992187 16.9071875 1.62109375 16.859375 C19.05721618 16.3794145 19.05721618 16.3794145 25 21 C28.07785937 24.61648476 29.19143543 27.40517633 30 32 C30.20496094 31.00097656 30.40992188 30.00195312 30.62109375 28.97265625 C30.89050781 27.68230469 31.15992188 26.39195313 31.4375 25.0625 C31.70433594 23.77472656 31.97117188 22.48695312 32.24609375 21.16015625 C33 18 33 18 34 17 C36.6454384 16.86159033 39.26283217 16.7868199 41.91015625 16.76171875 C42.71102158 16.753647 43.5118869 16.74557526 44.33702087 16.73725891 C46.03935571 16.72339542 47.74171861 16.71268345 49.4440918 16.70483398 C52.02773434 16.68773015 54.61006053 16.64388037 57.19335938 16.59960938 C58.84894894 16.58947293 60.50454938 16.58095981 62.16015625 16.57421875 C62.92505875 16.55671066 63.68996124 16.53920258 64.4780426 16.52116394 C70.62970702 16.54558548 75.97534121 18.14091823 80.53138733 22.44755554 C85.04690204 27.66489677 86.41528433 31.51362682 86.24609375 38.28125 C85.41542839 47.4581245 81.89350778 54.60463373 75.04296875 60.7578125 C67.67558481 66.58973784 61.30574104 67.28672037 52.125 67.125 C50.66320312 67.11146484 50.66320312 67.11146484 49.171875 67.09765625 C46.78099272 67.07421623 44.39062739 67.04140442 42 67 C41.81824219 68.21236328 41.81824219 68.21236328 41.6328125 69.44921875 C41.46523437 70.51785156 41.29765625 71.58648437 41.125 72.6875 C40.96257812 73.74324219 40.80015625 74.79898438 40.6328125 75.88671875 C40 79 40 79 38 84 C32.39 84 26.78 84 21 84 C21.75 75.375 21.75 75.375 24 72 C23.67 75.3 23.34 78.6 23 82 C27.62 82 32.24 82 37 82 C37.185625 80.2675 37.185625 80.2675 37.375 78.5 C37.8336192 74.21955415 38.92478954 70.16097705 40 66 C40.93682617 65.93268677 40.93682617 65.93268677 41.89257812 65.86401367 C44.7627791 65.65076687 47.63123724 65.41926391 50.5 65.1875 C51.48226562 65.11724609 52.46453125 65.04699219 53.4765625 64.97460938 C62.34110973 64.23589711 69.51404451 62.43176608 76.16796875 56.2109375 C81.24010264 50.08976952 83.92580595 42.26161712 83.40234375 34.3203125 C82.69092237 30.21755233 81.6863163 27.21994414 79 24 C70.82208615 18.60861836 60.75403154 19.33400299 51.375 19.25 C49.78252037 19.22178869 48.19007029 19.19185421 46.59765625 19.16015625 C42.7318247 19.08690686 38.86634179 19.0369619 35 19 C34.79697266 20.96646484 34.79697266 20.96646484 34.58984375 22.97265625 C34.08620295 27.49834243 33.37926132 31.95903766 32.5625 36.4375 C32.42835693 37.1812085 32.29421387 37.92491699 32.15600586 38.69116211 C31.77446053 40.79482364 31.38789134 42.89750104 31 45 C30.835 45.91007812 30.67 46.82015625 30.5 47.7578125 C29.01441724 55.58365028 26.97167622 63.2855775 25 71 C24.67 71 24.34 71 24 71 C23.814375 69.88625 23.814375 69.88625 23.625 68.75 C23.14361909 66.0556902 23.14361909 66.0556902 21.94921875 64.0703125 C19.5605595 58.86047957 22.30831106 51.6338445 23.5625 46.3125 C25.29403148 38.54172458 26.56637239 29.69911718 24 22 C18.03066103 19.59261227 11.93168019 19.57390738 5.5625 19.375 C4.54478516 19.33632813 3.52707031 19.29765625 2.47851562 19.2578125 C-0.01414936 19.16419128 -2.5068195 19.07846007 -5 19 C-4.41302543 13.1484244 -3.5485193 7.67790408 -2 2 C-6.29 2 -10.58 2 -15 2 C-15 1.67 -15 1.34 -15 1 C-12.68753088 0.83290546 -10.37502385 0.66633538 -8.0625 0.5 C-6.77472656 0.4071875 -5.48695312 0.314375 -4.16015625 0.21875 C-1 0 -1 0 0 0 Z " fill="#6886B9" transform="translate(123,17)"/>
<path d="M0 0 C2.75026417 -0.05404449 5.49946203 -0.09369306 8.25 -0.125 C9.02730469 -0.14175781 9.80460938 -0.15851562 10.60546875 -0.17578125 C17.96292928 -0.23866553 17.96292928 -0.23866553 21 2 C22.99387501 5.98775003 22.51410673 10.66514551 22 15 C20.32572729 19.43104933 18.32017152 22.16146082 14.3125 24.70703125 C10.47599262 26.2045359 7.16965323 26.34035027 3.125 26.1875 C2.43664062 26.17396484 1.74828125 26.16042969 1.0390625 26.14648438 C-0.64097001 26.1114837 -2.3205935 26.05768954 -4 26 C-4.22615016 19.83740819 -3.44149898 14.48027281 -2 8.5 C-1.71382812 7.26636719 -1.71382812 7.26636719 -1.421875 6.0078125 C-0.95572696 4.00337593 -0.47897024 2.00141137 0 0 Z " fill="#6282B6" transform="translate(170,46)"/>
<path d="M0 0 C2.75026417 -0.05404449 5.49946203 -0.09369306 8.25 -0.125 C9.02730469 -0.14175781 9.80460937 -0.15851562 10.60546875 -0.17578125 C17.96292928 -0.23866553 17.96292928 -0.23866553 21 2 C23.3123649 6.62472981 22.39491805 12.54736542 20.8125 17.3125 C19.29042085 20.93374992 17.36785965 22.89508772 14 25 C10.38132441 26.2062252 7.07493749 26.10816918 3.3125 26.0625 C2.61060547 26.05798828 1.90871094 26.05347656 1.18554688 26.04882812 C-0.54300538 26.03706927 -2.27151365 26.01913454 -4 26 C-4.25668426 20.08824064 -3.2956568 14.81854288 -2 9.0625 C-1.80921875 8.18787109 -1.6184375 7.31324219 -1.421875 6.41210938 C-0.95436066 4.27323127 -0.48028183 2.13604065 0 0 Z " fill="#6382B7" transform="translate(61,46)"/>
<path d="M0 0 C1.39120471 0.00015906 2.78241534 0.00585033 4.17358398 0.01586914 C4.90463852 0.01728409 5.63569305 0.01869904 6.38890076 0.02015686 C8.73253406 0.02577131 11.07607313 0.03832617 13.41967773 0.05102539 C15.00496282 0.05603853 16.59024939 0.06060176 18.17553711 0.06469727 C22.06945383 0.07574542 25.96329979 0.09301967 29.85717773 0.11352539 C29.85717773 0.44352539 29.85717773 0.77352539 29.85717773 1.11352539 C19.29717773 1.11352539 8.73717773 1.11352539 -2.14282227 1.11352539 C-2.14282227 3.42352539 -2.14282227 5.73352539 -2.14282227 8.11352539 C-2.48108074 10.18361474 -2.88491694 12.24394049 -3.34985352 14.28930664 C-3.73306763 16.01322632 -3.73306763 16.01322632 -4.12402344 17.77197266 C-4.39835205 18.97781006 -4.67268066 20.18364746 -4.95532227 21.42602539 C-6.78029993 29.65146423 -8.54209729 37.84824479 -9.83032227 46.17602539 C-10.83334429 52.64706397 -12.26022206 58.83819139 -14.14282227 65.11352539 C-9.52282227 64.78352539 -4.90282227 64.45352539 -0.14282227 64.11352539 C0.84717773 59.16352539 1.83717773 54.21352539 2.85717773 49.11352539 C8.46717773 49.44352539 14.07717773 49.77352539 19.85717773 50.11352539 C19.85717773 50.44352539 19.85717773 50.77352539 19.85717773 51.11352539 C14.90717773 51.11352539 9.95717773 51.11352539 4.85717773 51.11352539 C4.6522168 52.25692383 4.44725586 53.40032227 4.23608398 54.57836914 C3.96415463 56.06929216 3.69200799 57.56017555 3.41967773 59.05102539 C3.2849707 59.80577148 3.15026367 60.56051758 3.01147461 61.33813477 C1.97045898 67.00024414 1.97045898 67.00024414 0.85717773 68.11352539 C-1.82013606 68.21333753 -4.46586401 68.25232414 -7.14282227 68.23852539 C-8.26817383 68.24432617 -8.26817383 68.24432617 -9.41625977 68.25024414 C-15.01621173 68.24013592 -15.01621173 68.24013592 -16.14282227 67.11352539 C-15.70149633 60.60396778 -14.37791161 54.41846583 -12.96313477 48.05883789 C-12.03592828 43.74721812 -11.33830632 39.40502149 -10.64282227 35.05102539 C-9.62118632 28.68338627 -8.35786127 22.43824087 -6.83422852 16.16821289 C-5.87606983 11.93499201 -5.21284064 7.67049063 -4.57250977 3.37915039 C-3.90914239 -0.11860484 -3.70354626 0.13377993 0 0 Z " fill="#E8E9EC" transform="translate(51.142822265625,33.886474609375)"/>
<path d="M0 0 C6.03246142 0.71815017 10.72191684 2.259726 14.75 6.9375 C19.04152831 12.77874687 19.6485715 16.83482914 19 24 C17.19365949 34.07907643 12.22414905 40.73282216 4.125 46.7734375 C-2.08790571 50.35956322 -7.90367811 50.24780106 -14.875 50.125 C-15.84953125 50.11597656 -16.8240625 50.10695312 -17.828125 50.09765625 C-20.21900728 50.07421623 -22.60937261 50.04140442 -25 50 C-25.12117188 50.80824219 -25.24234375 51.61648437 -25.3671875 52.44921875 C-25.53476563 53.51785156 -25.70234375 54.58648437 -25.875 55.6875 C-26.03742188 56.74324219 -26.19984375 57.79898438 -26.3671875 58.88671875 C-27 62 -27 62 -29 67 C-34.61 67 -40.22 67 -46 67 C-45.25 58.375 -45.25 58.375 -43 55 C-43.33 58.3 -43.66 61.6 -44 65 C-39.38 65 -34.76 65 -30 65 C-29.87625 63.845 -29.7525 62.69 -29.625 61.5 C-29.1663808 57.21955415 -28.07521046 53.16097705 -27 49 C-26.06317383 48.93268677 -26.06317383 48.93268677 -25.10742188 48.86401367 C-22.2372209 48.65076687 -19.36876276 48.41926391 -16.5 48.1875 C-15.51773438 48.11724609 -14.53546875 48.04699219 -13.5234375 47.97460938 C-4.65889027 47.23589711 2.51404451 45.43176608 9.16796875 39.2109375 C14.23549445 33.09533079 16.94236265 25.25359146 16.39453125 17.31640625 C15.6962418 13.21654839 14.9349789 10.06406362 12 7 C8.13512343 4.88768049 4.18101031 3.36737444 0 2 C0 1.34 0 0.68 0 0 Z " fill="#DFE2E6" transform="translate(190,34)"/>
<path d="M0 0 C2.79192205 -0.05380578 5.5828141 -0.09357669 8.375 -0.125 C9.1690625 -0.14175781 9.963125 -0.15851562 10.78125 -0.17578125 C12.85492015 -0.19335473 14.92883241 -0.10335168 17 0 C19 2 19 2 19.27734375 5.8828125 C19.14559928 11.70521859 17.87465047 17.2215473 16.5625 22.875 C16.33240234 23.90625 16.10230469 24.9375 15.86523438 26 C14.19625566 33.41123302 14.19625566 33.41123302 13 37 C15.29239061 36.91321237 17.5839807 36.80504727 19.875 36.6875 C21.15117187 36.62949219 22.42734375 36.57148437 23.7421875 36.51171875 C25.35480469 36.25841797 25.35480469 36.25841797 27 36 C27.66 35.01 28.32 34.02 29 33 C29.042721 34.66611905 29.04063832 36.33382885 29 38 C28 39 28 39 24.40234375 39.09765625 C22.91403133 39.0909822 21.42573568 39.07902183 19.9375 39.0625 C18.79958008 39.05573242 18.79958008 39.05573242 17.63867188 39.04882812 C15.75908129 39.0370068 13.87953101 39.01907078 12 39 C11.42048864 30.07123243 13.20534557 21.68437656 15 13 C15.39660432 11.00015275 15.79257806 9.00018016 16.1875 7 C16.455625 5.68 16.72375 4.36 17 3 C11.72 2.67 6.44 2.34 1 2 C1 4.31 1 6.62 1 9 C0.62504582 11.35326961 0.18467583 13.69683207 -0.3125 16.02734375 C-0.58320312 17.31318359 -0.85390625 18.59902344 -1.1328125 19.92382812 C-1.42172149 21.26175191 -1.7107859 22.59964214 -2 23.9375 C-2.28970851 25.30259743 -2.57877693 26.66783088 -2.8671875 28.03320312 C-3.57184951 31.35685894 -4.28297529 34.67899327 -5 38 C-5.66 37.34 -6.32 36.68 -7 36 C-6.61542762 28.15308699 -4.68739869 20.57452884 -2.9375 12.9375 C-2.65583984 11.69033203 -2.37417969 10.44316406 -2.08398438 9.15820312 C-1.39367318 6.10445361 -0.69891018 3.0517908 0 0 Z " fill="#E6E7E9" transform="translate(116,46)"/>
<path d="M0 0 C-0.14507078 1.33341652 -0.2911103 2.66672764 -0.4375 4 C-0.51871094 4.7425 -0.59992188 5.485 -0.68359375 6.25 C-1.09627702 9.83677802 -1.54844379 13.41790702 -2 17 C-0.80503906 16.95359375 0.38992187 16.9071875 1.62109375 16.859375 C19.46792213 16.37003555 19.46792213 16.37003555 25 21 C29.3224753 26.82985122 28.81508712 33.05361538 28 40 C26.64436344 48.06157126 24.844727 56.03823676 23 64 C22.34 63.34 21.68 62.68 21 62 C21.27073222 56.58535553 22.31785083 51.58151482 23.5625 46.3125 C25.29403148 38.54172458 26.56637239 29.69911718 24 22 C18.03066103 19.59261227 11.93168019 19.57390738 5.5625 19.375 C4.54478516 19.33632813 3.52707031 19.29765625 2.47851562 19.2578125 C-0.01414936 19.16419128 -2.5068195 19.07846007 -5 19 C-4.41302543 13.1484244 -3.5485193 7.67790408 -2 2 C-6.29 2 -10.58 2 -15 2 C-15 1.67 -15 1.34 -15 1 C-12.68753088 0.83290546 -10.37502385 0.66633538 -8.0625 0.5 C-6.77472656 0.4071875 -5.48695312 0.314375 -4.16015625 0.21875 C-1 0 -1 0 0 0 Z " fill="#CCCDD1" transform="translate(123,17)"/>
<path d="M0 0 C2.75026417 -0.05404449 5.49946203 -0.09369306 8.25 -0.125 C9.02730469 -0.14175781 9.80460938 -0.15851562 10.60546875 -0.17578125 C17.96292928 -0.23866553 17.96292928 -0.23866553 21 2 C22.99387501 5.98775003 22.51410673 10.66514551 22 15 C20.32572729 19.43104933 18.32017152 22.16146082 14.3125 24.70703125 C10.47599262 26.2045359 7.16965323 26.34035027 3.125 26.1875 C2.43664062 26.17396484 1.74828125 26.16042969 1.0390625 26.14648438 C-0.64097001 26.1114837 -2.3205935 26.05768954 -4 26 C-4.22615016 19.83740819 -3.44149898 14.48027281 -2 8.5 C-1.71382812 7.26636719 -1.71382812 7.26636719 -1.421875 6.0078125 C-0.95572696 4.00337593 -0.47897024 2.00141137 0 0 Z M2 2 C-0.00236413 9.32940833 -1.51298949 16.40935336 -2 24 C0.06183633 24.08150744 2.12461349 24.1394194 4.1875 24.1875 C5.91033203 24.23970703 5.91033203 24.23970703 7.66796875 24.29296875 C12.60012782 23.85930881 15.0483076 22.05457806 18.3125 18.4375 C20.49590623 13.98982065 20.93348867 9.88609837 20 5 C19.05330861 3.06240819 19.05330861 3.06240819 17 2 C14.35003674 1.7827899 11.94923442 1.71648446 9.3125 1.8125 C8.61060547 1.82603516 7.90871094 1.83957031 7.18554688 1.85351562 C5.45670171 1.88879818 3.72825235 1.94260417 2 2 Z " fill="#D6DBE3" transform="translate(170,46)"/>
<path d="M0 0 C2.75026417 -0.05404449 5.49946203 -0.09369306 8.25 -0.125 C9.02730469 -0.14175781 9.80460937 -0.15851562 10.60546875 -0.17578125 C17.96292928 -0.23866553 17.96292928 -0.23866553 21 2 C23.3123649 6.62472981 22.39491805 12.54736542 20.8125 17.3125 C19.29042085 20.93374992 17.36785965 22.89508772 14 25 C10.38132441 26.2062252 7.07493749 26.10816918 3.3125 26.0625 C2.61060547 26.05798828 1.90871094 26.05347656 1.18554688 26.04882812 C-0.54300538 26.03706927 -2.27151365 26.01913454 -4 26 C-4.25668426 20.08824064 -3.2956568 14.81854288 -2 9.0625 C-1.80921875 8.18787109 -1.6184375 7.31324219 -1.421875 6.41210938 C-0.95436066 4.27323127 -0.48028183 2.13604065 0 0 Z M1 3 C0.62742948 5.13936977 0.30149918 7.28696285 0 9.4375 C-0.89160305 15.78320611 -0.89160305 15.78320611 -2 18 C-2.039992 19.99960012 -2.04346799 22.00047242 -2 24 C0.06183633 24.08150744 2.12461349 24.1394194 4.1875 24.1875 C5.91033203 24.23970703 5.91033203 24.23970703 7.66796875 24.29296875 C12.00969889 23.91122225 14.39947431 22.2575559 17.75 19.625 C20.69544794 15.79591767 20.17241108 10.62077029 20.328125 5.98828125 C20.21984375 5.33214844 20.1115625 4.67601562 20 4 C16.34106495 1.56070997 13.59721667 1.73710327 9.375 1.8125 C8.68148437 1.81314453 7.98796875 1.81378906 7.2734375 1.81445312 C3.84828846 1.54991247 3.84828846 1.54991247 1 3 Z " fill="#E8EBEF" transform="translate(61,46)"/>
<path d="M0 0 C1.48831242 0.00667405 2.97660807 0.01863442 4.46484375 0.03515625 C5.22345703 0.03966797 5.98207031 0.04417969 6.76367188 0.04882812 C8.64326246 0.06064945 10.52281274 0.07858547 12.40234375 0.09765625 C12.40234375 0.42765625 12.40234375 0.75765625 12.40234375 1.09765625 C7.78234375 1.42765625 3.16234375 1.75765625 -1.59765625 2.09765625 C-3.74181363 11.63915659 -5.53252977 21.19315655 -7.15136719 30.83618164 C-8.13356813 36.63724369 -9.27200104 42.36493394 -10.59765625 48.09765625 C-11.58765625 48.09765625 -12.57765625 48.09765625 -13.59765625 48.09765625 C-13.43265625 47.12828125 -13.26765625 46.15890625 -13.09765625 45.16015625 C-12.10881217 38.06627478 -12.28308753 31.89670185 -14.59765625 25.09765625 C-13.93765625 25.09765625 -13.27765625 25.09765625 -12.59765625 25.09765625 C-11.93765625 26.08765625 -11.27765625 27.07765625 -10.59765625 28.09765625 C-8.54046982 22.60875075 -7.56403918 17.03203468 -6.53515625 11.28515625 C-6.19365989 9.38217098 -5.84879381 7.47978626 -5.5 5.578125 C-5.35038818 4.74176514 -5.20077637 3.90540527 -5.04663086 3.04370117 C-4.25182456 -0.40132385 -3.80073767 0.10316877 0 0 Z " fill="#E1E2E5" transform="translate(109.59765625,16.90234375)"/>
<path d="M0 0 C5.61 0.33 11.22 0.66 17 1 C17 1.33 17 1.66 17 2 C12.05 2 7.1 2 2 2 C1.79503906 3.14339844 1.59007813 4.28679687 1.37890625 5.46484375 C1.1069769 6.95576676 0.83483026 8.44665016 0.5625 9.9375 C0.42779297 10.69224609 0.29308594 11.44699219 0.15429688 12.22460938 C-0.88671875 17.88671875 -0.88671875 17.88671875 -2 19 C-4.6773138 19.09981214 -7.32304175 19.13879875 -10 19.125 C-11.12535156 19.13080078 -11.12535156 19.13080078 -12.2734375 19.13671875 C-17.87338947 19.12661053 -17.87338947 19.12661053 -19 18 C-18.94921875 16.07421875 -18.94921875 16.07421875 -18.6875 13.6875 C-18.60886719 12.90761719 -18.53023437 12.12773438 -18.44921875 11.32421875 C-17.98413721 8.91792729 -17.19341444 7.12866168 -16 5 C-14.39919849 9.00200378 -15.70720308 12.04556236 -17 16 C-12.38 15.67 -7.76 15.34 -3 15 C-2.01 10.05 -1.02 5.1 0 0 Z " fill="#DAE1ED" transform="translate(54,83)"/>
<path d="M0 0 C1.39120471 0.00015906 2.78241534 0.00585033 4.17358398 0.01586914 C4.90463852 0.01728409 5.63569305 0.01869904 6.38890076 0.02015686 C8.73253406 0.02577131 11.07607313 0.03832617 13.41967773 0.05102539 C15.00496282 0.05603853 16.59024939 0.06060176 18.17553711 0.06469727 C22.06945383 0.07574542 25.96329979 0.09301967 29.85717773 0.11352539 C29.85717773 0.77352539 29.85717773 1.43352539 29.85717773 2.11352539 C19.29717773 2.11352539 8.73717773 2.11352539 -2.14282227 2.11352539 C-2.47282227 5.08352539 -2.80282227 8.05352539 -3.14282227 11.11352539 C-3.75684553 13.46126139 -4.40500697 15.80170414 -5.14282227 18.11352539 C-5.47282227 18.11352539 -5.80282227 18.11352539 -6.14282227 18.11352539 C-6.35869071 12.17714315 -5.8553166 6.8260065 -4.14282227 1.11352539 C-3.14282227 0.11352539 -3.14282227 0.11352539 0 0 Z " fill="#C7C8C9" transform="translate(160.142822265625,33.886474609375)"/>
<path d="M0 0 C0.66 0.33 1.32 0.66 2 1 C3.03733431 14.09346418 -0.06327815 26.32523347 -3 39 C-3.66 38.34 -4.32 37.68 -5 37 C-4.73026779 31.60535571 -3.70095883 26.57187142 -2.5 21.3125 C-0.90868261 14.19426565 -0.32094995 7.28224358 0 0 Z " fill="#D7DAE0" transform="translate(149,42)"/>
<path d="M0 0 C0.66 0.33 1.32 0.66 2 1 C0.52821565 11.78663007 -1.68722072 22.36795156 -4 33 C-4.66 32.34 -5.32 31.68 -6 31 C-5.61332745 23.97662038 -4.05119296 17.26744416 -2.4375 10.4375 C-2.20353516 9.42880859 -1.96957031 8.42011719 -1.72851562 7.38085938 C-1.15691285 4.91946783 -0.5806646 2.45926653 0 0 Z " fill="#D3D7DD" transform="translate(115,51)"/>
<path d="M0 0 C0.66 0.99 1.32 1.98 2 3 C-2.00886968 3 -3.71873364 1.20983245 -7 -1 C-10.81885868 -2.39729038 -14.81755156 -2.12628405 -18.828125 -2.09765625 C-19.57713074 -2.0962413 -20.32613647 -2.09482635 -21.09783936 -2.09336853 C-23.48193412 -2.08778659 -25.86593378 -2.07523745 -28.25 -2.0625 C-29.86979031 -2.05748266 -31.48958209 -2.05292016 -33.109375 -2.04882812 C-37.07295312 -2.03782308 -41.03646045 -2.02057091 -45 -2 C-45 -2.66 -45 -3.32 -45 -4 C-40.5711372 -4.16870765 -36.142072 -4.32914115 -31.71264648 -4.48217773 C-30.20833433 -4.5352863 -28.70409783 -4.59058774 -27.19995117 -4.64819336 C-25.02799795 -4.73098243 -22.85588773 -4.80567338 -20.68359375 -4.87890625 C-18.72764282 -4.94960327 -18.72764282 -4.94960327 -16.73217773 -5.02172852 C-9.91564122 -4.98204305 -5.42347391 -4.28832821 0 0 Z " fill="#A4A5A9" transform="translate(94,39)"/>
<path d="M0 0 C0.33 0 0.66 0 1 0 C1.39069475 12.11153728 -2.02441745 23.35767218 -5 35 C-5.33 35 -5.66 35 -6 35 C-6.4586265 27.35622501 -4.73797726 20.41380388 -3 13 C-2.71382812 11.74832031 -2.42765625 10.49664062 -2.1328125 9.20703125 C-1.42956012 6.13616252 -0.71843164 3.06734643 0 0 Z " fill="#DEE2E9" transform="translate(153,53)"/>
<path d="M0 0 C0.33 0 0.66 0 1 0 C0.85851011 1.6045556 0.71164314 3.20863767 0.5625 4.8125 C0.48128906 5.70582031 0.40007812 6.59914063 0.31640625 7.51953125 C0 10 0 10 -1 13 C1.29239061 12.91321237 3.5839807 12.80504727 5.875 12.6875 C7.15117187 12.62949219 8.42734375 12.57148437 9.7421875 12.51171875 C10.81726563 12.34285156 11.89234375 12.17398438 13 12 C13.66 11.01 14.32 10.02 15 9 C15.042721 10.66611905 15.04063832 12.33382885 15 14 C14 15 14 15 10.40234375 15.09765625 C8.91403133 15.0909822 7.42573568 15.07902183 5.9375 15.0625 C4.79958008 15.05573242 4.79958008 15.05573242 3.63867188 15.04882812 C1.75908129 15.0370068 -0.12046899 15.01907078 -2 15 C-2.3690205 4.44191344 -2.3690205 4.44191344 0 0 Z " fill="#ECEFF5" transform="translate(130,70)"/>
<path d="M0 0 C1.48831242 0.00667405 2.97660807 0.01863442 4.46484375 0.03515625 C5.22345703 0.03966797 5.98207031 0.04417969 6.76367188 0.04882812 C8.64326246 0.06064945 10.52281274 0.07858547 12.40234375 0.09765625 C12.40234375 0.42765625 12.40234375 0.75765625 12.40234375 1.09765625 C7.78234375 1.42765625 3.16234375 1.75765625 -1.59765625 2.09765625 C-1.86320312 3.31324219 -2.12875 4.52882813 -2.40234375 5.78125 C-2.75867457 7.36598442 -3.11546939 8.95061456 -3.47265625 10.53515625 C-3.64667969 11.33759766 -3.82070312 12.14003906 -4 12.96679688 C-4.46916138 15.02589405 -5.02738384 17.06423968 -5.59765625 19.09765625 C-6.25765625 19.42765625 -6.91765625 19.75765625 -7.59765625 20.09765625 C-7.1251151 16.95079002 -6.64351758 13.80537717 -6.16015625 10.66015625 C-6.02544922 9.76232422 -5.89074219 8.86449219 -5.75195312 7.93945312 C-5.61982422 7.08544922 -5.48769531 6.23144531 -5.3515625 5.3515625 C-5.23111572 4.56080322 -5.11066895 3.77004395 -4.98657227 2.95532227 C-4.27774483 -0.4304078 -3.70250828 0.1005024 0 0 Z " fill="#EFF0F3" transform="translate(109.59765625,16.90234375)"/>
<path d="M0 0 C0.33 0.66 0.66 1.32 1 2 C-0.65278559 6.08846961 -2.17885945 8.7311978 -6 11 C-9.61867559 12.2062252 -12.92506251 12.10816918 -16.6875 12.0625 C-17.38939453 12.05798828 -18.09128906 12.05347656 -18.81445312 12.04882812 C-20.54300538 12.03706927 -22.27151365 12.01913454 -24 12 C-23.67 10.68 -23.34 9.36 -23 8 C-23 8.99 -23 9.98 -23 11 C-20.76914933 10.74340689 -18.54032877 10.46912686 -16.3125 10.1875 C-14.45044922 9.96126953 -14.45044922 9.96126953 -12.55078125 9.73046875 C-7.31994835 8.65437881 -4.81794775 7.1274415 -1.6875 2.8125 C-1.130625 1.884375 -0.57375 0.95625 0 0 Z " fill="#F1F2F5" transform="translate(190,60)"/>
<path d="M0 0 C0.66 0 1.32 0 2 0 C1.86722656 0.65226562 1.73445313 1.30453125 1.59765625 1.9765625 C0.65517178 6.6408287 -0.25768703 11.29868454 -1 16 C1.64 16 4.28 16 7 16 C7 16.33 7 16.66 7 17 C4.03 17 1.06 17 -2 17 C-3.80789124 10.91891127 -1.83657235 5.83137661 0 0 Z " fill="#D2D8E2" transform="translate(60,54)"/>
<path d="M0 0 C1.60080151 4.00200378 0.29279692 7.04556236 -1 11 C3.62 11 8.24 11 13 11 C13 11.33 13 11.66 13 12 C5.08 12.495 5.08 12.495 -3 13 C-2.19642857 3.89285714 -2.19642857 3.89285714 0 0 Z " fill="#BEC0C4" transform="translate(38,88)"/>
<path d="M0 0 C2.56220131 3.84330196 1.91906612 5.23190677 1.125 9.6875 C0.92132813 10.86699219 0.71765625 12.04648438 0.5078125 13.26171875 C0.34023437 14.16535156 0.17265625 15.06898437 0 16 C2.97 16 5.94 16 9 16 C9 16.33 9 16.66 9 17 C5.7 17 2.4 17 -1 17 C-2.32528788 10.90367577 -1.46619907 6.02232181 0 0 Z " fill="#C5CBD4" transform="translate(168,54)"/>
<path d="M0 0 C4.95 0 9.9 0 15 0 C15 0.33 15 0.66 15 1 C10.71 1 6.42 1 2 1 C1.67 4.3 1.34 7.6 1 11 C0.34 11 -0.32 11 -1 11 C-1.125 3.375 -1.125 3.375 0 0 Z " fill="#E6E9ED" transform="translate(170,46)"/>
<path d="M0 0 C0.33 0 0.66 0 1 0 C1.185625 1.1446875 1.185625 1.1446875 1.375 2.3125 C1.88102792 5.20267136 1.88102792 5.20267136 4 8 C4.125 10.6875 4.125 10.6875 4 13 C3.34 13 2.68 13 2 13 C1.34 14.32 0.68 15.64 0 17 C-1.23104155 13.31599416 -0.90767252 10.08525024 -0.5625 6.25 C-0.46066406 5.07953125 -0.35882813 3.9090625 -0.25390625 2.703125 C-0.17011719 1.81109375 -0.08632812 0.9190625 0 0 Z " fill="#899EC1" transform="translate(151,44)"/>
<path d="M0 0 C0.66 0 1.32 0 2 0 C1.71831703 1.95979427 1.42433283 3.91782378 1.125 5.875 C0.96257812 6.96554688 0.80015625 8.05609375 0.6328125 9.1796875 C0 12 0 12 -2 14 C-2.1799928 8.78020872 -1.97094808 4.92737019 0 0 Z " fill="#D6D9E0" transform="translate(156,38)"/>
<path d="M0 0 C-0.33 2.31 -0.66 4.62 -1 7 C-2.65 7.33 -4.3 7.66 -6 8 C-2.8 0 -2.8 0 0 0 Z " fill="#F2F2F4" transform="translate(98,64)"/>
<path d="M0 0 C0.33 0 0.66 0 1 0 C1.2358396 5.77807024 0.86783046 10.51324804 -1 16 C-1.33 16 -1.66 16 -2 16 C-2.20674944 10.21101581 -1.59162079 5.57067277 0 0 Z " fill="#EAEBED" transform="translate(153,53)"/>
<path d="M0 0 C0.33 0 0.66 0 1 0 C0.67 3.3 0.34 6.6 0 10 C-0.99 10 -1.98 10 -3 10 C-2.69201674 8.51988629 -2.378482 7.04092675 -2.0625 5.5625 C-1.88847656 4.73878906 -1.71445313 3.91507813 -1.53515625 3.06640625 C-1 1 -1 1 0 0 Z " fill="#D4D6D9" transform="translate(103,36)"/>
<path d="M0 0 C0.66 0.66 1.32 1.32 2 2 C1.9765625 4.3828125 1.9765625 4.3828125 1.625 7.125 C1.51414063 8.03507812 1.40328125 8.94515625 1.2890625 9.8828125 C1.19367187 10.58148438 1.09828125 11.28015625 1 12 C-1.23551759 8.64672361 -1.17283528 8.09256343 -0.625 4.3125 C-0.51414063 3.50425781 -0.40328125 2.69601563 -0.2890625 1.86328125 C-0.19367187 1.24839844 -0.09828125 0.63351563 0 0 Z " fill="#C9CDD4" transform="translate(47,35)"/>
<path d="M0 0 C3.9492568 0.55105909 7.34920174 1.38935371 11 3 C10.01 3.66 9.02 4.32 8 5 C5.95703125 4.5390625 5.95703125 4.5390625 3.8125 3.625 C3.09707031 3.32851563 2.38164062 3.03203125 1.64453125 2.7265625 C1.10183594 2.48679688 0.55914062 2.24703125 0 2 C0 1.34 0 0.68 0 0 Z " fill="#D5D8DE" transform="translate(190,34)"/>
<path d="M0 0 C2.58464442 4.38008443 1.81479148 7.11125113 1 12 C-1.23551759 8.64672361 -1.17283528 8.09256343 -0.625 4.3125 C-0.51414063 3.50425781 -0.40328125 2.69601563 -0.2890625 1.86328125 C-0.19367188 1.24839844 -0.09828125 0.63351563 0 0 Z " fill="#C3C7D0" transform="translate(150,65)"/>
<path d="M0 0 C-0.66 0.66 -1.32 1.32 -2 2 C-4.3828125 1.9765625 -4.3828125 1.9765625 -7.125 1.625 C-8.03507812 1.51414063 -8.94515625 1.40328125 -9.8828125 1.2890625 C-10.58148438 1.19367187 -11.28015625 1.09828125 -12 1 C-12 0.67 -12 0.34 -12 0 C-7.74433453 -1.16063604 -4.3164922 -0.76173392 0 0 Z " fill="#CACDD3" transform="translate(88,35)"/>
<path d="M0 0 C2.78637633 4.1795645 1.79562512 6.14668677 1 11 C0.34 10.34 -0.32 9.68 -1 9 C-0.9765625 6.8359375 -0.9765625 6.8359375 -0.625 4.375 C-0.51414062 3.55773437 -0.40328125 2.74046875 -0.2890625 1.8984375 C-0.19367188 1.27195312 -0.09828125 0.64546875 0 0 Z " fill="#C1C3C8" transform="translate(110,73)"/>
<path d="M0 0 C2.78637633 4.1795645 1.79562512 6.14668677 1 11 C0.34 10.34 -0.32 9.68 -1 9 C-0.9765625 6.8359375 -0.9765625 6.8359375 -0.625 4.375 C-0.51414063 3.55773437 -0.40328125 2.74046875 -0.2890625 1.8984375 C-0.19367188 1.27195312 -0.09828125 0.64546875 0 0 Z " fill="#C5C8CC" transform="translate(145,70)"/>
</svg>
