<?xml version="1.0" encoding="UTF-8"?>
<svg version="1.1" xmlns="http://www.w3.org/2000/svg" width="129" height="128">
<path d="M0 0 C2.54283234 -0.10871967 5.08095088 -0.18762401 7.625 -0.25 C8.33785156 -0.28351562 9.05070312 -0.31703125 9.78515625 -0.3515625 C15.01276719 -0.44748197 17.82492056 0.59877684 22 4 C30.66730679 13.16258147 30.36030024 24.30548036 30.21875 36.08203125 C29.97615181 44.11961257 28.12346319 50.67101606 23 57 C18.48010718 61.17220876 14.30114815 63.26038355 8.11791992 63.22705078 C6.70702339 63.22682419 6.70702339 63.22682419 5.2676239 63.22659302 C4.2653627 63.21627045 3.2631015 63.20594788 2.23046875 63.1953125 C1.19432938 63.1924826 0.15819 63.18965271 -0.90934753 63.18673706 C-4.21051707 63.17556454 -7.51141281 63.15046505 -10.8125 63.125 C-13.05403253 63.11496643 -15.29556933 63.10584124 -17.53710938 63.09765625 C-23.0248326 63.07563478 -28.51239674 63.04218621 -34 63 C-34 63.99 -34 64.98 -34 66 C-23.77 66 -13.54 66 -3 66 C-2.9175 68.84625 -2.835 71.6925 -2.75 74.625 C-2.71358398 75.51010254 -2.67716797 76.39520508 -2.63964844 77.30712891 C-2.56453564 82.689809 -3.3488617 85.78119356 -7 90 C-16.6615026 97.50981425 -31.43749914 96.84565112 -43 96 C-51.01884356 94.80198302 -58.82211871 92.84562132 -64.15649414 86.39038086 C-66.35736513 82.34277188 -66.56275531 79.05484174 -66.49609375 74.56640625 C-66.49754898 73.77024399 -66.49900421 72.97408173 -66.50050354 72.15379333 C-66.4988504 70.47708461 -66.48735478 68.80035979 -66.46655273 67.1237793 C-66.43762355 64.57339188 -66.44595039 62.02509016 -66.45898438 59.47460938 C-66.45274496 57.83853167 -66.44435244 56.20246048 -66.43359375 54.56640625 C-66.43652939 53.81202774 -66.43946503 53.05764923 -66.44248962 52.28041077 C-66.35241067 47.16100116 -65.36217074 43.56094593 -63 39 C-61.09765625 37.2578125 -61.09765625 37.2578125 -59.0625 36.125 C-58.05896484 35.54105469 -58.05896484 35.54105469 -57.03515625 34.9453125 C-53.69578834 33.39420495 -50.63430253 32.8768087 -46.96923828 32.8581543 C-45.79749557 32.84760262 -45.79749557 32.84760262 -44.6020813 32.83683777 C-43.34885574 32.83059135 -43.34885574 32.83059135 -42.0703125 32.82421875 C-40.28774858 32.80102277 -38.50519645 32.77690552 -36.72265625 32.75195312 C-33.92260808 32.71684819 -31.12299539 32.68749039 -28.32275391 32.67407227 C-25.61307612 32.65855975 -22.90465612 32.61833674 -20.1953125 32.57421875 C-19.36387726 32.57612717 -18.53244202 32.57803558 -17.67581177 32.58000183 C-12.31915703 32.46782399 -9.27029743 31.52079822 -5 28 C-1.70825282 24.25421872 -0.89182386 21.02156251 -0.68359375 16.11328125 C-0.64169922 15.17548828 -0.59980469 14.23769531 -0.55664062 13.27148438 C-0.51732422 12.29501953 -0.47800781 11.31855469 -0.4375 10.3125 C-0.37272461 8.83040039 -0.37272461 8.83040039 -0.30664062 7.31835938 C-0.20058346 4.87904454 -0.09852286 2.43962887 0 0 Z M-20.9375 76.0625 C-22.49954362 78.91093248 -21.74921024 80.93504903 -21 84 C-17.59679066 84.67673447 -17.59679066 84.67673447 -14 85 C-13.34 84.34 -12.68 83.68 -12 83 C-12.32326553 79.40320934 -12.32326553 79.40320934 -13 76 C-17.07700925 74.87562307 -17.07700925 74.87562307 -20.9375 76.0625 Z " fill="#FFD242" transform="translate(99,32)"/>
<path d="M0 0 C3.46495665 2.50392151 5.62215416 4.86646247 7 9 C7.1326922 11.63755481 7.21218176 14.2478592 7.23828125 16.88671875 C7.246353 17.66255814 7.25442474 18.43839752 7.26274109 19.23774719 C7.2765663 20.88105039 7.28729545 22.52438211 7.29516602 24.16772461 C7.30666102 25.83870936 7.32707356 27.5096581 7.35668945 29.18041992 C7.39963076 31.60360491 7.41557297 34.02569917 7.42578125 36.44921875 C7.44328934 37.18597336 7.46079742 37.92272797 7.47883606 38.68180847 C7.45625466 44.16558937 6.35242111 48.57581098 3 53 C-2.16925908 57.75378583 -7.16921637 58.71782329 -13.99609375 58.6015625 C-14.82907486 58.60956879 -15.66205597 58.61757507 -16.52027893 58.62582397 C-19.15985876 58.64872296 -21.79788172 58.63950473 -24.4375 58.625 C-27.07325552 58.62112994 -29.7083286 58.62477882 -32.3440094 58.64559937 C-33.97575413 58.65752106 -35.60769175 58.65530156 -37.23936462 58.63589478 C-43.96319112 58.66848133 -50.60719111 59.60719111 -55.5 64.5 C-57.62099792 68.03499653 -58.13838546 70.80652026 -58.28125 74.8515625 C-58.31863281 75.78484375 -58.35601562 76.718125 -58.39453125 77.6796875 C-58.46512315 79.65103168 -58.53543345 81.62238597 -58.60546875 83.59375 C-58.64285156 84.52445312 -58.68023437 85.45515625 -58.71875 86.4140625 C-58.76418945 87.69724365 -58.76418945 87.69724365 -58.81054688 89.00634766 C-59 91 -59 91 -60 92 C-67.59049792 92.67991244 -74.8235438 92.94409914 -81 88 C-87.67088406 81.39915147 -89.35446337 71.90114875 -89.46801758 62.85546875 C-89.45794678 61.93378906 -89.44787598 61.01210937 -89.4375 60.0625 C-89.43065186 59.09828125 -89.42380371 58.1340625 -89.41674805 57.140625 C-89.22327017 48.57252608 -87.8130796 41.48459907 -82.625 34.5 C-76.44358218 28.61293541 -70.81794158 28.58619739 -62.6953125 28.70703125 C-61.61619598 28.71127609 -60.53707947 28.71552094 -59.42526245 28.71989441 C-55.99158376 28.7366358 -52.55850017 28.77428056 -49.125 28.8125 C-46.79167517 28.82755266 -44.4583411 28.84124005 -42.125 28.85351562 C-36.41646493 28.88652446 -30.70827499 28.93667895 -25 29 C-25 27.68 -25 26.36 -25 25 C-35.23 25 -45.46 25 -56 25 C-56.1546875 20.4521875 -56.1546875 20.4521875 -56.3125 15.8125 C-56.35802002 14.86608643 -56.40354004 13.91967285 -56.45043945 12.94458008 C-56.5220982 8.58911516 -56.45615768 6.60582198 -53.76171875 3.02734375 C-51.35168489 1.25816755 -49.24939182 -0.10764706 -46.5 -1.25 C-45.7678125 -1.56453125 -45.035625 -1.8790625 -44.28125 -2.203125 C-31.61799291 -6.62659152 -11.96659609 -6.2509216 0 0 Z M-47 9 C-47.75 11.5 -47.75 11.5 -47 14 C-44.83928533 16.07976712 -44.83928533 16.07976712 -42 17 C-39.65114735 16.74230225 -39.65114735 16.74230225 -38 15 C-37.18415432 11.94091587 -37.18415432 11.94091587 -37 9 C-41.19144876 5.64684099 -42.9260947 5.06189155 -47 9 Z " fill="#3672A4" transform="translate(89,4)"/>
</svg>
