<?xml version="1.0" encoding="UTF-8"?>
<svg version="1.1" xmlns="http://www.w3.org/2000/svg" width="144" height="128">
<path d="M0 0 C6.67085191 2.95077178 12.97643146 7.1231783 18 12.4375 C21.41953488 10.8947331 24.16239807 8.8513907 27.125 6.5625 C34.82375524 0.94669711 41.81688219 -2.42856872 51.515625 -2.00390625 C55.76579239 -1.24876645 57.21719826 0.09813792 60 3.4375 C62.84949775 9.63294737 63.4400267 14.73088272 63.3125 21.5 C63.31572266 22.35916016 63.31894531 23.21832031 63.32226562 24.10351562 C63.27900152 29.25194445 62.66042645 33.56206457 61 38.4375 C62.8253125 38.7159375 62.8253125 38.7159375 64.6875 39 C74.93804274 41.31568343 84.01243419 46.75552957 90 55.4375 C91.74030393 58.91810786 91.44507315 62.63180205 91 66.4375 C86.38242143 76.05745536 76.50626558 81.53009704 67 85.4375 C65.34427319 85.82150212 63.67904807 86.17351804 62 86.4375 C62.2165625 87.58025391 62.2165625 87.58025391 62.4375 88.74609375 C64.32086296 99.22230019 66.12732176 111.77140727 59.79296875 121.2421875 C56.40496548 124.70184039 53.27794269 126.73480429 48.4375 126.8125 C38.24974886 126.5323737 31.30443501 121.51500621 23.6640625 115.265625 C20.98880734 113.06029316 20.98880734 113.06029316 17 113.4375 C15.39569068 114.52627985 15.39569068 114.52627985 13.9375 116.0625 C6.2627515 123.0561561 -2.20256876 126.84039683 -12.52734375 126.71875 C-17.19297961 126.18806156 -19.85499135 123.82786764 -22.75 120.3125 C-27.26980754 109.91694267 -26.42488359 98.3183879 -24 87.4375 C-25.05058594 87.01339844 -26.10117187 86.58929688 -27.18359375 86.15234375 C-45.98819132 78.37607377 -45.98819132 78.37607377 -51.5625 70.0625 C-53.3372193 65.58712091 -54.0386873 62.17293264 -53 57.4375 C-48.51953214 47.66028472 -37.60147107 42.75527855 -28.09375 39.06640625 C-26 38.4375 -26 38.4375 -23 38.4375 C-23.309375 37.550625 -23.61875 36.66375 -23.9375 35.75 C-26.85485206 25.36086858 -27.22375889 13.66268958 -22.1875 3.9375 C-16.03223986 -3.09708301 -8.45787776 -3.09012227 0 0 Z M-17 8.4375 C-20.03504584 17.4982222 -18.62693644 26.27659633 -17 35.4375 C-10.87782942 37.47822353 -2.88339906 36.00325472 3 33.4375 C7.41603215 30.01604778 10.43102671 25.33559158 13 20.4375 C13.34955882 17.13941504 13.34955882 17.13941504 10.25 14.625 C4.43712454 9.92046185 -2.90454257 5.17171053 -10.5625 4.875 C-14.19986243 5.47020476 -14.86396049 5.63623676 -17 8.4375 Z M24 18.4375 C24.8716226 19.62748121 25.74754599 20.81431214 26.625 22 C27.11226563 22.66128906 27.59953125 23.32257812 28.1015625 24.00390625 C28.72804688 24.80699219 29.35453125 25.61007813 30 26.4375 C30.39687012 27.02200928 30.79374023 27.60651855 31.20263672 28.20874023 C33.99210975 31.98857899 36.06913701 33.83803943 40.7421875 34.77734375 C42.44928632 35.00714551 44.16082312 35.20590574 45.875 35.375 C46.75414063 35.48650391 47.63328125 35.59800781 48.5390625 35.71289062 C50.68947547 35.98169225 52.84446898 36.21341014 55 36.4375 C56.21663403 31.63964483 56.21971645 26.91729072 56.25 22 C56.270625 21.16662109 56.29125 20.33324219 56.3125 19.47460938 C56.34490661 14.35031357 55.80139698 10.90134216 53 6.4375 C51.77463966 5.00436899 51.77463966 5.00436899 48.125 5 C38.47464085 5.12273907 30.61762776 12.02845077 24 18.4375 Z M18 24.4375 C15.03 28.3975 15.03 28.3975 12 32.4375 C16.62 32.4375 21.24 32.4375 26 32.4375 C23.51256905 28.35100629 22.38635744 26.63067872 18 24.4375 Z M5 41.4375 C2.58846405 44.16949486 2.58846405 44.16949486 0.8125 47.5625 C0.17957031 48.65820312 -0.45335937 49.75390625 -1.10546875 50.8828125 C-1.40557861 51.45837891 -1.70568848 52.03394531 -2.01489258 52.62695312 C-3 54.4375 -3 54.4375 -4.2878418 56.32617188 C-5.59428189 58.40160723 -6.46285304 60.03980855 -7 62.4375 C-6.11435063 65.91907016 -4.36753118 68.68356042 -2.4375 71.6875 C-1.96763672 72.47640625 -1.49777344 73.2653125 -1.01367188 74.078125 C2.43844753 80.73968663 2.43844753 80.73968663 7.9453125 85.046875 C8.66460937 85.09328125 9.38390625 85.1396875 10.125 85.1875 C10.92035156 85.24164063 11.71570313 85.29578125 12.53515625 85.3515625 C13.34855469 85.37992188 14.16195312 85.40828125 15 85.4375 C16.14275391 85.48003906 16.14275391 85.48003906 17.30859375 85.5234375 C19.54483329 85.56219382 21.76467239 85.50125266 24 85.4375 C24.69222656 85.47875 25.38445312 85.52 26.09765625 85.5625 C29.57774544 85.5625 31.33693133 85.09775906 33.84375 82.6015625 C35.77969207 79.97785154 37.37147307 77.26151374 39 74.4375 C39.7115625 73.48488281 40.423125 72.53226563 41.15625 71.55078125 C43.47704376 67.95447187 44.58531129 65.72555772 45 61.4375 C42.5136431 53.90808956 37.61222197 46.04972197 32 40.4375 C27.683494 39.453913 23.47933218 39.27440239 19.0625 39.25 C17.31646484 39.22873047 17.31646484 39.22873047 15.53515625 39.20703125 C11.63279785 39.46143915 8.62397762 39.94101042 5 41.4375 Z M42 41.4375 C43.56641751 45.74514815 45.68336156 49.49921464 48 53.4375 C50.83374881 50.23413178 51.5205537 47.65662747 52 43.4375 C48.38026598 42.12123308 45.90432869 41.4375 42 41.4375 Z M-14 42.4375 C-13.44894091 46.3867568 -12.61064629 49.78670174 -11 53.4375 C-8.45868642 51.13466746 -6.92889705 48.76436207 -5.3125 45.75 C-4.87550781 44.94175781 -4.43851563 44.13351563 -3.98828125 43.30078125 C-3.66214844 42.68589844 -3.33601563 42.07101563 -3 41.4375 C-6.79269127 41.38581085 -10.26616906 41.74283378 -14 42.4375 Z M59 44.4375 C57.96108709 46.97304978 56.94392575 49.51407825 55.9375 52.0625 C55.49567383 53.13177734 55.49567383 53.13177734 55.04492188 54.22265625 C52.20629358 61.50290293 53.70294185 66.12694363 56.5625 73.3125 C57.01753906 74.46492188 57.47257812 75.61734375 57.94140625 76.8046875 C58.29074219 77.67351562 58.64007813 78.54234375 59 79.4375 C67.60289318 79.05514919 75.78385765 74.2526009 82 68.4375 C84.36086122 64.89620816 84.57269578 63.60999782 84 59.4375 C80.38674869 54.20595853 76.63905639 51.77457753 70.9375 49.125 C70.23044922 48.77888672 69.52339844 48.43277344 68.79492188 48.07617188 C65.54524922 46.5108366 62.53113793 45.23189631 59 44.4375 Z M-44 56.4375 C-46.41775329 60.06412993 -46.80644357 61.16334905 -46 65.4375 C-40.4346762 73.61411943 -30.50343121 78.43070749 -21 80.4375 C-19.95877722 77.92347515 -18.94224698 75.40357612 -17.9375 72.875 C-17.64294922 72.17052734 -17.34839844 71.46605469 -17.04492188 70.74023438 C-14.11234357 63.25353446 -15.59952318 57.86945516 -18.5625 50.5 C-19.24505859 48.78490234 -19.24505859 48.78490234 -19.94140625 47.03515625 C-20.29074219 46.17792969 -20.64007813 45.32070313 -21 44.4375 C-29.11182929 44.4375 -38.40780405 51.03725586 -44 56.4375 Z M-11 70.4375 C-11.50833591 71.68413331 -12.00631145 72.93499387 -12.5 74.1875 C-12.7784375 74.88359375 -13.056875 75.5796875 -13.34375 76.296875 C-14.19540327 78.70172695 -14.19540327 78.70172695 -14 82.4375 C-10.37 82.7675 -6.74 83.0975 -3 83.4375 C-5.31 79.1475 -7.62 74.8575 -10 70.4375 C-10.33 70.4375 -10.66 70.4375 -11 70.4375 Z M48 70.4375 C46.77115966 72.39126774 45.59191129 74.37635258 44.4375 76.375 C43.79683594 77.47714844 43.15617187 78.57929687 42.49609375 79.71484375 C40.91973653 82.06579518 40.91973653 82.06579518 41 83.4375 C42.81325551 83.32398483 44.62563357 83.19637039 46.4375 83.0625 C47.44683594 82.99289063 48.45617187 82.92328125 49.49609375 82.8515625 C50.73552734 82.64660156 50.73552734 82.64660156 52 82.4375 C53.3023998 80.41816862 53.3023998 80.41816862 52.22265625 78.0546875 C51.83980469 77.14976563 51.45695312 76.24484375 51.0625 75.3125 C50.49208984 73.94738281 50.49208984 73.94738281 49.91015625 72.5546875 C49.60980469 71.85601562 49.30945313 71.15734375 49 70.4375 C48.67 70.4375 48.34 70.4375 48 70.4375 Z M-17 88.4375 C-18.93964085 98.52042641 -20.98845226 109.33505257 -15 118.4375 C-11.72318523 120.07590739 -8.54027249 119.95169651 -5 119.4375 C2.24087979 116.8456602 8.15817576 112.33390824 14 107.4375 C13.34758228 106.09713686 12.67624775 104.76599961 12 103.4375 C11.51789063 102.47714844 11.03578125 101.51679687 10.5390625 100.52734375 C6.73583734 94.21943293 6.73583734 94.21943293 0.61962891 90.59228516 C-5.18007135 89.27663703 -11.06794355 88.73517205 -17 88.4375 Z M33.35693359 92.70898438 C30.32936683 95.92242672 28.14487167 99.58635885 26 103.4375 C25.34 104.4275 24.68 105.4175 24 106.4375 C34.79410914 116.07416783 34.79410914 116.07416783 48.375 119.9375 C51.92020037 119.76381157 51.92020037 119.76381157 53.875 117.9375 C58.34082532 108.01344373 57.41474711 98.76485594 55 88.4375 C43.59516944 88.4013672 43.59516944 88.4013672 33.35693359 92.70898438 Z M13 92.4375 C14.52475697 95.48701395 15.92885326 97.80149506 18 100.4375 C22.20626034 98.93526416 23.73900021 96.15199966 26 92.4375 C21.71 92.4375 17.42 92.4375 13 92.4375 Z " fill="#00D7FF" transform="translate(53,1.5625)"/>
<path d="M0 0 C4.09964471 2.08709185 6.28541564 3.76396805 8 8 C8.72798272 12.65570345 8.42814156 16.14371687 6.3125 20.375 C2.71073658 24.46348821 0.5357378 25.82936247 -4.9375 26.4375 C-9.2150513 26.25994127 -11.73416458 24.81013746 -15 22 C-18.10355734 18.3791831 -18.63198154 14.93333102 -18.4921875 10.2890625 C-17.62946775 6.27673095 -15.12512125 3.55484365 -12 1 C-7.93172134 -0.35609289 -4.25370654 -0.5298986 0 0 Z " fill="#00D7FF" transform="translate(77,51)"/>
</svg>
