<?xml version="1.0" encoding="UTF-8"?>
<svg version="1.1" xmlns="http://www.w3.org/2000/svg" width="128" height="128">
<path d="M0 0 C41.58 0 83.16 0 126 0 C126 41.58 126 83.16 126 126 C84.42 126 42.84 126 0 126 C0 84.42 0 42.84 0 0 Z " fill="#007ACC" transform="translate(1,1)"/>
<path d="M0 0 C1.66869141 -0.03867187 1.66869141 -0.03867187 3.37109375 -0.078125 C8.82437294 0.48255487 11.92714155 3.34535574 15.5625 7.25 C14.22917905 11.24996286 12.0667173 12.08782337 8.5625 14.25 C4.6875 12.375 4.6875 12.375 3.5625 11.25 C-1.08838715 10.94476038 -1.08838715 10.94476038 -5.4375 12.25 C-5.585529 15.11071875 -5.585529 15.11071875 -4.4375 18.25 C-1.93795351 20.19014258 0.87253296 21.39826082 3.75 22.6875 C9.9096144 25.48636997 15.04919922 28.23285615 18.5625 34.25 C19.21875 37.63671875 19.21875 37.63671875 19.0625 40.9375 C19.0315625 42.03449219 19.000625 43.13148437 18.96875 44.26171875 C18.46306843 47.98139567 17.75786118 50.1813759 14.94140625 52.69921875 C14.34199219 53.10785156 13.74257812 53.51648438 13.125 53.9375 C12.52816406 54.35386719 11.93132812 54.77023438 11.31640625 55.19921875 C5.74728959 58.53572739 -1.19682391 57.7348472 -7.4375 57.25 C-13.83349774 55.58322508 -17.5974239 51.42828444 -21.4375 46.25 C-18.23759492 43.50722422 -15.43250618 41.6197164 -11.4375 40.25 C-10.4475 41.4565625 -10.4475 41.4565625 -9.4375 42.6875 C-5.484018 46.06443254 -3.58101286 46.16835694 1.5625 46.25 C4.0211786 45.81590267 4.0211786 45.81590267 5.5625 44.25 C6.37421228 41.69480079 6.37421228 41.69480079 6.5625 39.25 C2.06188284 36.36281164 -2.43884121 33.71037892 -7.1875 31.25 C-12.37920797 28.45280554 -15.52954142 25.97387575 -17.4375 20.25 C-18.12038162 15.44654858 -18.49896646 11.09006961 -16.015625 6.78515625 C-11.00983416 0.87019399 -7.65573034 0.10620666 0 0 Z " fill="#F7FAFD" transform="translate(97.4375,58.75)"/>
<path d="M0 0 C14.52 0 29.04 0 44 0 C44 3.3 44 6.6 44 10 C38.72 10 33.44 10 28 10 C28 25.51 28 41.02 28 57 C24.04 57 20.08 57 16 57 C16 41.49 16 25.98 16 10 C10.72 10 5.44 10 0 10 C0 6.7 0 3.4 0 0 Z " fill="#F7FAFD" transform="translate(29,59)"/>
</svg>
