<?xml version="1.0" encoding="UTF-8"?>
<svg version="1.1" xmlns="http://www.w3.org/2000/svg" width="128" height="128">
<path d="M0 0 C-0.64653327 6.95023264 -2.86027248 13.38177303 -5 20 C-4.2471875 19.81824219 -3.494375 19.63648437 -2.71875 19.44921875 C3.6030254 17.95316753 9.93674776 16.55766995 16.3125 15.3125 C18.22482422 14.93544922 18.22482422 14.93544922 20.17578125 14.55078125 C24.24109886 13.96527585 27.90142832 13.83462688 32 14 C32.495 14.495 32.495 14.495 33 15 C32.80856653 21.8004461 29.71598336 26.62630466 26.3125 32.375 C25.11904591 34.43706856 23.92636373 36.49958403 22.734375 38.5625 C21.8072168 40.15578125 21.8072168 40.15578125 20.86132812 41.78125 C17.87328568 46.9484 14.96948849 52.16195936 12.0625 57.375 C10.88825156 59.47408742 9.71377107 61.57304505 8.5390625 63.671875 C7.35931619 65.78121711 6.17962876 67.89059215 5 70 C0.91654359 77.30202188 -3.16946154 84.60259386 -7.26220703 91.89941406 C-8.43637702 93.99437879 -9.60919437 96.09010212 -10.78076172 98.18652344 C-12.51709424 101.29294202 -14.25808105 104.39671136 -16 107.5 C-16.51570557 108.42506348 -17.03141113 109.35012695 -17.56274414 110.30322266 C-19.01555461 112.88531361 -20.49574573 115.44756855 -22 118 C-22.5053125 118.86367187 -23.010625 119.72734375 -23.53125 120.6171875 C-24.0365625 121.43445313 -24.541875 122.25171875 -25.0625 123.09375 C-25.50722656 123.82271484 -25.95195313 124.55167969 -26.41015625 125.30273438 C-28.46272371 127.49398882 -30.0712734 127.67650659 -33 128 C-41.13053259 114.31881535 -49.02301684 100.50338163 -56.90332031 86.67724609 C-60.26387412 80.78197132 -63.63247914 74.89129665 -67 69 C-68.31774347 66.69403049 -69.63545164 64.38804082 -70.953125 62.08203125 C-71.61783634 60.91878129 -72.2825499 59.75553261 -72.94726562 58.59228516 C-87.671875 32.82421875 -87.671875 32.82421875 -89.42895508 29.74023438 C-90.3842902 28.07392802 -91.348057 26.41236964 -92.3269043 24.75976562 C-94.36046738 21.31800609 -95.59817694 19.06760319 -95 15 C-94.67 14.67 -94.34 14.34 -94 14 C-83.91827807 14.05759787 -74.03687869 16.13092183 -64.1875 18.0625 C-62.70520451 18.34766295 -61.22278306 18.63217194 -59.74023438 18.91601562 C-56.15867774 19.60317133 -52.578889 20.29906626 -49 21 C-49.02320313 20.22914062 -49.04640625 19.45828125 -49.0703125 18.6640625 C-49.08835938 17.66117188 -49.10640625 16.65828125 -49.125 15.625 C-49.14820313 14.62726562 -49.17140625 13.62953125 -49.1953125 12.6015625 C-49 10 -49 10 -47 8 C-45.24334717 7.45578003 -45.24334717 7.45578003 -43.10449219 7.03857422 C-42.30315857 6.87855927 -41.50182495 6.71854431 -40.6762085 6.55368042 C-39.80852844 6.38901276 -38.94084839 6.22434509 -38.046875 6.0546875 C-37.15389709 5.87994904 -36.26091919 5.70521057 -35.34088135 5.525177 C-33.4485184 5.1567646 -31.55540415 4.79219385 -29.66162109 4.43115234 C-26.77366572 3.87952042 -23.88874196 3.31378838 -21.00390625 2.74609375 C-19.16422686 2.38977534 -17.32438783 2.03427998 -15.484375 1.6796875 C-14.62479187 1.51097137 -13.76520874 1.34225525 -12.87957764 1.16842651 C-8.51924223 0.34498983 -4.46189604 -0.19458573 0 0 Z " fill="#8C72FC" transform="translate(95,0)"/>
<path d="M0 0 C-0.62695406 5.36080945 -1.84727237 10.28664606 -3.4375 15.4375 C-5.11244653 20.92953536 -6.64717619 26.41881524 -8 32 C-6.5459375 31.7525 -6.5459375 31.7525 -5.0625 31.5 C-0.70512237 30.86603727 3.60630704 30.9103328 8 31 C7.34624244 34.04354339 6.32653693 36.59512138 4.93383789 39.37524414 C4.50571304 40.23457047 4.0775882 41.09389679 3.63648987 41.97926331 C2.93664223 43.36818031 2.93664223 43.36818031 2.22265625 44.78515625 C1.7372789 45.75545273 1.25190155 46.72574921 0.7518158 47.72544861 C-0.2811585 49.78837321 -1.31607925 51.85032413 -2.3527832 53.91137695 C-3.90437861 56.99663992 -5.44981189 60.08492264 -6.99414062 63.17382812 C-12.52428745 74.21378912 -18.15298056 85.19372916 -23.94360352 96.09936523 C-25.68025876 99.37479618 -27.35834047 102.67571319 -29 106 C-29.99 106 -30.98 106 -32 106 C-31.48089929 98.75229032 -30.20271888 91.91609716 -28.4375 84.875 C-28.20353516 83.91851562 -27.96957031 82.96203125 -27.72851562 81.9765625 C-27.15839759 79.64955012 -26.58006779 77.32455211 -26 75 C-31.94 75.99 -31.94 75.99 -38 77 C-37.41939595 69.54891468 -36.46008973 62.32879991 -35 55 C-35.73605469 55.2165625 -36.47210938 55.433125 -37.23046875 55.65625 C-38.20628906 55.9346875 -39.18210937 56.213125 -40.1875 56.5 C-41.15042969 56.7784375 -42.11335938 57.056875 -43.10546875 57.34375 C-45.85345876 57.96677608 -48.19598416 58.12302812 -51 58 C-50.90912109 56.19595703 -50.90912109 56.19595703 -50.81640625 54.35546875 C-50.73156794 52.63282248 -50.64695197 50.91016525 -50.5625 49.1875 C-50.51665771 48.26928467 -50.47081543 47.35106934 -50.42358398 46.4050293 C-50.15383864 40.8255111 -49.93940797 35.24791749 -49.78125 29.6640625 C-49.72602173 27.83258667 -49.72602173 27.83258667 -49.66967773 25.96411133 C-49.5987483 23.54750192 -49.53564157 21.13064908 -49.48071289 18.71362305 C-49.4471167 17.60801025 -49.41352051 16.50239746 -49.37890625 15.36328125 C-49.3538501 14.37626221 -49.32879395 13.38924316 -49.30297852 12.37231445 C-49 10 -49 10 -47 8 C-45.24334717 7.45578003 -45.24334717 7.45578003 -43.10449219 7.03857422 C-42.30315857 6.87855927 -41.50182495 6.71854431 -40.6762085 6.55368042 C-39.80852844 6.38901276 -38.94084839 6.22434509 -38.046875 6.0546875 C-37.15389709 5.87994904 -36.26091919 5.70521057 -35.34088135 5.525177 C-33.4485184 5.1567646 -31.55540415 4.79219385 -29.66162109 4.43115234 C-26.77366572 3.87952042 -23.88874196 3.31378838 -21.00390625 2.74609375 C-19.16422686 2.38977534 -17.32438783 2.03427998 -15.484375 1.6796875 C-14.62479187 1.51097137 -13.76520874 1.34225525 -12.87957764 1.16842651 C-8.51924223 0.34498983 -4.46189604 -0.19458573 0 0 Z " fill="#FDC722" transform="translate(95,0)"/>
<path d="M0 0 C-0.33 2.31 -0.66 4.62 -1 7 C-1.98613281 7.09796875 -2.97226563 7.1959375 -3.98828125 7.296875 C-13.84084402 8.31545595 -23.63841427 9.61717243 -33.4375 11.0625 C-34.62835205 11.2368457 -35.8192041 11.41119141 -37.04614258 11.59082031 C-38.72293091 11.8417041 -38.72293091 11.8417041 -40.43359375 12.09765625 C-41.43447021 12.24726807 -42.43534668 12.39687988 -43.46655273 12.55102539 C-46.11214505 12.95636453 -46.11214505 12.95636453 -49 14 C-48.67 12.35 -48.34 10.7 -48 9 C-43.32019048 7.31957312 -38.6213964 6.21641928 -33.75 5.2734375 C-32.97366211 5.12089508 -32.19732422 4.96835266 -31.39746094 4.81118774 C-29.76406705 4.49156517 -28.1302687 4.17400331 -26.49609375 3.85839844 C-24.00636656 3.37623296 -21.51881381 2.88381498 -19.03125 2.390625 C-17.43762143 2.08010532 -15.84387513 1.77018914 -14.25 1.4609375 C-13.51233398 1.31409515 -12.77466797 1.16725281 -12.01464844 1.01596069 C-7.95197775 0.2410763 -4.13464782 -0.15196131 0 0 Z " fill="#FFE463" transform="translate(95,0)"/>
<path d="M0 0 C-0.33 0.99 -0.66 1.98 -1 3 C-1.58676514 3.07516846 -2.17353027 3.15033691 -2.77807617 3.2277832 C-13.77601906 4.64029446 -24.76999339 6.07856111 -35.75 7.625 C-37.07874146 7.80929565 -37.07874146 7.80929565 -38.43432617 7.99731445 C-39.25521729 8.11421631 -40.0761084 8.23111816 -40.921875 8.3515625 C-41.63956055 8.45291504 -42.35724609 8.55426758 -43.09667969 8.65869141 C-45.21302959 8.99111358 -45.21302959 8.99111358 -48 10 C-47.67 8.35 -47.34 6.7 -47 5 C-46.29915283 4.9498877 -45.59830566 4.89977539 -44.8762207 4.84814453 C-41.68764204 4.61543238 -38.50013061 4.37034319 -35.3125 4.125 C-34.20970703 4.04636719 -33.10691406 3.96773438 -31.97070312 3.88671875 C-30.90400391 3.80292969 -29.83730469 3.71914062 -28.73828125 3.6328125 C-27.26935425 3.52283936 -27.26935425 3.52283936 -25.77075195 3.41064453 C-22.91021586 2.98669337 -20.64876889 2.13301221 -18 1 C-12.00844124 -0.19831175 -6.08103455 -0.09896801 0 0 Z " fill="#FFE048" transform="translate(94,4)"/>
</svg>
