<?xml version="1.0" encoding="UTF-8"?>
<svg version="1.1" xmlns="http://www.w3.org/2000/svg" width="128" height="128">
<path d="M0 0 C3.31152344 1.23754883 3.31152344 1.23754883 6.859375 2.95703125 C7.48982727 3.26066086 8.12027954 3.56429047 8.76983643 3.87712097 C10.09361048 4.51798219 11.41461123 5.1646007 12.73291016 5.81665039 C14.7510591 6.81302288 16.77872947 7.78752099 18.80859375 8.75976562 C28.72308556 13.58462835 28.72308556 13.58462835 31 17 C31.21580973 19.99317592 31.31448246 22.89508915 31.32226562 25.89013672 C31.33716034 27.25400009 31.33716034 27.25400009 31.35235596 28.64541626 C31.38159461 31.65687065 31.39520144 34.66811442 31.40625 37.6796875 C31.41775257 39.77092496 31.42926804 41.86216234 31.4407959 43.95339966 C31.46181404 48.3398741 31.47350077 52.72627524 31.48046875 57.11279297 C31.49144342 62.73446752 31.53950787 68.35517445 31.59641266 73.97654533 C31.63365324 78.29683263 31.64407584 82.61688645 31.6471405 86.93732071 C31.65319668 89.00981059 31.6692647 91.08229622 31.69551086 93.15462875 C31.72961492 96.05419388 31.72588006 98.95139007 31.71289062 101.85107422 C31.73132019 102.70735413 31.74974976 103.56363403 31.76873779 104.44586182 C31.6889444 110.1301669 31.6889444 110.1301669 29.7204504 112.61550713 C24.57251328 117.01669267 18.15118854 119.56275098 12.0625 122.375 C10.3309668 123.21224609 10.3309668 123.21224609 8.56445312 124.06640625 C7.44103516 124.58847656 6.31761719 125.11054687 5.16015625 125.6484375 C4.14574463 126.12458496 3.13133301 126.60073242 2.08618164 127.09130859 C-1.67382656 128.19840064 -4.20509195 127.87317472 -8 127 C-10.44921875 125.3203125 -10.44921875 125.3203125 -12.6875 123.125 C-13.96560547 121.90296875 -13.96560547 121.90296875 -15.26953125 120.65625 C-16.17058594 119.7796875 -17.07164063 118.903125 -18 118 C-19.95343759 116.20252021 -21.9113175 114.41115107 -23.875 112.625 C-24.89118562 111.69331944 -25.90680626 110.76102228 -26.921875 109.828125 C-27.42912109 109.36212891 -27.93636719 108.89613281 -28.45898438 108.41601562 C-29.48632812 107.47200521 -30.51367188 106.52799479 -31.54101562 105.58398438 C-35.02330103 102.38488355 -38.51069207 99.19144018 -42 96 C-42.88945313 95.18144531 -43.77890625 94.36289063 -44.6953125 93.51953125 C-45.53835937 92.74996094 -46.38140625 91.98039062 -47.25 91.1875 C-47.97703125 90.52105469 -48.7040625 89.85460937 -49.453125 89.16796875 C-52.84727598 86.27877581 -56.4115153 83.6415542 -60 81 C-60.55985596 81.41362793 -61.11971191 81.82725586 -61.6965332 82.25341797 C-64.23466077 84.12799482 -66.77357103 86.00150873 -69.3125 87.875 C-70.19357422 88.52597656 -71.07464844 89.17695312 -71.98242188 89.84765625 C-72.82998047 90.47285156 -73.67753906 91.09804687 -74.55078125 91.7421875 C-75.72120972 92.60626221 -75.72120972 92.60626221 -76.9152832 93.48779297 C-81.65870675 96.92856653 -81.65870675 96.92856653 -84.6875 97.5625 C-89.67004458 96.71640752 -92.58871729 93.5985369 -96 90 C-97.54008948 86.91982103 -97.59310325 85.45114439 -97 82 C-94.54289179 78.92493643 -91.64074079 76.40285267 -88.6875 73.8125 C-87.90181641 73.10158203 -87.11613281 72.39066406 -86.30664062 71.65820312 C-84.84499635 70.33588154 -83.37711718 69.02039601 -81.90112305 67.71411133 C-80.21087258 66.19012924 -78.59166097 64.62587686 -77 63 C-77.87398437 62.61908203 -77.87398437 62.61908203 -78.765625 62.23046875 C-81.24188033 60.86679667 -82.80520626 59.35774797 -84.75 57.3125 C-87.5279467 54.42489751 -90.36677211 51.8693605 -93.5 49.375 C-96.1623199 47.06450542 -96.90071354 46.38187099 -97.8125 42.875 C-96.7397439 39.07909378 -94.96244798 37.5584778 -92 35 C-91.38125 34.236875 -90.7625 33.47375 -90.125 32.6875 C-88 31 -88 31 -84.94140625 30.46484375 C-79.2468198 31.2380433 -76.12247347 34.24367858 -71.8125 37.875 C-70.23796719 39.16685876 -68.66122295 40.45602801 -67.08203125 41.7421875 C-66.39343018 42.3182373 -65.7048291 42.89428711 -64.99536133 43.48779297 C-63.06828508 44.94824939 -61.19460665 45.99834799 -59 47 C-57.78108048 45.88265711 -56.56216424 44.76531065 -55.34326172 43.64794922 C-54.26681819 42.66123681 -53.19031938 41.6745847 -52.11376953 40.68798828 C-49.3688492 38.17227556 -46.624671 35.65576848 -43.8828125 33.13671875 C-38.47416247 28.16946631 -33.04537829 23.22661889 -27.57421875 18.328125 C-25.68804011 16.6222639 -23.81728296 14.90554326 -21.95703125 13.171875 C-7.10808398 -0.65531339 -7.10808398 -0.65531339 0 0 Z M-5.65625 38.60546875 C-6.42412842 39.17104492 -7.19200684 39.73662109 -7.9831543 40.31933594 C-8.81371338 40.93583008 -9.64427246 41.55232422 -10.5 42.1875 C-11.34409424 42.81301758 -12.18818848 43.43853516 -13.05786133 44.08300781 C-15.70818825 46.05141252 -18.35443724 48.02519814 -21 50 C-21.8461084 50.62922363 -22.6922168 51.25844727 -23.56396484 51.90673828 C-25.94421846 53.68032493 -28.31709175 55.46328442 -30.6875 57.25 C-31.42355469 57.79809326 -32.15960938 58.34618652 -32.91796875 58.91088867 C-34.64967854 60.22569765 -36.33089025 61.60658187 -38 63 C-38 63.66 -38 64.32 -38 65 C-36.47237519 66.39803191 -36.47237519 66.39803191 -34.44140625 67.80078125 C-33.67038574 68.36007324 -32.89936523 68.91936523 -32.10498047 69.49560547 C-31.26596191 70.09518066 -30.42694336 70.69475586 -29.5625 71.3125 C-27.82576664 72.57015723 -26.09011351 73.82930735 -24.35546875 75.08984375 C-23.46778809 75.73421387 -22.58010742 76.37858398 -21.66552734 77.04248047 C-16.76866319 80.63865713 -11.96849942 84.36102464 -7.17016602 88.0871582 C-4.35856398 90.74873374 -4.35856398 90.74873374 -1 92 C-1 73.52 -1 55.04 -1 36 C-2.84005909 36 -4.22826436 37.55150343 -5.65625 38.60546875 Z " fill="#1884CC" transform="translate(97,0)"/>
<path d="M0 0 C3.93495597 0.36901117 6.60875147 1.54422131 10.16308594 3.2668457 C11.10876434 3.72229012 11.10876434 3.72229012 12.07354736 4.18693542 C13.39732142 4.82779665 14.71832217 5.47441515 16.03662109 6.12646484 C18.05477004 7.12283734 20.08244041 8.09733544 22.11230469 9.06958008 C32.0267965 13.8944428 32.0267965 13.8944428 34.30371094 17.30981445 C34.51952067 20.30299038 34.61819339 23.20490361 34.62597656 26.19995117 C34.63590637 27.10919342 34.64583618 28.01843567 34.65606689 28.95523071 C34.68530555 31.96668511 34.69891237 34.97792887 34.70996094 37.98950195 C34.72146351 40.08073941 34.73297898 42.17197679 34.74450684 44.26321411 C34.76552497 48.64968856 34.77721171 53.0360897 34.78417969 57.42260742 C34.79515436 63.04428198 34.8432188 68.6649889 34.9001236 74.28635979 C34.93736417 78.60664708 34.94778677 82.9267009 34.95085144 87.24713516 C34.95690762 89.31962505 34.97297564 91.39211067 34.9992218 93.46444321 C35.03332586 96.36400833 35.029591 99.26120452 35.01660156 102.16088867 C35.03503113 103.01716858 35.05346069 103.87344849 35.07244873 104.75567627 C34.99260161 110.44380878 34.99260161 110.44380878 33.01559544 112.92910671 C28.22882942 117.01321086 22.38226406 119.46331584 16.74121094 122.12231445 C15.19916992 122.87544922 15.19916992 122.87544922 13.62597656 123.64379883 C12.63146484 124.1175293 11.63695313 124.59125977 10.61230469 125.0793457 C9.71310303 125.50836182 8.81390137 125.93737793 7.88745117 126.37939453 C5.17690584 127.35547771 3.16017941 127.49346984 0.30371094 127.30981445 C0.79871094 126.31981445 0.79871094 126.31981445 1.30371094 125.30981445 C1.39642089 123.70060536 1.42563406 122.08755411 1.42396545 120.47567749 C1.42534012 119.45481552 1.42671478 118.43395355 1.4281311 117.38215637 C1.42453583 116.25790756 1.42094055 115.13365875 1.41723633 113.9753418 C1.41738235 112.79486771 1.41752838 111.61439362 1.41767883 110.39814758 C1.41710053 107.15661671 1.41207677 103.9151287 1.40510488 100.6736064 C1.398864 97.28766535 1.39826696 93.9017235 1.39707947 90.51577759 C1.39396832 84.10200435 1.38575785 77.68824811 1.37572998 71.27448237 C1.36456212 63.97348899 1.35905669 56.6724948 1.35403454 49.37149501 C1.34357506 34.35092535 1.3259798 19.3303716 1.30371094 4.30981445 C-0.67628906 3.64981445 -2.65628906 2.98981445 -4.69628906 2.30981445 C-2.69628906 0.30981445 -2.69628906 0.30981445 0 0 Z " fill="#3AA7F0" transform="translate(93.6962890625,-0.309814453125)"/>
<path d="M0 0 C4.60983371 4.60983371 3.45077892 15.18810369 3.54125977 21.55151367 C3.43626901 28.50421842 2.92642264 34.06851853 -2.15625 39.29296875 C-6.53623125 42.8617206 -11.29221861 45.71755248 -16.23730469 48.43310547 C-20.31514072 50.74589724 -23.96755934 53.53539701 -27.6875 56.375 C-28.87720728 57.23932258 -30.06845338 58.10153382 -31.26171875 58.9609375 C-33.97573875 60.87919308 -33.97573875 60.87919308 -36 63 C-36.5347998 62.58113525 -37.06959961 62.16227051 -37.62060547 61.73071289 C-40.03733442 59.83950824 -42.45613734 57.95097472 -44.875 56.0625 C-45.71675781 55.40314453 -46.55851562 54.74378906 -47.42578125 54.06445312 C-48.23144531 53.43603516 -49.03710938 52.80761719 -49.8671875 52.16015625 C-50.61081543 51.57886963 -51.35444336 50.99758301 -52.12060547 50.39868164 C-53.94973474 48.95211841 -53.94973474 48.95211841 -56 48 C-55.46929251 44.03738408 -53.73522514 42.54225625 -50.75 40 C-46.60120065 36.39647142 -42.52363888 32.74144467 -38.5 29 C-33.8856406 24.72659981 -29.23666636 20.49583715 -24.55078125 16.30078125 C-22.64206735 14.57913885 -20.74460393 12.84836304 -18.85546875 11.10546875 C-18.31865479 10.61054932 -17.78184082 10.11562988 -17.22875977 9.60571289 C-16.18740666 8.64425657 -15.14744664 7.68128839 -14.10913086 6.71655273 C-6.11212699 -0.66436163 -6.11212699 -0.66436163 0 0 Z " fill="#2E7FB6" transform="translate(94,2)"/>
<path d="M0 0 C3.03708705 1.34981647 5.03741247 2.83916739 7.3125 5.25 C10.69808043 8.74550187 14.26855998 11.87777468 18 15 C13.76476181 19.52497279 9.0558444 23.15614904 4.0625 26.8125 C2.88397461 27.7087207 2.88397461 27.7087207 1.68164062 28.62304688 C-1.6954056 31.09577946 -4.13860193 32.84384609 -8.296875 33.59765625 C-11.49643476 32.89023914 -12.94956132 31.87323292 -15.3125 29.625 C-15.98925781 28.99851562 -16.66601562 28.37203125 -17.36328125 27.7265625 C-19.38239163 25.5966179 -19.94128247 24.2632437 -20.58203125 21.390625 C-19.64408432 15.92661201 -15.72112636 13.31080839 -11.6875 9.75 C-10.90181641 9.03070313 -10.11613281 8.31140625 -9.30664062 7.5703125 C-6.28999253 4.82837194 -3.39656266 2.26437511 0 0 Z " fill="#1671AE" transform="translate(20,64)"/>
</svg>
