<?xml version="1.0" encoding="UTF-8"?>
<svg version="1.1" xmlns="http://www.w3.org/2000/svg" width="148" height="128">
<path d="M0 0 C19.14 0 38.28 0 58 0 C60.475 4.24875 62.95 8.4975 65.5 12.875 C66.28310547 14.2141748 67.06621094 15.55334961 67.87304688 16.93310547 C68.78666992 18.50922607 68.78666992 18.50922607 69.71875 20.1171875 C70.34716797 21.19597168 70.97558594 22.27475586 71.62304688 23.38623047 C73 26 73 26 73 28 C73.66 28 74.32 28 75 28 C75.99 25.525 75.99 25.525 77 23 C81.29 15.41 85.58 7.82 90 0 C109.14 0 128.28 0 148 0 C146.45460244 3.86349391 144.88793449 7.12420698 142.83203125 10.69921875 C141.87466064 12.36936035 141.87466064 12.36936035 140.89794922 14.07324219 C140.20289367 15.27804914 139.5077414 16.48280029 138.8125 17.6875 C138.09105251 18.94288672 137.36986506 20.19842292 136.64892578 21.45410156 C134.7949706 24.68120292 132.93698535 27.90596414 131.07781982 31.13006592 C130.05233129 32.90920925 129.02805128 34.68904049 128.00439453 36.46923828 C120.80529564 48.98884919 113.56189493 61.48185983 106.27563477 73.95092773 C101.93077588 81.3911236 97.61611932 88.84838468 93.3125 96.3125 C92.68899658 97.39192871 92.06549316 98.47135742 91.4230957 99.58349609 C88.48908097 104.66592562 85.56788662 109.75465965 82.6796875 114.86328125 C82.17139404 115.75684326 81.66310059 116.65040527 81.1394043 117.57104492 C80.19456087 119.23306057 79.25559673 120.89843694 78.32348633 122.56762695 C77.27172535 124.41154874 76.14399354 126.21183684 75 128 C74.34 128 73.68 128 73 128 C72.6189209 127.33806641 72.2378418 126.67613281 71.84521484 125.99414062 C64.9259555 113.97898219 57.99610222 101.97063936 51 90 C42.97716352 76.26954344 35.04141664 62.489219 27.10449219 48.70898438 C25.21601511 45.43068947 23.32679702 42.15282242 21.4375 38.875 C20.82712891 37.81490723 20.21675781 36.75481445 19.58789062 35.66259766 C16.3973754 30.12815101 13.18721643 24.60606095 9.9453125 19.1015625 C9.29377197 17.99312988 8.64223145 16.88469727 7.97094727 15.74267578 C6.7226222 13.62162506 5.47065051 11.50271524 4.21459961 9.38623047 C3.6603833 8.44408691 3.10616699 7.50194336 2.53515625 6.53125 C1.79857788 5.28698242 1.79857788 5.28698242 1.04711914 4.01757812 C0 2 0 2 0 0 Z " fill="#40B782" transform="translate(0,0)"/>
<path d="M0 0 C9.24 0 18.48 0 28 0 C30.14026432 3.66392868 32.27781511 7.32917583 34.40869141 10.99853516 C35.1346749 12.24683697 35.86220842 13.49423865 36.59130859 14.74072266 C37.63786202 16.5305426 38.67883383 18.32350512 39.71875 20.1171875 C40.34716797 21.19597168 40.97558594 22.27475586 41.62304688 23.38623047 C43 26 43 26 43 28 C43.66 28 44.32 28 45 28 C45.26731934 27.28884033 45.53463867 26.57768066 45.81005859 25.8449707 C47.03614748 22.91357682 48.46629021 20.24052993 50.0390625 17.48046875 C50.56193848 16.55903076 51.08481445 15.63759277 51.62353516 14.68823242 C52.28401855 13.53299072 52.94450195 12.37774902 53.625 11.1875 C55.72875 7.495625 57.8325 3.80375 60 0 C69.24 0 78.48 0 88 0 C84.06502146 7.86995709 80.1000161 15.46217348 75.625 23 C69.52948421 33.35502289 63.53926131 43.76526419 57.59423828 54.20703125 C56.34675123 56.39661592 55.09683582 58.58481925 53.84423828 60.77148438 C52.56699273 63.00742496 51.30015955 65.2473188 50.04248047 67.49414062 C49.10686279 69.14446289 49.10686279 69.14446289 48.15234375 70.828125 C47.59409912 71.82231445 47.03585449 72.81650391 46.46069336 73.84082031 C45.73765015 74.90961426 45.73765015 74.90961426 45 76 C44.34 76 43.68 76 43 76 C42.6189209 75.33806641 42.2378418 74.67613281 41.84521484 73.99414062 C34.90278991 61.93875559 27.95023459 49.88967079 20.9375 37.875 C20.37514648 36.91062012 19.81279297 35.94624023 19.23339844 34.95263672 C16.17173429 29.70593876 13.09780343 24.46674902 10.01171875 19.234375 C9.36146729 18.12852051 8.71121582 17.02266602 8.04125977 15.88330078 C6.78624184 13.74933859 5.5277434 11.61741863 4.26538086 9.48779297 C3.42632202 8.05910889 3.42632202 8.05910889 2.5703125 6.6015625 C2.07289551 5.75932129 1.57547852 4.91708008 1.06298828 4.04931641 C0 2 0 2 0 0 Z " fill="#354A5E" transform="translate(30,0)"/>
</svg>
